<svg xmlns="http://www.w3.org/2000/svg" width="390" height="138" viewBox="0 0 390 138">
  <g fill="none" fill-rule="evenodd">
    <path fill="#236dbd" d="m-36.6501664 91h-9.3498336v-45h25.689051v7.8180575h-16.3392174v11.6039671h15.2049753v7.7872777h-15.2049753zm34.65123429-25.0239398h3.06551922c3.00422385 0 5.22159391-.502731 6.65217669-1.5082079 1.43058279-1.005477 2.14586345-2.5854886 2.14586345-4.7400821 0-2.1340736-.7306081-3.6525263-2.19184624-4.5554036-1.46123813-.9028773-3.72459051-1.3543091-6.79012505-1.3543091h-2.88158807zm0 7.7564979v17.2674419h-9.50310959v-45h13.05911188c6.09019529 0 10.59646352 1.11319 13.51893972 3.3396033 2.9224763 2.2264133 4.3836925 5.6070225 4.3836925 10.1419288 0 2.6470721-.725499 5.0016997-2.1765186 7.0639535-1.4510197 2.0622538-3.5048971 3.6781748-6.1616937 4.8478113 6.744176 10.1163296 11.138043 16.651832 13.1817327 19.6067031h-10.5453861l-10.6986621-17.2674419zm57.79590441 17.2674419h-25.8116718v-45h25.8116718v7.8180575h-16.3085623v9.8803009h15.1743201v7.8180575h-15.1743201v11.6039671h16.3085623zm35.2030277 0h-25.8116718v-45h25.8116718v7.8180575h-16.3085622v9.8803009h15.1743201v7.8180575h-15.1743201v11.6039671h16.3085622z" transform="rotate(-90 22.5 68.5)"/>
    <path fill="#363c45" d="M151 137h-92.6374269v-19.571814l33.2660819-33.7727578c9.849952-10.1349125 16.28556-17.1594545 19.307018-21.0738368 3.021457-3.9143824 5.196874-7.5404419 6.526315-10.8782873 1.329442-3.3378454 1.994152-6.7970151 1.994152-10.3776129 0-5.3405527-1.465385-9.3155635-4.396198-11.9251518-2.930814-2.6095882-6.843543-3.9143627-11.738305-3.9143627-5.1364775 0-10.1218078 1.1834001-14.9561399 3.550236-4.8343322 2.3668358-9.8800907 5.7349748-15.1374269 10.1045178l-15.2280702-18.1153068c6.5263484-5.583305 11.9346764-9.5279723 16.2251462-11.83411999 4.2904698-2.30614774 8.9736588-4.081248 14.0497076-5.32535401 5.0760488-1.24410602 10.7563039-1.8661497 17.0409352-1.8661497 8.278794 0 15.590612 1.5171797 21.935673 4.55158463 6.345061 3.03440492 11.269963 7.28250807 14.774854 12.74443697 3.504891 5.4619288 5.25731 11.7127092 5.25731 18.7525286 0 6.129498-1.072602 11.8796091-3.217837 17.2505058-2.145234 5.3708967-5.468788 10.878259-9.97076 16.5222522-4.501972 5.6439931-12.433179 13.6850455-23.793859 24.1233985l-17.0409361 16.1126093v1.274444h57.7397661zM226.249262 44.3555858c0 14.138127-3.830576 24.9466021-11.491843 32.4257493-7.661266 7.4791473-18.685137 11.2186649-33.071943 11.2186649h-23.685476v-85.64850136h26.200231c13.295124 0 23.626957 3.69069879 30.995808 11.07220706 7.368852 7.3815083 11.053223 17.6920319 11.053223 30.9318801zm-10.526879.3514987c0-11.1699015-2.797392-19.5862569-8.392261-25.2493188-5.594869-5.663062-13.90907-8.4945504-24.942854-8.4945504h-14.445216v68.4250681h12.10591c11.852545 0 20.761314-2.9193623 26.726575-8.7581744 5.96526-5.8388121 8.947846-14.4797339 8.947846-25.9230245zm81.019213 43.2929155l-10.643844-27.2411444h-34.270837l-10.526878 27.2411444h-10.059018l33.802977-86h8.36302l33.627528 86zm-13.743424-36.2043597l-9.942052-26.5381471c-1.286625-3.3587816-2.612219-7.4790855-3.976821-12.3610354-.85775 3.7493375-2.085873 7.8696415-3.684407 12.3610354l-10.059018 26.5381471zm50.432782-6.619891l22.808237-42.82425066h10.760809l-28.539537 52.43188006v33.2166213h-10.059017v-32.7479564l-28.481054-52.90054496h10.877774zM180.157012 127.747838c0 2.910637-1.073171 5.180298-3.219545 6.809048-2.146375 1.628751-5.059267 2.443114-8.738766 2.443114-3.986124 0-7.052327-.505207-9.198701-1.515635v-3.709914c1.379812.573079 2.882251 1.025503 4.507363 1.357286 1.625112.331782 3.234869.497671 4.829318.497671 2.606312 0 4.568682-.486356 5.887169-1.459082s1.97772-2.326228 1.97772-4.060546c0-1.146157-.233797-2.084937-.7014-2.816367s-1.249485-1.406295-2.345669-2.024617-2.763432-1.319579-5.001794-2.103793c-3.127574-1.100914-5.362069-2.405404-6.703553-3.913506s-2.012216-3.476147-2.012216-5.904192c0-2.548693.97352-4.57706 2.920588-6.085163 1.947068-1.508102 4.522678-2.262142 7.726908-2.262142 3.342212 0 6.41608.603232 9.221698 1.809714l-1.218828 3.347971c-2.774955-1.146158-5.473214-1.719229-8.094857-1.719229-2.069718 0-3.68714.437344-4.852314 1.312043-1.165175.874699-1.747753 2.088704-1.747753 3.642049 0 1.146158.214634 2.084938.643909 2.816368.429275.731429 1.153665 1.402525 2.173193 2.013306 1.019528.610782 2.579458 1.285647 4.679839 2.024618 3.526186 1.236644 5.952319 2.563754 7.278472 3.98137 1.326152 1.417617 1.989219 3.257474 1.989219 5.519628zm32.477181 8.799734h-3.909448v-15.56354h-17.707499v15.56354h-3.909448v-33.072522h3.909448v14.070526h17.707499v-14.070526h3.909448zm9.296455 0v-33.072522h3.909448v33.072522zm34.523892-23.435796c0 3.347988-1.161324 5.923034-3.484008 7.725217-2.322683 1.802182-5.645681 2.70326-9.969092 2.70326h-3.955441v13.007319h-3.909448v-33.072522h8.715769c8.401522 0 12.60222 3.21221 12.60222 9.636726zm-17.408541 7.125749h3.518503c3.464861 0 5.971482-.550449 7.519938-1.651364s2.322672-2.865368 2.322672-5.293413c0-2.186749-.728223-3.815475-2.184691-4.886228-1.456469-1.070752-3.725459-1.606121-6.807039-1.606121h-4.369383zm45.838294-7.125749c0 3.347988-1.161324 5.923034-3.484008 7.725217-2.322683 1.802182-5.645681 2.70326-9.969092 2.70326h-3.955441v13.007319h-3.909448v-33.072522h8.715769c8.401522 0 12.60222 3.21221 12.60222 9.636726zm-17.408541 7.125749h3.518503c3.464861 0 5.971482-.550449 7.519938-1.651364s2.322672-2.865368 2.322672-5.293413c0-2.186749-.728223-3.815475-2.184692-4.886228-1.456468-1.070752-3.725458-1.606121-6.807038-1.606121h-4.369383zm24.520305 16.310047v-33.072522h3.909448v33.072522zm39.468194 0h-4.46137l-18.374405-27.756488h-.183974c.2453 3.257502.367948 6.2435.367948 8.958084v18.798404h-3.61049v-33.072522h4.415376l18.328412 27.64338h.183974c-.030663-.407188-.099652-1.715447-.206971-3.924817s-.145646-3.789084-.114984-4.739189v-18.979374h3.656484zm24.106363-17.328011h11.429386v16.083832c-1.778424.557998-3.587484.98026-5.427233 1.2668-1.83975.286539-3.970761.429807-6.393098.429807-5.089973 0-9.05304-1.489229-11.88932-4.467731-2.836281-2.978503-4.254399-7.152114-4.254399-12.520958 0-3.438474.701394-6.450863 2.104202-9.037259 1.402809-2.586396 3.42267-4.56198 6.059645-5.926813 2.636974-1.364833 5.726173-2.047239 9.267691-2.047239 3.587511 0 6.929672.648474 10.026583 1.945442l-1.517785 3.393214c-3.035587-1.266806-5.956145-1.9002-8.761763-1.9002-4.093442 0-7.289959 1.198924-9.589645 3.596807-2.299687 2.397883-3.449513 5.723199-3.449513 9.976048 0 4.463983 1.107666 7.849622 3.323031 10.157019 2.215364 2.307397 5.469372 3.461078 9.762121 3.461078 2.330349 0 4.607005-.263914 6.830035-.79175v-10.179641h-7.519938zM381.797269 1l-.587185 5.5997819 5.434874-1.5736096.355042 2.58015267-5.202731.43947656 3.386555 4.62159217-2.34874 1.3326063-2.403361-5.13195202-2.184874 5.13195202-2.403362-1.3326063 3.304622-4.62159217-5.148109-.43947656.396008-2.58015267 5.339286 1.5736096-.587185-5.5997819z"/>
  </g>
</svg>
