<?xml version="1.0" encoding="utf-8"?>
<!-- Generator: Adobe Illustrator 20.0.0, SVG Export Plug-In . SVG Version: 6.00 Build 0)  -->
<!DOCTYPE svg PUBLIC "-//W3C//DTD SVG 1.1//EN" "http://www.w3.org/Graphics/SVG/1.1/DTD/svg11.dtd">
<svg version="1.1" xmlns="http://www.w3.org/2000/svg" xmlns:xlink="http://www.w3.org/1999/xlink" x="0px" y="0px"
	 viewBox="0 0 432 311.1" style="enable-background:new 0 0 432 311.1;" xml:space="preserve">
<style type="text/css">
	.st0{fill:#FFFFFF;}
	.st1{stroke:#FFFFFF;stroke-linecap:round;stroke-linejoin:round;stroke-miterlimit:10;}
	.st2{stroke:#FFFFFF;stroke-width:1.1635;stroke-linecap:round;stroke-linejoin:round;stroke-miterlimit:10;}
	.st3{enable-background:new    ;}
	.st4{clip-path:url(#SVGID_2_);}
	.st5{clip-path:url(#SVGID_4_);}
	.st6{fill:#FFFFFF;stroke:#000000;stroke-width:0.4591;stroke-linecap:round;stroke-linejoin:round;stroke-miterlimit:10;}
	.st7{fill:#FFFFFF;stroke:#000000;stroke-width:0.6886;stroke-linecap:round;stroke-linejoin:round;stroke-miterlimit:10;}
	.st8{fill:#FFFFFF;stroke:#000000;stroke-width:0.9181;stroke-linecap:round;stroke-linejoin:round;stroke-miterlimit:10;}
	.st9{fill:none;stroke:#000000;stroke-width:0.4591;stroke-linecap:round;stroke-linejoin:round;stroke-miterlimit:10;}
	.st10{fill:#FFFFFF;stroke:#000000;stroke-width:0.2295;stroke-linecap:round;stroke-linejoin:round;stroke-miterlimit:10;}
</style>
<g id="Layer_2">
	<rect x="-6.5" y="-6.7" width="455.5" height="339.7"/>
</g>
<g id="Layer_1">
	<g>
		<path class="st0" d="M408.9,230.1c0,0-3,2.3-7.4,5.8c-4.5,3.5-10.4,8.3-16.4,12.8c-6.1,4.6-12.3,8.9-17.2,11.9
			c-4.9,3-8.3,4.8-8.3,4.8l-1.9-3.9c0,0,3.4-1.5,8.3-4.1c5-2.6,11.4-6.6,17.7-10.7c6.3-4.2,12.5-8.5,17.1-11.8
			c4.7-3.2,7.8-5.4,7.8-5.4L408.9,230.1z"/>
		<path class="st0" d="M71,265.5c0,0-0.8-0.4-2.2-1.2c-1.4-0.8-3.5-2-5.9-3.5c-4.8-3-10.8-7.3-16.7-11.9
			c-5.8-4.6-11.5-9.3-15.8-12.8c-4.3-3.4-7.2-5.7-7.2-5.7l0.4-0.6c0,0,3,2.1,7.6,5.3c4.5,3.2,10.5,7.6,16.6,11.8
			c6.1,4.2,12.3,8.1,17.1,10.7c2.4,1.3,4.4,2.3,5.8,3c1.5,0.7,2.3,1.1,2.3,1.1L71,265.5z"/>
		<g>
			<path class="st0" d="M96.1,275.4c-1.2,0.5-2.6,0.4-4.2-0.3l-3.1-1.2l-2.4,6l-3.1-1.2l6.8-16.7l6.4,2.6c1.5,0.6,2.5,1.5,3,2.7
				c0.5,1.2,0.4,2.7-0.3,4.5C98.3,273.8,97.3,275,96.1,275.4z M96.2,268.5c-0.2-0.5-0.7-0.9-1.4-1.2l-2.8-1.1l-2,4.9l2.8,1.1
				c0.7,0.3,1.3,0.3,1.9,0.1c0.6-0.2,1-0.8,1.4-1.7C96.4,269.7,96.4,269,96.2,268.5z"/>
			<path class="st0" d="M107.4,268.7l3.6,1.3l-0.6,18.9l-3.4-1.2l0.2-3.8l-5.6-2l-2.3,3.1l-3.3-1.2L107.4,268.7z M103.4,279.2
				l3.9,1.4l0.4-7.4L103.4,279.2z"/>
			<path class="st0" d="M128.7,276c0.5,0.4,0.8,1,1.1,1.6c0.2,0.5,0.3,1.1,0.3,1.7c0,0.6,0,1.2-0.2,1.9c-0.2,0.8-0.7,1.6-1.3,2.3
				c-0.6,0.7-1.4,1.1-2.3,1.1c0.6,0.5,1,1.1,1.1,1.8c0.1,0.7,0,1.6-0.3,2.8l-0.3,1.2c-0.2,0.8-0.4,1.3-0.4,1.6
				c0,0.5,0.1,0.9,0.3,1.2l-0.1,0.4l-3.5-1c0-0.4,0-0.7,0.1-1c0.1-0.5,0.2-1,0.3-1.5l0.4-1.6c0.3-1.1,0.4-1.9,0.1-2.4
				c-0.2-0.5-0.8-0.8-1.7-1.1l-3.1-0.9l-2,6.8l-3.1-0.9l5.1-17.3l7.3,2.1C127.5,275.2,128.3,275.6,128.7,276z M121.4,276.6l-1.4,4.6
				l3.4,1c0.7,0.2,1.2,0.3,1.6,0.2c0.7-0.2,1.2-0.7,1.5-1.7c0.3-1,0.2-1.8-0.3-2.4c-0.3-0.3-0.7-0.5-1.4-0.7L121.4,276.6z"/>
			<path class="st0" d="M146.6,280l-0.7,3.1l-4.6-1.1l-3.5,14.4l-3.3-0.8l3.5-14.4l-4.7-1.1l0.7-3.1L146.6,280z"/>
			<path class="st0" d="M149.5,293.3c-0.1,0.8,0,1.5,0.3,1.9c0.4,0.8,1.3,1.4,2.6,1.6c0.8,0.2,1.5,0.2,2,0.1c1-0.2,1.6-0.8,1.8-1.8
				c0.1-0.6,0-1.1-0.4-1.5c-0.4-0.4-1.1-0.8-2-1.2l-1.6-0.7c-1.6-0.7-2.7-1.4-3.2-2c-0.9-1-1.2-2.4-0.9-4.1c0.3-1.6,1.1-2.8,2.3-3.7
				c1.2-0.9,2.9-1.1,4.9-0.7c1.7,0.3,3,1.1,4,2.3c1,1.2,1.3,2.8,1,4.7l-3.2-0.6c0.1-1.1-0.1-1.9-0.8-2.5c-0.5-0.4-1.1-0.7-1.9-0.8
				c-0.9-0.2-1.6-0.1-2.2,0.2c-0.6,0.3-1,0.8-1.1,1.5c-0.1,0.6,0,1.2,0.5,1.6c0.3,0.3,0.9,0.6,1.9,1.1l2.6,1.3
				c1.1,0.5,2,1.2,2.5,1.8c0.8,1,1,2.3,0.7,3.9c-0.3,1.6-1.1,2.9-2.4,3.7c-1.3,0.9-3,1.1-5,0.7c-2.1-0.4-3.6-1.2-4.6-2.5
				c-1-1.3-1.3-2.8-1-4.7L149.5,293.3z"/>
			<path class="st0" d="M175.5,295.5c0.6-0.7,1.4-1.4,2.6-2.1l0.4-0.2c-0.4-0.6-0.7-1.3-0.9-1.9c-0.2-0.6-0.3-1.3-0.2-1.9
				c0.1-1.3,0.6-2.3,1.5-2.9c0.9-0.7,1.9-0.9,3.2-0.8c1.1,0.1,2,0.6,2.7,1.4c0.7,0.8,0.9,1.8,0.8,3c-0.1,1.1-0.4,1.9-0.9,2.5
				c-0.5,0.6-1.2,1.2-2.2,1.6l2,3.4c0.3-0.4,0.6-0.8,0.7-1.3c0.2-0.5,0.3-1,0.4-1.5l2.7,0.3c-0.2,1.1-0.5,2.2-1,3.2
				c-0.3,0.6-0.7,1.3-1.3,2l2.5,4.2l-3.7-0.4l-1-1.6c-0.6,0.5-1.1,0.9-1.6,1.1c-0.9,0.4-1.9,0.5-2.9,0.4c-1.6-0.2-2.8-0.8-3.7-2
				c-0.8-1.2-1.1-2.4-1-3.7C174.6,297.1,175,296.2,175.5,295.5z M178.1,300.1c0.4,0.5,0.9,0.8,1.6,0.9c0.5,0.1,1,0,1.5-0.2
				c0.5-0.2,0.9-0.5,1.2-0.8l-2.6-4.4c-0.8,0.5-1.4,1-1.7,1.4c-0.3,0.4-0.5,0.9-0.5,1.4C177.6,299,177.7,299.6,178.1,300.1z
				 M180.4,290.6c0.1,0.2,0.4,0.7,0.7,1.3c0.5-0.3,0.8-0.6,1-0.8c0.4-0.4,0.7-0.9,0.7-1.4c0-0.4,0-0.7-0.2-1c-0.2-0.3-0.5-0.5-1-0.5
				c-0.3,0-0.6,0-0.8,0.2c-0.4,0.2-0.6,0.6-0.7,1.1C180.2,289.9,180.3,290.3,180.4,290.6z"/>
			<path class="st0" d="M207,299.7c0.1,0.8,0.3,1.4,0.6,1.9c0.5,0.8,1.5,1.1,2.8,1.2c0.8,0,1.5-0.1,2-0.3c1-0.4,1.4-1,1.5-2.1
				c0-0.6-0.2-1.1-0.7-1.4c-0.5-0.3-1.2-0.6-2.2-0.9l-1.7-0.5c-1.7-0.5-2.9-0.9-3.5-1.4c-1.1-0.8-1.6-2.2-1.6-3.9
				c0-1.6,0.6-2.9,1.6-4c1.1-1,2.6-1.6,4.7-1.5c1.7,0,3.2,0.6,4.3,1.6c1.2,1,1.8,2.5,1.8,4.4l-3.2-0.1c0-1.1-0.5-1.9-1.3-2.3
				c-0.5-0.3-1.2-0.5-2-0.5c-0.9,0-1.6,0.2-2.1,0.6c-0.5,0.4-0.8,0.9-0.8,1.6c0,0.6,0.2,1.1,0.8,1.5c0.3,0.2,1,0.5,2.1,0.8l2.8,0.8
				c1.2,0.3,2.1,0.8,2.7,1.4c0.9,0.9,1.4,2.1,1.4,3.7c0,1.6-0.6,3-1.8,4.1c-1.1,1.1-2.7,1.6-4.8,1.6c-2.1,0-3.8-0.6-4.9-1.7
				c-1.2-1.1-1.8-2.6-1.7-4.4L207,299.7z"/>
			<path class="st0" d="M225.1,287.2l3.8-0.1l6.3,17.8l-3.6,0.1l-1.2-3.7l-5.9,0.2l-1,3.7l-3.5,0.1L225.1,287.2z M225.2,298.4
				l4.1-0.1l-2.3-7L225.2,298.4z"/>
			<path class="st0" d="M237.4,286.6l3.3-0.3L242,301l8-0.7l0.3,3.2l-11.3,1L237.4,286.6z"/>
			<path class="st0" d="M264,286.9l-8.4,1.1l0.5,3.8l7.7-1l0.4,3.1l-7.7,1l0.6,4.6l8.8-1.2l0.4,3.2l-12,1.6l-2.4-17.9l11.6-1.5
				L264,286.9z"/>
			<path class="st0" d="M272,295c0.2,0.8,0.6,1.4,0.9,1.7c0.7,0.6,1.7,0.8,3,0.6c0.8-0.1,1.4-0.4,1.9-0.6c0.9-0.5,1.2-1.3,1-2.3
				c-0.1-0.6-0.4-1-0.9-1.2c-0.5-0.2-1.3-0.4-2.3-0.4l-1.8-0.1c-1.7-0.1-3-0.4-3.7-0.7c-1.2-0.6-2-1.8-2.3-3.5c-0.3-1.6,0-3,0.8-4.2
				c0.8-1.2,2.3-2,4.3-2.4c1.7-0.3,3.2-0.1,4.6,0.7c1.4,0.8,2.2,2.1,2.6,4l-3.2,0.6c-0.3-1.1-0.8-1.7-1.7-2c-0.6-0.2-1.3-0.2-2-0.1
				c-0.9,0.2-1.5,0.5-2,1c-0.4,0.5-0.6,1.1-0.5,1.8c0.1,0.6,0.5,1.1,1,1.3c0.4,0.1,1.1,0.3,2.2,0.4l2.9,0.2c1.3,0.1,2.3,0.4,3,0.8
				c1.1,0.7,1.8,1.8,2.1,3.4c0.3,1.6,0,3.1-0.9,4.3c-0.9,1.3-2.4,2.1-4.4,2.5c-2.1,0.4-3.8,0.1-5.2-0.7c-1.4-0.8-2.2-2.2-2.6-4
				L272,295z"/>
			<path class="st0" d="M287,300.6c0.6-0.3,0.9-0.7,1.1-1.2c0.2-0.5,0.2-1.2,0.1-2l-1.8,0.4l-0.8-3.6l3.3-0.7l0.7,3.1
				c0.1,0.5,0.2,1.1,0.2,1.7s-0.1,1.2-0.4,1.7c-0.3,0.5-0.6,1-1.1,1.3c-0.5,0.3-0.8,0.5-1,0.6L287,300.6z"/>
			<path class="st0" d="M301.2,275.7l3.2-0.9l4.2,14.2l7.7-2.3l0.9,3.1l-10.9,3.2L301.2,275.7z"/>
			<path class="st0" d="M315.1,271.5l3.2-1.1l4.8,14l7.5-2.6l1.1,3.1l-10.7,3.7L315.1,271.5z"/>
			<path class="st0" d="M330.8,267.8c0.6-1.9,1.9-3.2,3.7-3.9c2.5-1,4.6-0.8,6.5,0.6c1,0.8,1.8,1.7,2.3,2.7l-3.1,1.2
				c-0.5-0.7-1-1.2-1.5-1.5c-0.8-0.5-1.8-0.5-2.9-0.1c-1.1,0.4-1.8,1.3-2,2.6c-0.2,1.3,0,2.9,0.8,4.7c0.8,1.9,1.7,3.1,2.7,3.8
				c1,0.7,2.1,0.8,3.1,0.4c1.1-0.4,1.7-1.2,1.9-2.2c0.1-0.6,0.1-1.3,0-2.2l3.1-1.2c0.5,1.9,0.4,3.7-0.2,5.3
				c-0.6,1.6-1.8,2.7-3.5,3.4c-2.1,0.8-4.1,0.7-5.9-0.3c-1.8-1.1-3.3-2.9-4.4-5.6C330.3,272.5,330.1,270,330.8,267.8z"/>
		</g>
		<g>
			<g>
				<path class="st0" d="M84.3,244.4c0.2-1.5,0.5-3,0.7-4.5c0.9,0.1,2.1,0.4,3.4,0.7c2.5,0.6,4.6,0.8,6.3,0.8
					c0.6-0.7,1.1-1.4,1.3-2.2c0.6-2,1.1-5.2,1.6-9.3c0.9-8.2,1.8-16.4,2.7-24.5c0.3-2.6,0.9-9.2,1.9-20c0.3-2.9,0.3-4.8,0.1-5.6
					c-0.1-0.3-0.2-0.5-0.5-0.8c-0.5-0.6-1.6-1.3-3.1-1.9c-0.7-0.3-2.4-1.2-5.2-2.7c0.1-1.4,0.2-2.8,0.4-4.1c4,1.5,8,2.9,12,4.2
					c5.9,1.8,11.8,3.5,17.8,5c0.7,0.2,1.4,0.4,2.1,0.5c0.4,0.1,0.9,0.2,1.3,0.3c0.4,0.1,1.3,0.4,2.9,0.8c1.2,0.3,2.3,0.6,3.5,0.9
					c2.8,0.7,5.8,1.8,9,3.5c1.1,0.6,2.6,1.5,4.4,2.9c1.8,1.4,3.4,3,4.7,4.8c1.3,1.8,2.2,3.7,2.8,5.7c0.6,2,0.8,4.1,0.7,6.3
					c-0.1,2.4-0.8,4.4-1.9,6.1c-1.1,1.7-2.8,3.2-5,4.3c-1.1,0.6-3.7,1.4-7.6,2.3c5.7,2.6,9.9,5.8,12.8,9.9c2.8,4.1,4.2,8.2,3.9,12.6
					c-0.1,2.6-0.8,5.2-1.9,7.8c-0.8,2-2.1,3.7-4,5.2c-2.4,2-4.9,3.3-7.5,4c-2.6,0.7-6.2,1-10.7,0.7c-2.2-0.1-5.6-0.7-10.1-1.9
					c-3.3-1-6.7-2-10-3.1c-4.2-1.3-9.3-2.6-15.1-4.3C96.2,248.4,91.7,247,84.3,244.4z M115.7,209.9c1.5,0.7,3.2,1.3,5.3,1.9
					c5.6,1.6,10,1.6,13.1,0.2c3.1-1.5,4.8-4.9,5.2-10.1c0.3-3.7-0.9-7.2-3.4-10.3c-2.5-3.1-6.4-5.4-11.8-6.9
					c-1.5-0.4-3.6-0.8-6.2-1.2c-0.1,0.9-0.2,2.2-0.3,3.9c-0.1,3.3-0.5,8-1.1,13.9c-0.2,1.6-0.4,3.2-0.5,4.9
					C116,206.9,115.9,208.1,115.7,209.9z M112.8,247c2.4,1.8,4.7,3,6.9,3.6c4.5,1.2,8.2,1.5,11.1,0.8c2.9-0.6,5.1-2.1,6.6-4.2
					c1.5-2.1,2.3-5,2.6-8.6c0.3-3.7-0.2-6.9-1.4-9.4c-1.7-3.5-3.8-6.1-6.5-7.9c-2.6-1.7-6.6-3.3-12-4.8c-2.4-0.7-4-1-5-0.9
					c-0.2,2.4-0.5,4.8-0.7,7.1c-0.3,2.9-0.6,5.7-0.9,8.6c-0.4,4.5-0.8,8.9-1.1,13.4C112.4,245.2,112.5,246,112.8,247z"/>
			</g>
			<g>
				<path class="st0" d="M178.9,266.6c0.1-1.3,0.2-2.7,0.2-4c0.8-0.2,2.1-0.3,4.1-0.5c3.1-0.3,5-0.7,5.7-1.2
					c0.7-0.4,1.5-1.5,2.5-3.3c4.2-10.1,8.4-20.3,12.4-30.6c4.7-12.1,9.2-24.2,13.6-36.5c1.2,0,2.4-0.1,3.6-0.1
					c0.8,0,1.7-0.1,2.5-0.1c0.2,0.3,0.3,0.7,0.5,1c3.4,7.9,6.8,15.8,10.3,23.7c2.4,5,4.6,9.8,6.5,14.5c2,4.7,3.7,8.5,5.1,11.4
					c0.8,1.8,2,4.4,3.5,7.9c0.8,1.9,2,4.3,3.6,7.1c0.9,1.6,1.5,2.4,1.9,2.7c0.7,0.5,1.9,0.7,3.6,0.7c1.6,0,3.4,0.2,5.3,0.6
					c0.3,1.3,0.4,2.2,0.4,2.8c0,0.3,0,0.7,0,1.3c-3,0.5-6.2,0.8-9.8,1c-3.6,0.2-6.8,0.4-9.7,0.7c-3.2,0.3-5.5,0.5-6.9,0.7
					c-3.4,0.4-6.9,0.8-10.3,1.2c-1,0.1-2,0.2-3,0.2c0-1.4,0-2.7,0.1-3.9c2.2-0.6,4.5-1.1,6.7-1.7c2-0.6,3.2-1.1,3.5-1.4
					c0.4-0.4,0.6-0.9,0.6-1.4c0-0.5-0.1-1-0.3-1.6c-0.8-1.9-1.7-3.7-2.5-5.6c-1.6-3.7-3.3-7.5-4.9-11.3c-7.5,0.3-15,0.4-22.6,0.3
					c-0.8,1.9-2.6,6.4-5.4,13.7c-0.8,2.1-1.2,3.5-1.2,4.2c0,1,0.3,1.7,0.8,2.2c0.9,0.8,2.7,1.4,5.3,1.7c0.4,0.1,1.8,0.3,4.3,0.7
					c0,1.4,0.1,2.4,0.1,2.9c0,0.4,0,0.9-0.1,1.4c-2.5,0-8.5-0.4-17.9-1.6c-0.8,0.1-1.7,0.2-2.5,0.3c-3,0.3-5.9,0.3-8.6,0
					C179.7,266.7,179.3,266.6,178.9,266.6z M207.6,235.1c9.2,0.2,14.5,0,16.2,0c0.5,0,1-0.1,1.5-0.1c-1.2-3.4-2.8-7.4-4.7-12
					c-1.9-4.6-3.4-8.1-4.6-10.5C213.2,220,210.5,227.5,207.6,235.1z"/>
			</g>
			<g>
				<path class="st0" d="M322.7,173.9c0.5,1.2,1.1,3,1.7,5.6c0.9,3.8,1.5,6.8,1.8,9c0.1,0.7,0.1,1.5,0.1,2.3
					c-0.2,0.1-0.3,0.2-0.5,0.4c-1.3,0.4-2.6,0.8-4,1.2c-0.2,0-0.4,0.1-0.7,0.1c-2.2-4.5-4.2-7.4-6-8.7c-3.1-2.1-6.5-2.6-10.2-1.5
					c-3.6,1.1-6.3,2.9-8.2,5.4c-1.9,2.6-2.8,5.3-2.5,8.3c0.2,2.5,1.5,4.6,3.8,6.3c2.3,1.7,6.9,2.7,13.9,2.6c2.3,0,5.2,0.2,8.6,0.6
					c3.4,0.4,6,1.2,7.9,2.4c2.5,1.5,4.3,3.2,5.4,5.1c1.1,1.9,1.9,4.5,2.3,7.7c0.5,3.6,0.3,7.4-0.6,11.4c-0.5,2.1-1.4,4.3-2.8,6.6
					c-1,1.6-2.6,3.6-4.9,6c-2.3,2.4-4.7,4.4-7.2,6c-2.5,1.6-5.9,3-10.1,4.2c-2.7,0.8-6.1,1.4-10,1.6c-2.4,0-4.9-0.1-7.3-0.2
					c-2-0.1-3.3-0.3-3.9-0.6c-0.2-0.1-0.4-0.4-0.6-1c0-0.2,0-0.4,0-0.6c0-0.4-0.3-3.1-0.9-7.9c-0.3-2.5-0.4-4.3-0.5-5.3
					c-0.1-0.7-0.1-1.5-0.2-2.2c1.8-0.5,3.6-0.9,5.4-1.4c2.2,3.9,3.6,6.2,4.3,6.9c1.4,1.7,2.9,2.9,4.4,3.8c1.6,0.8,3.4,1.3,5.5,1.5
					c2.1,0.1,4.3-0.2,6.7-0.9c2.1-0.6,4.4-1.8,6.8-3.5c2.4-1.7,4.3-3.9,5.5-6.4c1.3-2.6,1.8-5,1.5-7.3c-0.3-2.8-1.9-5-4.8-6.5
					c-1.8-1-6.2-1.5-13.5-1.8c-7.2-0.4-12.3-1.4-15.2-2.7c-2.9-1.3-5.2-3.4-7-6.4c-1.8-3-2.8-6-3-9.1c-0.5-6.2,1.3-11.9,5.1-17.2
					c3.8-5.4,9.8-9.1,17.8-11.6c1.7-0.5,4.3-1,7.8-1.5C316.3,174.1,319.1,174,322.7,173.9z"/>
			</g>
		</g>
		<circle class="st0" cx="164.6" cy="259.1" r="6.4"/>
		<circle class="st0" cx="275.4" cy="256.7" r="6.4"/>
		<circle class="st0" cx="347.5" cy="229.7" r="6.4"/>
		<g>
			<polygon points="61.6,74.6 111.9,60.2 365.9,34.1 363.6,26.5 70.5,59.5 			"/>
			<g>
				<path class="st0" d="M62.7,67.4c1.8-1.5,3.9-3.1,6.4-4.6c0.6-0.3,1.3-0.7,1.9-1.1c0.7-0.3,1.4-0.7,2.1-0.9
					c1.4-0.5,3.1-1,4.6-1.1C84,59,91.2,58.2,99,57.3c31.3-3.6,73-8.3,114.7-13s83.4-9.5,114.7-13c7.8-0.9,15-1.7,21.3-2.4
					c6.3-0.7,11.9-1.5,16.5-1.5c2.3-0.1,4.4,0,6.2,0.3c0.9,0.2,1.7,0.4,2.5,0.8c0.2,0.1,0.3,0.3,0.4,0.4c0.4-3.1-8.8-3.2-8.8-3.2
					S121.8,50.9,76.9,57.6c-3.3,0.5-8.3,2.2-11.7,5.1c-3.4,2.9-7.7,7.1-10,11.5C57,72.4,59.5,70.1,62.7,67.4z"/>
				<path class="st0" d="M370.4,35c2.6-1.5,4-2.7,4.6-3.7c0-0.3-0.2-0.5-0.5-0.7c-0.6-0.4-1.4-0.6-2.2-0.7c-1.7-0.3-3.8-0.3-6-0.3
					c-4.6,0.1-10.1,0.8-16.4,1.6c-6.4,0.7-13.5,1.6-21.3,2.5c-31.3,3.6-73,8.4-114.7,13.2s-83.4,9.6-114.7,13.2
					c-7.8,0.9-15,1.7-21.3,2.5c-3.1,0.3-5.8,1.5-8.2,3c-2.4,1.5-4.4,3-6.2,4.5c-3.6,3-6.3,5.6-8.1,7.4c-0.4,0.4-0.8,0.8-1.1,1.1
					c-1.3,7,19.2,6.1,19.2,6.1s234.9-31,247.9-32.2C337.4,50.6,356.1,43.4,370.4,35z"/>
			</g>
			<path class="st0" d="M309.9,46.1c4.7,4.8,8.8,8.7,0.7,21.5c0,0-42.8,29.7-52.3,35.5c-1.7,1.1-3.6,1.9-5.6,2.4
				c-15.1,4.4-88.7,30-101.4,36c-9.8,4.6-21.4,4.7-23.7,1c-2.3-3.6-4.6-13.2-5.5-23.7c-0.7-8.2-2-24.2-2.5-30.7
				c-0.2-2.1,1.2-4.1,3.3-4.5c3.6-0.8,9.6,0,15.1,10.2c10.6,19.5,13.5,20.3,13.2,18.9c-0.3-1.5,0.1-3.1,1.4-4
				c0,0,26.6-3.2,46.8-34.1c12.1-18.5,39.2-34.1,43.3-36.1c0,0,15.2-1.3,20.9-2.4c6.2-1.1,10.9,7.7,16.9,7.3
				C300.7,42.2,304.1,40.3,309.9,46.1z"/>
			<polygon points="63.6,122.3 113.8,107.9 367.9,81.8 365.5,73.4 81.8,104.2 69.9,109.4 			"/>
			<g>
				<path class="st0" d="M133,139.9l13.7-10.5c0,0-0.5-5.9-5-5c-4.6,0.9-52.4,5.6-62.8,12c-10.5,6.4,4.1,5.5,4.1,5.5
					S123.4,138.1,133,139.9z"/>
				<g>
					<path d="M132.9,139.7l13.6-10.4l-0.1,0.2v0c-0.5-1.3-1.1-2.6-1.9-3.4c-0.8-0.8-1.8-1-3.1-0.7c-2.9,0.4-5.7,0.7-8.5,1.1
						c-5.6,0.7-11.3,1.4-16.9,2.2c-5.6,0.8-11.2,1.7-16.8,2.7c-5.6,1.1-11.2,2.2-16.4,4c-1.3,0.5-2.6,1-3.7,1.7
						c-1.2,0.7-2.4,1.5-3.1,2.5c-0.3,0.5-0.3,0.6,0.1,0.9c0.4,0.3,1.1,0.4,1.8,0.6c1.3,0.2,2.7,0.3,4.1,0.2c2.8-0.1,5.6-0.5,8.5-0.7
						l8.5-0.6c5.7-0.4,11.4-0.6,17.1-0.8c2.8-0.1,5.7-0.1,8.5-0.1C127.3,139.2,130.1,139.2,132.9,139.7z M132.9,140.2
						c-2.8-0.4-5.6-0.4-8.5-0.4c-2.8,0-5.7,0.1-8.5,0.3c-5.7,0.3-11.3,0.7-17,1.1l-8.5,0.7c-2.9,0.2-5.6,0.5-8.5,0.7
						c-1.4,0-2.9,0-4.4-0.2c-0.7-0.1-1.5-0.3-2.3-0.7c-0.4-0.2-0.8-0.7-0.9-1.3c-0.1-0.6,0.2-1.1,0.4-1.4c1-1.4,2.3-2.1,3.5-2.9
						c1.3-0.8,2.6-1.4,4-1.9c5.4-1.9,11-3.1,16.6-4.2c5.6-1.1,11.2-2,16.9-2.8c5.6-0.8,11.3-1.6,16.9-2.3c2.8-0.4,5.7-0.7,8.4-1.1
						c1.3-0.4,3.7-0.2,4.7,1.4c1,1.4,1.3,3,1.1,4.4v0l0,0.1l-0.1,0.1L133,140.2L132.9,140.2z"/>
				</g>
			</g>
			<g>
				<path class="st0" d="M67.4,114.2c1.9-1.5,4-3.2,6.4-4.7c0.6-0.4,1.3-0.7,1.9-1.1c0.7-0.3,1.4-0.7,2.1-1c1.4-0.6,3.1-1,4.7-1.1
					c6.4-0.7,13.7-1.6,21.6-2.5c31.6-3.6,73.8-8.4,116-13.3c42.2-4.8,84.4-9.6,116-13.3c7.9-0.9,15.2-1.7,21.6-2.5
					c6.4-0.7,12-1.5,16.7-1.6c2.3-0.1,4.4,0,6.2,0.3c0.9,0.2,1.8,0.4,2.5,0.9c0.2,0.1,0.3,0.3,0.5,0.4c0.4-3.2-8.9-3.2-8.9-3.2
					s-247.6,25.7-293,32.5c-3.3,0.5-8.4,2.2-11.8,5.2c-3.4,3-7.8,7.3-10.1,11.7C61.6,119.3,64.1,116.9,67.4,114.2z"/>
				<path class="st0" d="M378.7,81.2c2.6-1.6,4.1-2.8,4.7-3.8c0-0.3-0.2-0.5-0.5-0.7c-0.6-0.4-1.4-0.6-2.2-0.7
					c-1.7-0.3-3.8-0.4-6.1-0.3c-4.6,0.1-10.2,0.9-16.6,1.6c-6.4,0.7-13.7,1.6-21.6,2.5c-31.6,3.7-73.8,8.5-116,13.4
					c-42.2,4.9-84.4,9.8-116,13.4c-7.9,0.9-15.2,1.8-21.6,2.5c-3.2,0.3-5.9,1.6-8.3,3c-2.4,1.5-4.5,3.1-6.3,4.6
					c-3.7,3-6.3,5.7-8.2,7.5c-0.4,0.4-0.8,0.8-1.1,1.2c-1.4,7.2,15.9,5,15.9,5s243.5-32.7,256.5-34
					C347.6,94.8,364.2,89.8,378.7,81.2z"/>
			</g>
			<g>
				<path class="st0" d="M268.2,36c-0.6-0.6-0.8-0.3-1.7-0.2l-21.6,2.3c-0.2,0-0.4,0.1-0.6,0.1c-1.5,0.5-7.9,2.9-4.2,8.1l7.1,7.2
					c1.1,1.3,3.1,1.5,4.4,0.3c7.9-7.5,14.2-8.7,16.8-9.7"/>
				<path d="M267.9,36.4c-0.3,0.2-0.4,0.2-0.3,0c0.1-0.1,0.2-0.3,0.2-0.5c0-0.1,0-0.1,0-0.2c-0.1,0-0.1,0-0.2,0l-0.1-0.1
					c0,0-0.1-0.2,0,0.2c0,0.1-0.1,0.1-0.1,0.1c-0.3,0.1-0.8,0.1-1.1,0.1l-2.2,0.2l-4.4,0.5l-8.8,0.9l-4.4,0.5
					c-0.7,0.1-1.5,0.1-2.1,0.3c-0.7,0.2-1.3,0.5-2,0.8c-1.2,0.7-2.4,1.6-2.8,2.8c-0.2,0.6-0.2,1.3,0,1.9c0.2,0.6,0.5,1.3,0.9,1.8
					l0-0.1l7.1,7.2l0,0l0,0c0.6,0.7,1.5,1,2.3,0.9c0.9-0.1,1.5-0.8,2.3-1.5c1.5-1.4,3.1-2.7,4.8-3.9c1.7-1.2,3.5-2.2,5.4-3
					c1.9-0.9,3.9-1.5,5.8-2.1l0.4,1.1c-2,0.7-3.9,1.2-5.7,2c-1.8,0.8-3.6,1.8-5.3,2.9c-1.7,1.1-3.3,2.4-4.8,3.7l-1.2,1
					c-0.5,0.4-1,0.6-1.6,0.7c-1.2,0.2-2.4-0.3-3.2-1.2l0,0l-7-7.2l0,0l0,0c-0.4-0.6-0.8-1.3-1-2.1c-0.2-0.8-0.2-1.6,0.1-2.4
					c0.6-1.6,1.9-2.6,3.2-3.3c0.7-0.4,1.4-0.7,2.1-0.9c0.8-0.3,1.5-0.3,2.3-0.4l4.4-0.5l8.8-0.9l4.4-0.5l2.2-0.2
					c0.4,0,0.7-0.1,1-0.2c0.1,0,0.1,0,0.2,0.1c0.1,0.4,0.1,0.2,0.1,0.2l0.1-0.1c0.1,0,0.2,0.1,0.3,0.1c0.1,0,0.1,0,0.2-0.1
					c0.1-0.1,0.3-0.2,0.4-0.3c0.3-0.1,0.3,0,0.2,0.4L267.9,36.4z"/>
			</g>
			<path class="st0" d="M319.3,55.8c0,11.1-7.6,18.9-18.7,18.9s-20.1-9-20.1-20.1c0-11.1,9-20.1,20.1-20.1S319.3,44.7,319.3,55.8z"
				/>
			<polygon class="st0" points="147.7,129.1 135.6,129.1 132.1,140 145.8,141.9 			"/>
			<path d="M248.3,40.9c0,0-0.2,0.5-0.6,1.2c-0.3,0.7-0.8,1.6-0.9,2.6c-0.2,1,0,2,0,2.8c0.1,0.8,0.1,1.4,0.1,1.4
				c0,0.3-0.2,0.6-0.6,0.7c-0.3,0-0.6-0.2-0.6-0.5c0,0-0.1-0.5-0.2-1.3c-0.1-0.8-0.3-1.9-0.2-3.1c0.1-1.2,0.6-2.3,0.9-3.1
				c0.3-0.8,0.5-1.3,0.5-1.3c0.2-0.4,0.7-0.6,1.1-0.4C248.3,39.9,248.5,40.4,248.3,40.9C248.3,40.9,248.3,40.9,248.3,40.9z"/>
			<path d="M251,42.5c0,0-0.2,0.3-0.4,0.9c-0.2,0.5-0.4,1.2-0.5,1.9c-0.1,0.7-0.1,1.4,0,2c0,0.6,0.1,1,0.1,1c0,0.2-0.1,0.4-0.3,0.4
				c-0.2,0-0.4-0.1-0.4-0.3c0,0-0.1-0.4-0.1-1c-0.1-0.6-0.2-1.4-0.1-2.2c0.1-0.8,0.3-1.6,0.5-2.2c0.2-0.5,0.4-0.9,0.4-0.9
				c0.1-0.3,0.4-0.4,0.7-0.3C251,41.9,251.1,42.2,251,42.5C251,42.5,251,42.5,251,42.5z"/>
			<g>
				<path class="st0" d="M235,60.7c0.6,1.4,0.1,3-1.3,3.7l-12.3,10.7c-1.2,0.8-2.8,0.1-3.1-1.3l-0.1-8.8c0-1.3,0.6-2.5,1.6-3.3
					l9.6-9.6c0.7-0.6,1.9-0.4,2.3,0.5L235,60.7z"/>
				<g>
					<path d="M235.4,60.5c0.1,0.3,0.2,0.8,0.2,1.2c0,0.4-0.1,0.8-0.2,1.2c-0.3,0.8-0.8,1.4-1.6,1.8l0.1,0c-4.2,3.5-8.3,7-12.4,10.6
						l0,0l0,0c-0.6,0.4-1.4,0.5-2,0.2c-0.6-0.3-1.1-0.9-1.3-1.6l0,0l0,0l-0.2-6.3c0-1.1-0.1-2.1,0-3.2c0.1-1.1,0.7-2.2,1.5-3l0,0
						c3-3.4,6.3-6.5,9.5-9.7l0,0l0,0c0.5-0.4,1.2-0.6,1.9-0.4c0.3,0.1,0.6,0.3,0.9,0.5c0.2,0.2,0.4,0.6,0.5,0.8l1,2.7L235.4,60.5z
						 M234.6,60.9l-2.2-5.2l-1.1-2.6c-0.1-0.2-0.1-0.3-0.2-0.4c-0.1-0.1-0.2-0.2-0.4-0.2c-0.3-0.1-0.6,0-0.8,0.2l0,0
						c-3.2,3.2-6.4,6.4-9.7,9.5l0,0c-0.8,0.6-1.3,1.4-1.5,2.4c-0.1,1-0.1,2.1-0.1,3.1l0,6.3l0,0c0.1,0.6,0.5,1.1,1.1,1.4
						c0.6,0.2,1.2,0.2,1.7-0.2l0,0c4.1-3.6,8.2-7.2,12.2-10.9l0,0l0,0c0.6-0.3,1-0.9,1.1-1.5c0.1-0.3,0.1-0.6,0.1-0.9
						C234.8,61.4,234.8,61.2,234.6,60.9z"/>
				</g>
			</g>
			<polygon class="st0" points="310.9,72 251.5,81.7 259.3,93.5 265.6,91.3 288.8,91.5 283.3,86.3 			"/>
			<g>
				<polygon class="st0" points="125.5,101.4 109.8,70.4 113.5,68.6 128.4,100 				"/>
				<line class="st1" x1="127.8" y1="99.5" x2="114.2" y2="69.5"/>
				<polygon class="st0" points="121.7,99.2 131.2,98.1 128.4,100.9 				"/>
			</g>
			<g>
				<polygon class="st0" points="335.7,76.7 319.2,44 322.9,42.2 338.6,75.3 				"/>
				<line class="st2" x1="338.8" y1="76.2" x2="323.6" y2="43.1"/>
				<polygon class="st0" points="336.9,75.7 341.8,75.2 338.8,77.1 				"/>
			</g>
			<polygon class="st0" points="292.2,36.6 266.2,40.5 279.4,45.8 292.2,38 			"/>
			<g>
				<g class="st3">
					<defs>
						<polygon id="SVGID_1_" class="st3" points="279.2,102.8 251.4,14.8 321.2,0 348.9,88 						"/>
					</defs>
					<clipPath id="SVGID_2_">
						<use xlink:href="#SVGID_1_"  style="overflow:visible;"/>
					</clipPath>
					<g class="st4">
						<path d="M312.8,89c-1.6,0.3-3.2,0.5-5,0.5c-2.9,0-6-0.5-9-1.6c-3-1-6-2.6-8.9-4.6c-1.4-0.9-2.7-2.1-4.1-3.2
							c-1.3-1.3-2.6-2.5-3.8-3.9c-2.5-2.6-4.6-5.7-6.4-8.9l-1.3-2.4l-1.1-2.4l-0.5-1.2l-0.5-1.4l-1-2.8c-2-6.7-3.1-14.2-2.1-20.9
							c0.4-3.4,1.3-6.6,2.6-9.5c1.3-2.9,3-5.6,5-7.8c1-1.2,2.2-2,3.3-3c1.3-0.7,2.5-1.7,3.7-2.2c1.1-0.6,2.7-1.1,4.2-1.5
							c0.2-0.1,0.5-0.1,0.8-0.2c1.1-0.2,2.3-0.4,3.4-0.5c5.7-0.4,11.5,1.2,16.2,3.9c4.8,2.6,8.9,6.1,11.9,9.5c3,3.5,5.3,6.9,6.8,9.9
							c0.8,1.5,1.4,2.8,1.8,3.9c0.5,1.1,0.9,2.2,1.2,3.1c0.5,1.5,0.8,2.4,0.9,2.6c0,0.2,0.3,1,0.7,2.6c0.2,0.8,0.5,1.9,0.7,3.1
							c0.2,1.3,0.5,2.7,0.6,4.2c0.4,3.2,0.3,7-0.3,11.2c-0.7,4.2-2.1,8.7-4.8,12.8c-1.3,2.1-3,4-4.9,5.7c-2,1.6-4.3,3.1-6.7,3.9
							C315.1,88.4,314,88.7,312.8,89 M286.7,7.3c-0.2,0-0.4,0.1-0.6,0.1c-1.5,0.4-3,0.7-4.7,1.5c-3.3,1.3-6.1,3.2-8.6,5.8
							c-2.5,2.5-4.6,5.5-6.2,8.8c-1.6,3.3-2.7,7-3.3,10.8c-1.3,7.7-0.6,15.9,1.9,24.2l1,2.8c0.3,0.9,0.7,1.9,1.1,2.9l1.3,3l1.5,2.8
							c2.1,3.7,4.5,7.2,7.3,10.4c2.8,3.2,6,6,9.4,8.3c3.4,2.4,7,4.3,10.8,5.5c1.8,0.7,3.7,1,5.6,1.4c1.9,0.2,3.7,0.5,5.5,0.3
							c1.8,0,3.6-0.2,5.2-0.6c1.7-0.4,3.3-0.9,4.8-1.4c6.4-2.6,10.8-7.1,13.7-12c2.9-4.9,4.3-10.2,4.9-14.9c0.6-4.7,0.5-9,0-12.5
							c-0.2-1.8-0.5-3.3-0.8-4.7c-0.2-1.4-0.5-2.5-0.8-3.4c-0.5-1.8-0.8-2.8-0.8-2.8l0-0.1c0,0-0.3-0.9-1-2.6
							c-0.3-0.9-0.7-2-1.4-3.3c-0.6-1.3-1.3-2.8-2.2-4.3c-1.7-3.2-4.1-6.9-7.5-10.7c-3.3-3.8-7.6-7.8-13-10.8
							c-5.3-3.1-11.9-5.1-18.6-4.9c-0.9,0-1.7,0.1-2.5,0.2C288.1,7.1,287.5,7.2,286.7,7.3"/>
					</g>
				</g>
			</g>
			<g>
				<g class="st3">
					<defs>
						<polygon id="SVGID_3_" class="st3" points="278.9,104.2 250.6,14.6 321.5,-0.5 349.8,89.1 						"/>
					</defs>
					<clipPath id="SVGID_4_">
						<use xlink:href="#SVGID_3_"  style="overflow:visible;"/>
					</clipPath>
					<g class="st5">
						<path class="st0" d="M313.3,93c-1.6,0.4-3.3,0.5-5.1,0.5c-1.6,0.1-3.3-0.2-5-0.4c-1.7-0.4-3.4-0.7-5.1-1.3
							c-3.4-1.1-6.7-2.8-9.8-5.1c-1.6-1-3-2.3-4.6-3.6c-1.4-1.4-2.9-2.7-4.1-4.2c-2.7-2.9-5-6.3-7-9.7c-2.1-3.5-3.5-7.1-4.9-11.1
							c-2.3-7.5-3.4-15.6-2.3-22.9c0.2-1.9,0.7-3.6,1.1-5.4c0.6-1.7,1-3.5,1.8-5c1.4-3.2,3.3-6.2,5.6-8.6c1.1-1.3,2.4-2.3,3.7-3.3
							c1.4-0.9,2.7-1.9,4.2-2.4c1.4-0.7,3-1.2,4.6-1.6c0.2-0.1,0.5-0.1,0.7-0.2c1.3-0.3,2.7-0.5,4-0.6c6.4-0.4,12.8,1.4,18,4.4
							c5.3,2.9,9.7,6.7,13,10.5c3.3,3.8,5.6,7.6,7.2,10.9c0.8,1.6,1.4,3.1,1.9,4.3c0.6,1.3,1,2.4,1.3,3.3c0.5,1.6,0.9,2.6,0.9,2.8
							c0,0.1,0.3,1.1,0.7,2.8c0.3,0.9,0.5,2,0.7,3.4c0.2,1.3,0.5,2.9,0.7,4.6c0.4,3.4,0.4,7.6-0.3,12.1c-0.7,4.5-2.2,9.5-5.1,14
							c-2.8,4.5-7.2,8.5-12.7,10.7C316.1,92.3,314.7,92.7,313.3,93 M286.2,7c-0.2,0-0.3,0.1-0.5,0.1c-1.6,0.4-3.2,0.8-4.8,1.6
							c-3.2,1.3-6.1,3.3-8.6,5.8c-2.5,2.5-4.7,5.5-6.3,8.9c-0.9,1.6-1.4,3.5-2.1,5.3c-0.4,1.9-1,3.7-1.3,5.7
							c-1.3,7.8-0.6,16.2,1.9,24.6c1.3,3.8,2.9,8.1,5.1,11.8c2.1,3.8,4.5,7.4,7.4,10.6c2.8,3.3,6,6.2,9.5,8.5
							c3.4,2.4,7.1,4.3,10.9,5.5c5.8,2,11.8,2.3,17.1,1.2c1.5-0.3,2.9-0.8,4.3-1.3c6.4-2.5,11.1-7,14-12.1c3-5,4.5-10.4,5.1-15.3
							c0.6-4.9,0.5-9.3,0-12.9c-0.1-1.8-0.5-3.4-0.8-4.8c-0.3-1.4-0.6-2.6-0.9-3.5c-0.5-1.9-0.8-2.9-0.8-2.9l0-0.1
							c0,0-0.4-1-1.1-2.8c-0.3-0.9-0.8-2-1.4-3.4c-0.6-1.3-1.3-2.8-2.3-4.4c-1.8-3.3-4.5-7-7.9-10.9c-3.5-3.8-7.8-7.9-13.3-10.9
							c-5.4-3.1-12-5.1-18.7-4.9c-0.9,0-1.7,0.2-2.5,0.3C287.6,6.8,286.9,6.9,286.2,7"/>
					</g>
				</g>
			</g>
			<path d="M299.9,81.8c0,0-2.9-0.6-6.9-2.5c-1-0.4-2.1-1-3.2-1.6c-1.2-0.6-2.3-1.4-3.5-2.1c-1.1-0.9-2.4-1.7-3.5-2.7
				c-1.1-1-2.4-1.9-3.3-3.3c-0.8-1.3-1.4-2.8-2-4.2c-0.7-1.4-1-2.8-1.4-4.2c-0.5-1.3-0.6-2.7-0.9-4c-0.3-1.3-0.3-2.5-0.4-3.6
				c-0.1-1.1-0.2-2.1-0.1-3c0.1-0.9,0.1-1.7,0.1-2.3c0.1-1.3,0.1-2,0.1-2c0,0,0-0.1,0.1-0.1c0,0,0.1,0,0.1,0.1c0,0,0.1,0.7,0.2,1.9
				c0.1,0.6,0.1,1.4,0.2,2.2c0.1,0.9,0.4,1.8,0.5,2.9c0.2,1,0.4,2.2,0.8,3.3c0.4,1.1,0.7,2.4,1.3,3.6c0.6,1.2,1.1,2.5,1.8,3.7
				c0.7,1.2,1.4,2.4,2.3,3.5c0.5,1.4,1.6,2.3,2.5,3.4c0.9,1.1,2,2,2.9,2.9c1,0.8,2,1.7,3,2.4c1,0.7,1.9,1.4,2.9,1.9
				c3.6,2.3,6.3,3.2,6.3,3.2c0.1,0,0.1,0.1,0.1,0.2C300.1,81.8,300,81.9,299.9,81.8L299.9,81.8z"/>
			<line class="st6" x1="297" y1="40.9" x2="305.3" y2="50.1"/>
			<line class="st7" x1="293.1" y1="48.4" x2="305.3" y2="50.1"/>
			<line class="st8" x1="294.8" y1="56.6" x2="305.3" y2="50.1"/>
			<line class="st7" x1="301.5" y1="61.8" x2="305.3" y2="50.1"/>
			<line class="st9" x1="309.9" y1="61.5" x2="305.3" y2="50.1"/>
			<line class="st10" x1="314.6" y1="54.9" x2="305.3" y2="50.1"/>
			<line class="st10" x1="313.5" y1="48.3" x2="305.3" y2="50.1"/>
			<line class="st10" x1="310.5" y1="43.2" x2="305.3" y2="50.1"/>
			<line class="st6" x1="304.8" y1="40.3" x2="305.3" y2="50.1"/>
			<g>
				<ellipse transform="matrix(0.9055 -0.4243 0.4243 0.9055 7.565 134.071)" class="st0" cx="304.8" cy="50" rx="5.9" ry="6.7"/>
				<g>
					<path d="M301.8,43.5c0,0,0.1-0.1,0.4-0.1c0.3-0.1,0.8-0.2,1.4-0.3c1.2-0.1,2.9,0.3,4.4,1.5c1.5,1.2,2.8,3.1,3.1,5.5
						c0.3,2.3-0.6,5.2-3.1,6.6c-1.1,0.6-2.7,0.8-4,0.5c-1.4-0.3-2.6-1-3.5-1.8c-0.9-0.9-1.7-2-2-3.1c-0.4-1.2-0.5-2.3-0.4-3.4
						c0.2-2.1,1.3-3.6,2.2-4.4C301.1,43.7,301.8,43.5,301.8,43.5L301.8,43.5z M302.2,44.5c0,0-0.5,0.2-1.2,0.9
						c-0.6,0.7-1.3,2-1.3,3.6c0,0.8,0.1,1.7,0.4,2.5c0.4,0.9,0.8,1.8,1.5,2.5c0.7,0.7,1.6,1.4,2.6,1.7c1,0.3,2.1,0.3,3.2-0.1
						c1-0.4,1.9-1.2,2.4-2.2c0.6-1,0.8-2.2,0.7-3.3c-0.2-2.3-1.4-4.2-3-5.2c-1.5-1-3.1-1.1-4-0.9c-0.5,0.1-0.8,0.2-1.1,0.3
						C302.3,44.4,302.2,44.5,302.2,44.5L302.2,44.5z"/>
				</g>
			</g>
			<path class="st0" d="M311.8,47.9c0,0,0,0.2-0.1,0.6c-0.1,0.3-0.2,0.9-0.5,1.3c-0.2,0.5-0.5,1.1-0.8,1.6c-0.3,0.5-0.7,1-1,1.4
				c-0.4,0.4-0.8,0.8-1.2,1.1c-0.4,0.3-0.8,0.4-1.1,0.6c-0.3,0.2-0.7,0.2-0.9,0.2c-0.2,0-0.4,0-0.4,0l-0.7-0.1
				c-2.9-0.5-4.8-3.3-4.3-6.2c0.2-1.2,0.8-2.2,1.6-2.9c0,0,0.1-0.1,0.3-0.2c0.2-0.1,0.5-0.3,0.8-0.3c0.4,0,0.8-0.2,1.3-0.2
				c0.5,0,1.1,0.1,1.6,0.1c0.6,0.2,1.2,0.3,1.7,0.5c0.6,0.1,1.1,0.5,1.6,0.6c0.5,0.2,0.9,0.5,1.2,0.7c0.3,0.2,0.5,0.3,0.5,0.3
				C311.8,47.2,311.9,47.6,311.8,47.9L311.8,47.9z"/>
			<path d="M296.2,35.9c0,0,0.4-0.1,1.1-0.2c0.8-0.1,1.9-0.1,3.2,0c2.7,0.3,6.5,1.6,10.1,4.4c1.8,1.5,3.4,3.4,4.6,5.9
				c1.2,2.4,1.8,5.2,1.9,8.1c0.2,2.9-0.3,6-1.5,8.8c-1.3,2.8-3.5,5.5-6.6,6.8c-3.2,1.2-6.7,0.7-9.7-0.6c-3-1.3-5.5-3.4-7.3-5.8
				c-1.9-2.4-3.1-5-4-7.6c-0.9-2.6-1.1-5.3-0.9-7.7c0.5-4.9,3-8.4,5.1-10.1c1.1-0.9,2.1-1.4,2.8-1.6C295.8,36,296.2,35.9,296.2,35.9
				L296.2,35.9z M296.4,36.8c0,0.1-1.5,0.2-3.4,2c-1.9,1.6-3.8,5-3.9,9.3c-0.1,2.1,0.4,4.5,1.2,6.8c0.8,2.2,2.2,4.7,3.8,6.7
				c1.6,2.1,3.7,4,6.2,5.2c2.4,1.2,5.3,1.9,7.9,1c2.6-0.9,4.7-3,6-5.5c1.3-2.5,1.9-5.4,1.9-8.2c0-2.8-0.5-5.5-1.6-7.8
				c-1.1-2.3-2.7-4.2-4.4-5.7c-3.5-2.9-7.3-3.9-9.8-4.1c-1.3-0.1-2.3,0-3,0.1C296.8,36.8,296.4,36.8,296.4,36.8L296.4,36.8z"/>
			<path d="M301.5,47c0,0,0.7-0.2,1.6-0.4c1-0.2,2.3-0.4,3.6-0.3c1.3,0,2.6,0.2,3.5,0.5c0.9,0.3,1.5,0.6,1.5,0.6
				c0.1,0,0.2,0.2,0.1,0.3c0,0.1-0.2,0.1-0.3,0.1c0,0-0.6-0.2-1.5-0.3c-0.9-0.2-2.1-0.2-3.3-0.1c-1.2,0.1-2.4,0.4-3.2,0.7
				c-0.9,0.3-1.4,0.5-1.4,0.5c-0.4,0.2-0.9,0-1.1-0.4c-0.2-0.4,0-0.9,0.4-1.1C301.4,47,301.5,47,301.5,47L301.5,47z"/>
			<circle class="st0" cx="306" cy="113.8" r="8.2"/>
			<path class="st0" d="M296,116.2c-1.5-5.7,1.8-11.5,7.5-13c5.7-1.5,11.5,1.8,13,7.5"/>
			<g>
				<circle class="st0" cx="251.8" cy="124.4" r="9.7"/>
				<path class="st0" d="M240.6,127c-1.7-6.3,2.1-12.8,8.4-14.5c6.3-1.7,12.8,2.1,14.5,8.4"/>
				<path class="st0" d="M231,101.3l23,21.1l-5.1,2.9l-9-23.5c-1-2.6,0.3-5.5,2.9-6.5c2.6-1,5.5,0.3,6.5,2.9
					c0.1,0.3,0.2,0.5,0.2,0.8l5,24.7l0.1,0.5c0.3,1.6-0.7,3.1-2.3,3.5c-1.1,0.2-2.2-0.2-2.9-1L230.2,102c-0.2-0.3-0.2-0.6,0.1-0.8
					C230.5,101,230.8,101.1,231,101.3z"/>
			</g>
			<path class="st0" d="M288.9,94.6l18.8,16.5l-3.8,2.4l-8-17.2l6.9-2.6l5.3,18.2l0.1,0.3c0.3,1.2-0.3,2.4-1.5,2.8
				c-0.9,0.3-1.8,0-2.3-0.7L288,95.4L288.9,94.6z"/>
			<g>
				<circle class="st0" cx="144.2" cy="151.1" r="4.2"/>
				<polygon class="st0" points="143.7,151.2 141,142.2 143.6,141.7 144.8,151 				"/>
			</g>
		</g>
	</g>
</g>
</svg>
