<?xml version="1.0" encoding="UTF-8" standalone="no"?>
<svg width="386px" height="300px" viewBox="0 0 386 300" version="1.1" xmlns="http://www.w3.org/2000/svg" xmlns:xlink="http://www.w3.org/1999/xlink">
    <!-- Generator: Sketch 39.1 (31720) - http://www.bohemiancoding.com/sketch -->
    <title>logo</title>
    <desc>Created with Sketch.</desc>
    <defs></defs>
    <g id="Page-1" stroke="none" stroke-width="1" fill="none" fill-rule="evenodd">
        <g id="Artboard" transform="translate(-30.000000, -13.000000)">
            <g id="logo" transform="translate(30.000000, 13.000000)">
                <g id="Layer_1">
                    <g id="Group">
                        <path d="M385.9,224.1 C385.9,224.1 382.9,226.4 378.5,229.9 C374,233.4 368.1,238.2 362.1,242.7 C356,247.3 349.8,251.6 344.9,254.6 C340,257.6 336.6,259.4 336.6,259.4 L334.7,255.5 C334.7,255.5 338.1,254 343,251.4 C348,248.8 354.4,244.8 360.7,240.7 C367,236.5 373.2,232.2 377.8,228.9 C382.5,225.7 385.6,223.5 385.6,223.5 L385.9,224.1 L385.9,224.1 Z" id="Shape" fill="#000000"></path>
                        <path d="M48,259.5 C48,259.5 47.2,259.1 45.8,258.3 C44.4,257.5 42.3,256.3 39.9,254.8 C35.1,251.8 29.1,247.5 23.2,242.9 C17.4,238.3 11.7,233.6 7.4,230.1 C3.1,226.7 0.2,224.4 0.2,224.4 L0.6,223.8 C0.6,223.8 3.6,225.9 8.2,229.1 C12.7,232.3 18.7,236.7 24.8,240.9 C30.9,245.1 37.1,249 41.9,251.6 C44.3,252.9 46.3,253.9 47.7,254.6 C49.2,255.3 50,255.7 50,255.7 L48,259.5 L48,259.5 Z" id="Shape" fill="#000000"></path>
                        <g transform="translate(60.000000, 256.000000)" id="Shape" fill="#000000">
                            <path d="M13.1,13.4 C11.9,13.9 10.5,13.8 8.9,13.1 L5.8,11.9 L3.4,17.9 L0.3,16.7 L7.1,0 L13.5,2.6 C15,3.2 16,4.1 16.5,5.3 C17,6.5 16.9,8 16.2,9.8 C15.3,11.8 14.3,13 13.1,13.4 L13.1,13.4 Z M13.2,6.5 C13,6 12.5,5.6 11.8,5.3 L9,4.2 L7,9.1 L9.8,10.2 C10.5,10.5 11.1,10.5 11.7,10.3 C12.3,10.1 12.7,9.5 13.1,8.6 C13.4,7.7 13.4,7 13.2,6.5 L13.2,6.5 Z"></path>
                            <path d="M24.4,6.7 L28,8 L27.4,26.9 L24,25.7 L24.2,21.9 L18.6,19.9 L16.3,23 L13,21.8 L24.4,6.7 L24.4,6.7 Z M20.4,17.2 L24.3,18.6 L24.7,11.2 L20.4,17.2 L20.4,17.2 Z"></path>
                            <path d="M45.7,14 C46.2,14.4 46.5,15 46.8,15.6 C47,16.1 47.1,16.7 47.1,17.3 C47.1,17.9 47.1,18.5 46.9,19.2 C46.7,20 46.2,20.8 45.6,21.5 C45,22.2 44.2,22.6 43.3,22.6 C43.9,23.1 44.3,23.7 44.4,24.4 C44.5,25.1 44.4,26 44.1,27.2 L43.8,28.4 C43.6,29.2 43.4,29.7 43.4,30 C43.4,30.5 43.5,30.9 43.7,31.2 L43.6,31.6 L40.1,30.6 C40.1,30.2 40.1,29.9 40.2,29.6 C40.3,29.1 40.4,28.6 40.5,28.1 L40.9,26.5 C41.2,25.4 41.3,24.6 41,24.1 C40.8,23.6 40.2,23.3 39.3,23 L36.2,22.1 L34.2,28.9 L31.1,28 L36.2,10.7 L43.5,12.8 C44.5,13.2 45.3,13.6 45.7,14 L45.7,14 Z M38.4,14.6 L37,19.2 L40.4,20.2 C41.1,20.4 41.6,20.5 42,20.4 C42.7,20.2 43.2,19.7 43.5,18.7 C43.8,17.7 43.7,16.9 43.2,16.3 C42.9,16 42.5,15.8 41.8,15.6 L38.4,14.6 L38.4,14.6 Z"></path>
                            <polygon points="63.6 18 62.9 21.1 58.3 20 54.8 34.4 51.5 33.6 55 19.2 50.3 18.1 51 15"></polygon>
                            <path d="M66.5,31.3 C66.4,32.1 66.5,32.8 66.8,33.2 C67.2,34 68.1,34.6 69.4,34.8 C70.2,35 70.9,35 71.4,34.9 C72.4,34.7 73,34.1 73.2,33.1 C73.3,32.5 73.2,32 72.8,31.6 C72.4,31.2 71.7,30.8 70.8,30.4 L69.2,29.7 C67.6,29 66.5,28.3 66,27.7 C65.1,26.7 64.8,25.3 65.1,23.6 C65.4,22 66.2,20.8 67.4,19.9 C68.6,19 70.3,18.8 72.3,19.2 C74,19.5 75.3,20.3 76.3,21.5 C77.3,22.7 77.6,24.3 77.3,26.2 L74.1,25.6 C74.2,24.5 74,23.7 73.3,23.1 C72.8,22.7 72.2,22.4 71.4,22.3 C70.5,22.1 69.8,22.2 69.2,22.5 C68.6,22.8 68.2,23.3 68.1,24 C68,24.6 68.1,25.2 68.6,25.6 C68.9,25.9 69.5,26.2 70.5,26.7 L73.1,28 C74.2,28.5 75.1,29.2 75.6,29.8 C76.4,30.8 76.6,32.1 76.3,33.7 C76,35.3 75.2,36.6 73.9,37.4 C72.6,38.3 70.9,38.5 68.9,38.1 C66.8,37.7 65.3,36.9 64.3,35.6 C63.3,34.3 63,32.8 63.3,30.9 L66.5,31.3 L66.5,31.3 Z"></path>
                            <path d="M92.5,33.5 C93.1,32.8 93.9,32.1 95.1,31.4 L95.5,31.2 C95.1,30.6 94.8,29.9 94.6,29.3 C94.4,28.7 94.3,28 94.4,27.4 C94.5,26.1 95,25.1 95.9,24.5 C96.8,23.8 97.8,23.6 99.1,23.7 C100.2,23.8 101.1,24.3 101.8,25.1 C102.5,25.9 102.7,26.9 102.6,28.1 C102.5,29.2 102.2,30 101.7,30.6 C101.2,31.2 100.5,31.8 99.5,32.2 L101.5,35.6 C101.8,35.2 102.1,34.8 102.2,34.3 C102.4,33.8 102.5,33.3 102.6,32.8 L105.3,33.1 C105.1,34.2 104.8,35.3 104.3,36.3 C104,36.9 103.6,37.6 103,38.3 L105.5,42.5 L101.8,42.1 L100.8,40.5 C100.2,41 99.7,41.4 99.2,41.6 C98.3,42 97.3,42.1 96.3,42 C94.7,41.8 93.5,41.2 92.6,40 C91.8,38.8 91.5,37.6 91.6,36.3 C91.6,35.1 92,34.2 92.5,33.5 L92.5,33.5 Z M95.1,38.1 C95.5,38.6 96,38.9 96.7,39 C97.2,39.1 97.7,39 98.2,38.8 C98.7,38.6 99.1,38.3 99.4,38 L96.8,33.6 C96,34.1 95.4,34.6 95.1,35 C94.8,35.4 94.6,35.9 94.6,36.4 C94.6,37 94.7,37.6 95.1,38.1 L95.1,38.1 Z M97.4,28.6 C97.5,28.8 97.8,29.3 98.1,29.9 C98.6,29.6 98.9,29.3 99.1,29.1 C99.5,28.7 99.8,28.2 99.8,27.7 C99.8,27.3 99.8,27 99.6,26.7 C99.4,26.4 99.1,26.2 98.6,26.2 C98.3,26.2 98,26.2 97.8,26.4 C97.4,26.6 97.2,27 97.1,27.5 C97.2,27.9 97.3,28.3 97.4,28.6 L97.4,28.6 Z"></path>
                            <path d="M124,37.7 C124.1,38.5 124.3,39.1 124.6,39.6 C125.1,40.4 126.1,40.7 127.4,40.8 C128.2,40.8 128.9,40.7 129.4,40.5 C130.4,40.1 130.8,39.5 130.9,38.4 C130.9,37.8 130.7,37.3 130.2,37 C129.7,36.7 129,36.4 128,36.1 L126.3,35.6 C124.6,35.1 123.4,34.7 122.8,34.2 C121.7,33.4 121.2,32 121.2,30.3 C121.2,28.7 121.8,27.4 122.8,26.3 C123.9,25.3 125.4,24.7 127.5,24.8 C129.2,24.8 130.7,25.4 131.8,26.4 C133,27.4 133.6,28.9 133.6,30.8 L130.4,30.7 C130.4,29.6 129.9,28.8 129.1,28.4 C128.6,28.1 127.9,27.9 127.1,27.9 C126.2,27.9 125.5,28.1 125,28.5 C124.5,28.9 124.2,29.4 124.2,30.1 C124.2,30.7 124.4,31.2 125,31.6 C125.3,31.8 126,32.1 127.1,32.4 L129.9,33.2 C131.1,33.5 132,34 132.6,34.6 C133.5,35.5 134,36.7 134,38.3 C134,39.9 133.4,41.3 132.2,42.4 C131.1,43.5 129.5,44 127.4,44 C125.3,44 123.6,43.4 122.5,42.3 C121.3,41.2 120.7,39.7 120.8,37.9 L124,37.7 L124,37.7 Z"></path>
                            <path d="M142.1,25.2 L145.9,25.1 L152.2,42.9 L148.6,43 L147.4,39.3 L141.5,39.5 L140.5,43.2 L137,43.3 L142.1,25.2 L142.1,25.2 Z M142.2,36.4 L146.3,36.3 L144,29.3 L142.2,36.4 L142.2,36.4 Z"></path>
                            <polygon points="154.4 24.6 157.7 24.3 159 39 167 38.3 167.3 41.5 156 42.5"></polygon>
                            <polygon points="181 24.9 172.6 26 173.1 29.8 180.8 28.8 181.2 31.9 173.5 32.9 174.1 37.5 182.9 36.3 183.3 39.5 171.3 41.1 168.9 23.2 180.5 21.7"></polygon>
                            <path d="M189,33 C189.2,33.8 189.6,34.4 189.9,34.7 C190.6,35.3 191.6,35.5 192.9,35.3 C193.7,35.2 194.3,34.9 194.8,34.7 C195.7,34.2 196,33.4 195.8,32.4 C195.7,31.8 195.4,31.4 194.9,31.2 C194.4,31 193.6,30.8 192.6,30.8 L190.8,30.7 C189.1,30.6 187.8,30.3 187.1,30 C185.9,29.4 185.1,28.2 184.8,26.5 C184.5,24.9 184.8,23.5 185.6,22.3 C186.4,21.1 187.9,20.3 189.9,19.9 C191.6,19.6 193.1,19.8 194.5,20.6 C195.9,21.4 196.7,22.7 197.1,24.6 L193.9,25.2 C193.6,24.1 193.1,23.5 192.2,23.2 C191.6,23 190.9,23 190.2,23.1 C189.3,23.3 188.7,23.6 188.2,24.1 C187.8,24.6 187.6,25.2 187.7,25.9 C187.8,26.5 188.2,27 188.7,27.2 C189.1,27.3 189.8,27.5 190.9,27.6 L193.8,27.8 C195.1,27.9 196.1,28.2 196.8,28.6 C197.9,29.3 198.6,30.4 198.9,32 C199.2,33.6 198.9,35.1 198,36.3 C197.1,37.6 195.6,38.4 193.6,38.8 C191.5,39.2 189.8,38.9 188.4,38.1 C187,37.3 186.2,35.9 185.8,34.1 L189,33 L189,33 Z"></path>
                            <path d="M204,38.6 C204.6,38.3 204.9,37.9 205.1,37.4 C205.3,36.9 205.3,36.2 205.2,35.4 L203.4,35.8 L202.6,32.2 L205.9,31.5 L206.6,34.6 C206.7,35.1 206.8,35.7 206.8,36.3 C206.8,36.9 206.7,37.5 206.4,38 C206.1,38.5 205.8,39 205.3,39.3 C204.8,39.6 204.5,39.8 204.3,39.9 L204,38.6 L204,38.6 Z"></path>
                            <polygon points="218.2 13.7 221.4 12.8 225.6 27 233.3 24.7 234.2 27.8 223.3 31"></polygon>
                            <polygon points="232.1 9.5 235.3 8.4 240.1 22.4 247.6 19.8 248.7 22.9 238 26.6"></polygon>
                            <path d="M247.8,5.8 C248.4,3.9 249.7,2.6 251.5,1.9 C254,0.9 256.1,1.1 258,2.5 C259,3.3 259.8,4.2 260.3,5.2 L257.2,6.4 C256.7,5.7 256.2,5.2 255.7,4.9 C254.9,4.4 253.9,4.4 252.8,4.8 C251.7,5.2 251,6.1 250.8,7.4 C250.6,8.7 250.8,10.3 251.6,12.1 C252.4,14 253.3,15.2 254.3,15.9 C255.3,16.6 256.4,16.7 257.4,16.3 C258.5,15.9 259.1,15.1 259.3,14.1 C259.4,13.5 259.4,12.8 259.3,11.9 L262.4,10.7 C262.9,12.6 262.8,14.4 262.2,16 C261.6,17.6 260.4,18.7 258.7,19.4 C256.6,20.2 254.6,20.1 252.8,19.1 C251,18 249.5,16.2 248.4,13.5 C247.3,10.5 247.1,8 247.8,5.8 L247.8,5.8 Z"></path>
                        </g>
                        <g transform="translate(61.000000, 164.000000)" id="Shape" fill="#000000">
                            <path d="M0.3,74.4 C0.5,72.9 0.8,71.4 1,69.9 C1.9,70 3.1,70.3 4.4,70.6 C6.9,71.2 9,71.4 10.7,71.4 C11.3,70.7 11.8,70 12,69.2 C12.6,67.2 13.1,64 13.6,59.9 C14.5,51.7 15.4,43.5 16.3,35.4 C16.6,32.8 17.2,26.2 18.2,15.4 C18.5,12.5 18.5,10.6 18.3,9.8 C18.2,9.5 18.1,9.3 17.8,9 C17.3,8.4 16.2,7.7 14.7,7.1 C14,6.8 12.3,5.9 9.5,4.4 C9.6,3 9.7,1.6 9.9,0.3 C13.9,1.8 17.9,3.2 21.9,4.5 C27.8,6.3 33.7,8 39.7,9.5 C40.4,9.7 41.1,9.9 41.8,10 C42.2,10.1 42.7,10.2 43.1,10.3 C43.5,10.4 44.4,10.7 46,11.1 C47.2,11.4 48.3,11.7 49.5,12 C52.3,12.7 55.3,13.8 58.5,15.5 C59.6,16.1 61.1,17 62.9,18.4 C64.7,19.8 66.3,21.4 67.6,23.2 C68.9,25 69.8,26.9 70.4,28.9 C71,30.9 71.2,33 71.1,35.2 C71,37.6 70.3,39.6 69.2,41.3 C68.1,43 66.4,44.5 64.2,45.6 C63.1,46.2 60.5,47 56.6,47.9 C62.3,50.5 66.5,53.7 69.4,57.8 C72.2,61.9 73.6,66 73.3,70.4 C73.2,73 72.5,75.6 71.4,78.2 C70.6,80.2 69.3,81.9 67.4,83.4 C65,85.4 62.5,86.7 59.9,87.4 C57.3,88.1 53.7,88.4 49.2,88.1 C47,88 43.6,87.4 39.1,86.2 C35.8,85.2 32.4,84.2 29.1,83.1 C24.9,81.8 19.8,80.5 14,78.8 C12.2,78.4 7.7,77 0.3,74.4 L0.3,74.4 Z M31.7,39.9 C33.2,40.6 34.9,41.2 37,41.8 C42.6,43.4 47,43.4 50.1,42 C53.2,40.5 54.9,37.1 55.3,31.9 C55.6,28.2 54.4,24.7 51.9,21.6 C49.4,18.5 45.5,16.2 40.1,14.7 C38.6,14.3 36.5,13.9 33.9,13.5 C33.8,14.4 33.7,15.7 33.6,17.4 C33.5,20.7 33.1,25.4 32.5,31.3 C32.3,32.9 32.1,34.5 32,36.2 C32,36.9 31.9,38.1 31.7,39.9 L31.7,39.9 Z M28.8,77 C31.2,78.8 33.5,80 35.7,80.6 C40.2,81.8 43.9,82.1 46.8,81.4 C49.7,80.8 51.9,79.3 53.4,77.2 C54.9,75.1 55.7,72.2 56,68.6 C56.3,64.9 55.8,61.7 54.6,59.2 C52.9,55.7 50.8,53.1 48.1,51.3 C45.5,49.6 41.5,48 36.1,46.5 C33.7,45.8 32.1,45.5 31.1,45.6 C30.9,48 30.6,50.4 30.4,52.7 C30.1,55.6 29.8,58.4 29.5,61.3 C29.1,65.8 28.7,70.2 28.4,74.7 C28.4,75.2 28.5,76 28.8,77 L28.8,77 Z"></path>
                            <path d="M94.9,96.6 C95,95.3 95.1,93.9 95.1,92.6 C95.9,92.4 97.2,92.3 99.2,92.1 C102.3,91.8 104.2,91.4 104.9,90.9 C105.6,90.5 106.4,89.4 107.4,87.6 C111.6,77.5 115.8,67.3 119.8,57 C124.5,44.9 129,32.8 133.4,20.5 C134.6,20.5 135.8,20.4 137,20.4 C137.8,20.4 138.7,20.3 139.5,20.3 C139.7,20.6 139.8,21 140,21.3 C143.4,29.2 146.8,37.1 150.3,45 C152.7,50 154.9,54.8 156.8,59.5 C158.8,64.2 160.5,68 161.9,70.9 C162.7,72.7 163.9,75.3 165.4,78.8 C166.2,80.7 167.4,83.1 169,85.9 C169.9,87.5 170.5,88.3 170.9,88.6 C171.6,89.1 172.8,89.3 174.5,89.3 C176.1,89.3 177.9,89.5 179.8,89.9 C180.1,91.2 180.2,92.1 180.2,92.7 L180.2,94 C177.2,94.5 174,94.8 170.4,95 C166.8,95.2 163.6,95.4 160.7,95.7 C157.5,96 155.2,96.2 153.8,96.4 C150.4,96.8 146.9,97.2 143.5,97.6 C142.5,97.7 141.5,97.8 140.5,97.8 C140.5,96.4 140.5,95.1 140.6,93.9 C142.8,93.3 145.1,92.8 147.3,92.2 C149.3,91.6 150.5,91.1 150.8,90.8 C151.2,90.4 151.4,89.9 151.4,89.4 C151.4,88.9 151.3,88.4 151.1,87.8 C150.3,85.9 149.4,84.1 148.6,82.2 C147,78.5 145.3,74.7 143.7,70.9 C136.2,71.2 128.7,71.3 121.1,71.2 C120.3,73.1 118.5,77.6 115.7,84.9 C114.9,87 114.5,88.4 114.5,89.1 C114.5,90.1 114.8,90.8 115.3,91.3 C116.2,92.1 118,92.7 120.6,93 C121,93.1 122.4,93.3 124.9,93.7 C124.9,95.1 125,96.1 125,96.6 C125,97 125,97.5 124.9,98 C122.4,98 116.4,97.6 107,96.4 C106.2,96.5 105.3,96.6 104.5,96.7 C101.5,97 98.6,97 95.9,96.7 C95.7,96.7 95.3,96.6 94.9,96.6 L94.9,96.6 Z M123.6,65.1 C132.8,65.3 138.1,65.1 139.8,65.1 C140.3,65.1 140.8,65 141.3,65 C140.1,61.6 138.5,57.6 136.6,53 C134.7,48.4 133.2,44.9 132,42.5 C129.2,50 126.5,57.5 123.6,65.1 L123.6,65.1 Z"></path>
                            <path d="M238.7,3.9 C239.2,5.1 239.8,6.9 240.4,9.5 C241.3,13.3 241.9,16.3 242.2,18.5 C242.3,19.2 242.3,20 242.3,20.8 C242.1,20.9 242,21 241.8,21.2 C240.5,21.6 239.2,22 237.8,22.4 C237.6,22.4 237.4,22.5 237.1,22.5 C234.9,18 232.9,15.1 231.1,13.8 C228,11.7 224.6,11.2 220.9,12.3 C217.3,13.4 214.6,15.2 212.7,17.7 C210.8,20.3 209.9,23 210.2,26 C210.4,28.5 211.7,30.6 214,32.3 C216.3,34 220.9,35 227.9,34.9 C230.2,34.9 233.1,35.1 236.5,35.5 C239.9,35.9 242.5,36.7 244.4,37.9 C246.9,39.4 248.7,41.1 249.8,43 C250.9,44.9 251.7,47.5 252.1,50.7 C252.6,54.3 252.4,58.1 251.5,62.1 C251,64.2 250.1,66.4 248.7,68.7 C247.7,70.3 246.1,72.3 243.8,74.7 C241.5,77.1 239.1,79.1 236.6,80.7 C234.1,82.3 230.7,83.7 226.5,84.9 C223.8,85.7 220.4,86.3 216.5,86.5 C214.1,86.5 211.6,86.4 209.2,86.3 C207.2,86.2 205.9,86 205.3,85.7 C205.1,85.6 204.9,85.3 204.7,84.7 L204.7,84.1 C204.7,83.7 204.4,81 203.8,76.2 C203.5,73.7 203.4,71.9 203.3,70.9 C203.2,70.2 203.2,69.4 203.1,68.7 C204.9,68.2 206.7,67.8 208.5,67.3 C210.7,71.2 212.1,73.5 212.8,74.2 C214.2,75.9 215.7,77.1 217.2,78 C218.8,78.8 220.6,79.3 222.7,79.5 C224.8,79.6 227,79.3 229.4,78.6 C231.5,78 233.8,76.8 236.2,75.1 C238.6,73.4 240.5,71.2 241.7,68.7 C243,66.1 243.5,63.7 243.2,61.4 C242.9,58.6 241.3,56.4 238.4,54.9 C236.6,53.9 232.2,53.4 224.9,53.1 C217.7,52.7 212.6,51.7 209.7,50.4 C206.8,49.1 204.5,47 202.7,44 C200.9,41 199.9,38 199.7,34.9 C199.2,28.7 201,23 204.8,17.7 C208.6,12.3 214.6,8.6 222.6,6.1 C224.3,5.6 226.9,5.1 230.4,4.6 C232.3,4.1 235.1,4 238.7,3.9 L238.7,3.9 Z"></path>
                        </g>
                        <circle id="Oval" fill="#000000" cx="141.6" cy="253.1" r="6.4"></circle>
                        <circle id="Oval" fill="#000000" cx="252.4" cy="250.7" r="6.4"></circle>
                        <circle id="Oval" fill="#000000" cx="324.5" cy="223.7" r="6.4"></circle>
                        <g transform="translate(31.000000, 0.000000)">
                            <polygon id="Shape" fill="#FFFFFF" points="7.6 68.6 57.9 54.2 311.9 28.1 309.6 20.5 16.5 53.5"></polygon>
                            <g transform="translate(0.000000, 19.000000)" id="Shape" fill="#000000">
                                <path d="M8.7,42.4 C10.5,40.9 12.6,39.3 15.1,37.8 C15.7,37.5 16.4,37.1 17,36.7 C17.7,36.4 18.4,36 19.1,35.8 C20.5,35.3 22.2,34.8 23.7,34.7 C30,34 37.2,33.2 45,32.3 C76.3,28.7 118,24 159.7,19.3 C201.4,14.6 243.1,9.8 274.4,6.3 C282.2,5.4 289.4,4.6 295.7,3.9 C302,3.2 307.6,2.4 312.2,2.4 C314.5,2.3 316.6,2.4 318.4,2.7 C319.3,2.9 320.1,3.1 320.9,3.5 C321.1,3.6 321.2,3.8 321.3,3.9 C321.7,0.8 312.5,0.7 312.5,0.7 C312.5,0.7 67.8,25.9 22.9,32.6 C19.6,33.1 14.6,34.8 11.2,37.7 C7.8,40.6 3.5,44.8 1.2,49.2 C3,47.4 5.5,45.1 8.7,42.4 L8.7,42.4 Z"></path>
                                <path d="M316.4,10 C319,8.5 320.4,7.3 321,6.3 C321,6 320.8,5.8 320.5,5.6 C319.9,5.2 319.1,5 318.3,4.9 C316.6,4.6 314.5,4.6 312.3,4.6 C307.7,4.7 302.2,5.4 295.9,6.2 C289.5,6.9 282.4,7.8 274.6,8.7 C243.3,12.3 201.6,17.1 159.9,21.9 C118.2,26.7 76.5,31.5 45.2,35.1 C37.4,36 30.2,36.8 23.9,37.6 C20.8,37.9 18.1,39.1 15.7,40.6 C13.3,42.1 11.3,43.6 9.5,45.1 C5.9,48.1 3.2,50.7 1.4,52.5 C1,52.9 0.6,53.3 0.3,53.6 C-1,60.6 19.5,59.7 19.5,59.7 C19.5,59.7 254.4,28.7 267.4,27.5 C283.4,25.6 302.1,18.4 316.4,10 L316.4,10 Z"></path>
                            </g>
                            <path d="M255.9,40.1 C260.6,44.9 264.7,48.8 256.6,61.6 C256.6,61.6 213.8,91.3 204.3,97.1 C202.6,98.2 200.7,99 198.7,99.5 C183.6,103.9 110,129.5 97.3,135.5 C87.5,140.1 75.9,140.2 73.6,136.5 C71.3,132.9 69,123.3 68.1,112.8 C67.4,104.6 66.1,88.6 65.6,82.1 C65.4,80 66.8,78 68.9,77.6 C72.5,76.8 78.5,77.6 84,87.8 C94.6,107.3 97.5,108.1 97.2,106.7 C96.9,105.2 97.3,103.6 98.6,102.7 C98.6,102.7 125.2,99.5 145.4,68.6 C157.5,50.1 184.6,34.5 188.7,32.5 C188.7,32.5 203.9,31.2 209.6,30.1 C215.8,29 220.5,37.8 226.5,37.4 C246.7,36.2 250.1,34.3 255.9,40.1 L255.9,40.1 Z" id="Shape" fill="#000000"></path>
                            <polygon id="Shape" fill="#FFFFFF" points="9.6 116.3 59.8 101.9 313.9 75.8 311.5 67.4 27.8 98.2 15.9 103.4"></polygon>
                            <g transform="translate(20.000000, 117.000000)" id="Shape">
                                <path d="M59,16.9 L72.7,6.4 C72.7,6.4 72.2,0.5 67.7,1.4 C63.1,2.3 15.3,7 4.9,13.4 C-5.6,19.8 9,18.9 9,18.9 C9,18.9 49.4,15.1 59,16.9 L59,16.9 Z" fill="#000000"></path>
                                <path d="M58.9,16.7 L72.5,6.3 L72.4,6.5 L72.4,6.5 C71.9,5.2 71.3,3.9 70.5,3.1 C69.7,2.3 68.7,2.1 67.4,2.4 C64.5,2.8 61.7,3.1 58.9,3.5 C53.3,4.2 47.6,4.9 42,5.7 C36.4,6.5 30.8,7.4 25.2,8.4 C19.6,9.5 14,10.6 8.8,12.4 C7.5,12.9 6.2,13.4 5.1,14.1 C3.9,14.8 2.7,15.6 2,16.6 C1.7,17.1 1.7,17.2 2.1,17.5 C2.5,17.8 3.2,17.9 3.9,18.1 C5.2,18.3 6.6,18.4 8,18.3 C10.8,18.2 13.6,17.8 16.5,17.6 L25,17 C30.7,16.6 36.4,16.4 42.1,16.2 C44.9,16.1 47.8,16.1 50.6,16.1 C53.3,16.2 56.1,16.2 58.9,16.7 L58.9,16.7 Z M58.9,17.2 C56.1,16.8 53.3,16.8 50.4,16.8 C47.6,16.8 44.7,16.9 41.9,17.1 C36.2,17.4 30.6,17.8 24.9,18.2 L16.4,18.9 C13.5,19.1 10.8,19.4 7.9,19.6 C6.5,19.6 5,19.6 3.5,19.4 C2.8,19.3 2,19.1 1.2,18.7 C0.8,18.5 0.4,18 0.3,17.4 C0.2,16.8 0.5,16.3 0.7,16 C1.7,14.6 3,13.9 4.2,13.1 C5.5,12.3 6.8,11.7 8.2,11.2 C13.6,9.3 19.2,8.1 24.8,7 C30.4,5.9 36,5 41.7,4.2 C47.3,3.4 53,2.6 58.6,1.9 C61.4,1.5 64.3,1.2 67,0.8 C68.3,0.4 70.7,0.6 71.7,2.2 C72.7,3.6 73,5.2 72.8,6.6 L72.8,6.6 L72.8,6.7 L72.7,6.8 L59,17.2 L58.9,17.2 L58.9,17.2 Z" fill="#FFFFFF"></path>
                            </g>
                            <g transform="translate(4.000000, 65.000000)" id="Shape" fill="#000000">
                                <path d="M9.4,43.2 C11.3,41.7 13.4,40 15.8,38.5 C16.4,38.1 17.1,37.8 17.7,37.4 C18.4,37.1 19.1,36.7 19.8,36.4 C21.2,35.8 22.9,35.4 24.5,35.3 C30.9,34.6 38.2,33.7 46.1,32.8 C77.7,29.2 119.9,24.4 162.1,19.5 C204.3,14.7 246.5,9.9 278.1,6.2 C286,5.3 293.3,4.5 299.7,3.7 C306.1,3 311.7,2.2 316.4,2.1 C318.7,2 320.8,2.1 322.6,2.4 C323.5,2.6 324.4,2.8 325.1,3.3 C325.3,3.4 325.4,3.6 325.6,3.7 C326,0.5 316.7,0.5 316.7,0.5 C316.7,0.5 69.1,26.2 23.7,33 C20.4,33.5 15.3,35.2 11.9,38.2 C8.5,41.2 4.1,45.5 1.8,49.9 C3.6,48.3 6.1,45.9 9.4,43.2 L9.4,43.2 Z"></path>
                                <path d="M320.7,10.2 C323.3,8.6 324.8,7.4 325.4,6.4 C325.4,6.1 325.2,5.9 324.9,5.7 C324.3,5.3 323.5,5.1 322.7,5 C321,4.7 318.9,4.6 316.6,4.7 C312,4.8 306.4,5.6 300,6.3 C293.6,7 286.3,7.9 278.4,8.8 C246.8,12.5 204.6,17.3 162.4,22.2 C120.2,27.1 78,32 46.4,35.6 C38.5,36.5 31.2,37.4 24.8,38.1 C21.6,38.4 18.9,39.7 16.5,41.1 C14.1,42.6 12,44.2 10.2,45.7 C6.5,48.7 3.9,51.4 2,53.2 C1.6,53.6 1.2,54 0.9,54.4 C-0.5,61.6 16.8,59.4 16.8,59.4 C16.8,59.4 260.3,26.7 273.3,25.4 C289.6,23.8 306.2,18.8 320.7,10.2 L320.7,10.2 Z"></path>
                            </g>
                            <g transform="translate(184.000000, 28.000000)" id="Shape">
                                <path d="M30.2,2 C29.6,1.4 29.4,1.7 28.5,1.8 L6.9,4.1 C6.7,4.1 6.5,4.2 6.3,4.2 C4.8,4.7 -1.6,7.1 2.1,12.3 L9.2,19.5 C10.3,20.8 12.3,21 13.6,19.8 C21.5,12.3 27.8,11.1 30.4,10.1" fill="#000000"></path>
                                <path d="M29.9,2.4 C29.6,2.6 29.5,2.6 29.6,2.4 C29.7,2.3 29.8,2.1 29.8,1.9 L29.8,1.7 L29.6,1.7 L29.5,1.6 C29.5,1.6 29.4,1.4 29.5,1.8 C29.5,1.9 29.4,1.9 29.4,1.9 C29.1,2 28.6,2 28.3,2 L26.1,2.2 L21.7,2.7 L12.9,3.6 L8.5,4.1 C7.8,4.2 7,4.2 6.4,4.4 C5.7,4.6 5.1,4.9 4.4,5.2 C3.2,5.9 2,6.8 1.6,8 C1.4,8.6 1.4,9.3 1.6,9.9 C1.8,10.5 2.1,11.2 2.5,11.7 L2.5,11.6 L9.6,18.8 L9.6,18.8 L9.6,18.8 C10.2,19.5 11.1,19.8 11.9,19.7 C12.8,19.6 13.4,18.9 14.2,18.2 C15.7,16.8 17.3,15.5 19,14.3 C20.7,13.1 22.5,12.1 24.4,11.3 C26.3,10.4 28.3,9.8 30.2,9.2 L30.6,10.3 C28.6,11 26.7,11.5 24.9,12.3 C23.1,13.1 21.3,14.1 19.6,15.2 C17.9,16.3 16.3,17.6 14.8,18.9 L13.6,19.9 C13.1,20.3 12.6,20.5 12,20.6 C10.8,20.8 9.6,20.3 8.8,19.4 L8.8,19.4 L1.8,12.2 L1.8,12.2 L1.8,12.2 C1.4,11.6 1,10.9 0.8,10.1 C0.6,9.3 0.6,8.5 0.9,7.7 C1.5,6.1 2.8,5.1 4.1,4.4 C4.8,4 5.5,3.7 6.2,3.5 C7,3.2 7.7,3.2 8.5,3.1 L12.9,2.6 L21.7,1.7 L26.1,1.2 L28.3,1 C28.7,1 29,0.9 29.3,0.8 C29.4,0.8 29.4,0.8 29.5,0.9 C29.6,1.3 29.6,1.1 29.6,1.1 L29.7,1 C29.8,1 29.9,1.1 30,1.1 C30.1,1.1 30.1,1.1 30.2,1 C30.3,0.9 30.5,0.8 30.6,0.7 C30.9,0.6 30.9,0.7 30.8,1.1 L29.9,2.4 L29.9,2.4 Z" fill="#FFFFFF"></path>
                            </g>
                            <path d="M265.3,49.8 C265.3,60.9 257.7,68.7 246.6,68.7 C235.5,68.7 226.5,59.7 226.5,48.6 C226.5,37.5 235.5,28.5 246.6,28.5 C257.7,28.5 265.3,38.7 265.3,49.8 L265.3,49.8 Z" id="Shape" fill="#000000"></path>
                            <polygon id="Shape" fill="#000000" points="93.7 123.1 81.6 123.1 78.1 134 91.8 135.9"></polygon>
                            <path d="M194.3,34.9 C194.3,34.9 194.1,35.4 193.7,36.1 C193.4,36.8 192.9,37.7 192.8,38.7 C192.6,39.7 192.8,40.7 192.8,41.5 C192.9,42.3 192.9,42.9 192.9,42.9 C192.9,43.2 192.7,43.5 192.3,43.6 C192,43.6 191.7,43.4 191.7,43.1 C191.7,43.1 191.6,42.6 191.5,41.8 C191.4,41 191.2,39.9 191.3,38.7 C191.4,37.5 191.9,36.4 192.2,35.6 C192.5,34.8 192.7,34.3 192.7,34.3 C192.9,33.9 193.4,33.7 193.8,33.9 C194.3,33.9 194.5,34.4 194.3,34.9 L194.3,34.9 L194.3,34.9 Z" id="Shape" fill="#FFFFFF"></path>
                            <path d="M197,36.5 C197,36.5 196.8,36.8 196.6,37.4 C196.4,37.9 196.2,38.6 196.1,39.3 C196,40 196,40.7 196.1,41.3 C196.1,41.9 196.2,42.3 196.2,42.3 C196.2,42.5 196.1,42.7 195.9,42.7 C195.7,42.7 195.5,42.6 195.5,42.4 C195.5,42.4 195.4,42 195.4,41.4 C195.3,40.8 195.2,40 195.3,39.2 C195.4,38.4 195.6,37.6 195.8,37 C196,36.5 196.2,36.1 196.2,36.1 C196.3,35.8 196.6,35.7 196.9,35.8 C197,35.9 197.1,36.2 197,36.5 L197,36.5 L197,36.5 Z" id="Shape" fill="#FFFFFF"></path>
                            <g transform="translate(163.000000, 45.000000)" id="Shape">
                                <path d="M18,9.7 C18.6,11.1 18.1,12.7 16.7,13.4 L4.4,24.1 C3.2,24.9 1.6,24.2 1.3,22.8 L1.2,14 C1.2,12.7 1.8,11.5 2.8,10.7 L12.4,1.1 C13.1,0.5 14.3,0.7 14.7,1.6 L18,9.7 L18,9.7 Z" fill="#000000"></path>
                                <path d="M18.4,9.5 C18.5,9.8 18.6,10.3 18.6,10.7 C18.6,11.1 18.5,11.5 18.4,11.9 C18.1,12.7 17.6,13.3 16.8,13.7 L16.9,13.7 C12.7,17.2 8.6,20.7 4.5,24.3 L4.5,24.3 L4.5,24.3 C3.9,24.7 3.1,24.8 2.5,24.5 C1.9,24.2 1.4,23.6 1.2,22.9 L1.2,22.9 L1.2,22.9 L1,16.6 C1,15.5 0.9,14.5 1,13.4 C1.1,12.3 1.7,11.2 2.5,10.4 L2.5,10.4 C5.5,7 8.8,3.9 12,0.7 L12,0.7 L12,0.7 C12.5,0.3 13.2,0.1 13.9,0.3 C14.2,0.4 14.5,0.6 14.8,0.8 C15,1 15.2,1.4 15.3,1.6 L16.3,4.3 L18.4,9.5 L18.4,9.5 Z M17.6,9.9 L15.4,4.7 L14.3,2.1 C14.2,1.9 14.2,1.8 14.1,1.7 C14,1.6 13.9,1.5 13.7,1.5 C13.4,1.4 13.1,1.5 12.9,1.7 L12.9,1.7 C9.7,4.9 6.5,8.1 3.2,11.2 L3.2,11.2 C2.4,11.8 1.9,12.6 1.7,13.6 C1.6,14.6 1.6,15.7 1.6,16.7 L1.6,23 L1.6,23 C1.7,23.6 2.1,24.1 2.7,24.4 C3.3,24.6 3.9,24.6 4.4,24.2 L4.4,24.2 C8.5,20.6 12.6,17 16.6,13.3 L16.6,13.3 L16.6,13.3 C17.2,13 17.6,12.4 17.7,11.8 C17.8,11.5 17.8,11.2 17.8,10.9 C17.8,10.4 17.8,10.2 17.6,9.9 L17.6,9.9 Z" fill="#FFFFFF"></path>
                            </g>
                            <polygon id="Shape" fill="#000000" points="256.9 66 197.5 75.7 205.3 87.5 211.6 85.3 234.8 85.5 229.3 80.3"></polygon>
                            <g transform="translate(55.000000, 62.000000)" id="Shape" fill="#000000">
                                <polygon points="16.5 33.4 0.8 2.4 4.5 0.6 19.4 32"></polygon>
                                <path d="M18.8,31.5 L5.2,1.5" stroke="#000000"></path>
                                <polygon points="12.7 31.2 22.2 30.1 19.4 32.9"></polygon>
                            </g>
                            <g transform="translate(265.000000, 36.000000)" id="Shape" fill="#000000">
                                <polygon points="16.7 34.7 0.2 2 3.9 0.2 19.6 33.3"></polygon>
                                <path d="M19.8,34.2 L4.6,1.1" stroke="#000000" stroke-width="1.1635"></path>
                                <polygon points="17.9 33.7 22.8 33.2 19.8 35.1"></polygon>
                            </g>
                            <polygon id="Shape" fill="#000000" points="238.2 30.6 212.2 34.5 225.4 39.8 238.2 32"></polygon>
                            <path d="M258.8,83 C257.2,83.3 255.6,83.5 253.8,83.5 C250.9,83.5 247.8,83 244.8,81.9 C241.8,80.9 238.8,79.3 235.9,77.3 C234.5,76.4 233.2,75.2 231.8,74.1 C230.5,72.8 229.2,71.6 228,70.2 C225.5,67.6 223.4,64.5 221.6,61.3 L220.3,58.9 L219.2,56.5 L218.7,55.3 L218.2,53.9 L217.2,51.1 C215.2,44.4 214.1,36.9 215.1,30.2 C215.5,26.8 216.4,23.6 217.7,20.7 C219,17.8 220.7,15.1 222.7,12.9 C223.7,11.7 224.9,10.9 226,9.9 C227.3,9.2 228.5,8.2 229.7,7.7 C230.8,7.1 232.4,6.6 233.9,6.2 C234.1,6.1 234.4,6.1 234.7,6 C235.8,5.8 237,5.6 238.1,5.5 C243.8,5.1 249.6,6.7 254.3,9.4 C259.1,12 263.2,15.5 266.2,18.9 C269.2,22.4 271.5,25.8 273,28.8 C273.8,30.3 274.4,31.6 274.8,32.7 C275.3,33.8 275.7,34.9 276,35.8 C276.5,37.3 276.8,38.2 276.9,38.4 C276.9,38.6 277.2,39.4 277.6,41 C277.8,41.8 278.1,42.9 278.3,44.1 C278.5,45.4 278.8,46.8 278.9,48.3 C279.3,51.5 279.2,55.3 278.6,59.5 C277.9,63.7 276.5,68.2 273.8,72.3 C272.5,74.4 270.8,76.3 268.9,78 C266.9,79.6 264.6,81.1 262.2,81.9 C261.1,82.4 260,82.7 258.8,83 M232.7,1.3 C232.5,1.3 232.3,1.4 232.1,1.4 C230.6,1.8 229.1,2.1 227.4,2.9 C224.1,4.2 221.3,6.1 218.8,8.7 C216.3,11.2 214.2,14.2 212.6,17.5 C211,20.8 209.9,24.5 209.3,28.3 C208,36 208.7,44.2 211.2,52.5 L212.2,55.3 C212.5,56.2 212.9,57.2 213.3,58.2 L214.6,61.2 L216.1,64 C218.2,67.7 220.6,71.2 223.4,74.4 C226.2,77.6 229.4,80.4 232.8,82.7 C236.2,85.1 239.8,87 243.6,88.2 C245.4,88.9 247.3,89.2 249.2,89.6 C251.1,89.8 252.9,90.1 254.7,89.9 C256.5,89.9 258.3,89.7 259.9,89.3 C261.6,88.9 263.2,88.4 264.7,87.9 C271.1,85.3 275.5,80.8 278.4,75.9 C281.3,71 282.7,65.7 283.3,61 C283.9,56.3 283.8,52 283.3,48.5 C283.1,46.7 282.8,45.2 282.5,43.8 C282.3,42.4 282,41.3 281.7,40.4 C281.2,38.6 280.9,37.6 280.9,37.6 L280.9,37.5 C280.9,37.5 280.6,36.6 279.9,34.9 C279.6,34 279.2,32.9 278.5,31.6 C277.9,30.3 277.2,28.8 276.3,27.3 C274.6,24.1 272.2,20.4 268.8,16.6 C265.5,12.8 261.2,8.8 255.8,5.8 C250.5,2.7 243.9,0.7 237.2,0.9 C236.3,0.9 235.5,1 234.7,1.1 C234.1,1.1 233.5,1.2 232.7,1.3" id="Shape" fill="#FFFFFF"></path>
                            <path d="M259.3,87 C257.7,87.4 256,87.5 254.2,87.5 C252.6,87.6 250.9,87.3 249.2,87.1 C247.5,86.7 245.8,86.4 244.1,85.8 C240.7,84.7 237.4,83 234.3,80.7 C232.7,79.7 231.3,78.4 229.7,77.1 C228.3,75.7 226.8,74.4 225.6,72.9 C222.9,70 220.6,66.6 218.6,63.2 C216.5,59.7 215.1,56.1 213.7,52.1 C211.4,44.6 210.3,36.5 211.4,29.2 C211.6,27.3 212.1,25.6 212.5,23.8 C213.1,22.1 213.5,20.3 214.3,18.8 C215.7,15.6 217.6,12.6 219.9,10.2 C221,8.9 222.3,7.9 223.6,6.9 C225,6 226.3,5 227.8,4.5 C229.2,3.8 230.8,3.3 232.4,2.9 C232.6,2.8 232.9,2.8 233.1,2.7 C234.4,2.4 235.8,2.2 237.1,2.1 C243.5,1.7 249.9,3.5 255.1,6.5 C260.4,9.4 264.8,13.2 268.1,17 C271.4,20.8 273.7,24.6 275.3,27.9 C276.1,29.5 276.7,31 277.2,32.2 C277.8,33.5 278.2,34.6 278.5,35.5 C279,37.1 279.4,38.1 279.4,38.3 C279.4,38.4 279.7,39.4 280.1,41.1 C280.4,42 280.6,43.1 280.8,44.5 C281,45.8 281.3,47.4 281.5,49.1 C281.9,52.5 281.9,56.7 281.2,61.2 C280.5,65.7 279,70.7 276.1,75.2 C273.3,79.7 268.9,83.7 263.4,85.9 C262.1,86.3 260.7,86.7 259.3,87 M232.2,1 C232,1 231.9,1.1 231.7,1.1 C230.1,1.5 228.5,1.9 226.9,2.7 C223.7,4 220.8,6 218.3,8.5 C215.8,11 213.6,14 212,17.4 C211.1,19 210.6,20.9 209.9,22.7 C209.5,24.6 208.9,26.4 208.6,28.4 C207.3,36.2 208,44.6 210.5,53 C211.8,56.8 213.4,61.1 215.6,64.8 C217.7,68.6 220.1,72.2 223,75.4 C225.8,78.7 229,81.6 232.5,83.9 C235.9,86.3 239.6,88.2 243.4,89.4 C249.2,91.4 255.2,91.7 260.5,90.6 C262,90.3 263.4,89.8 264.8,89.3 C271.2,86.8 275.9,82.3 278.8,77.2 C281.8,72.2 283.3,66.8 283.9,61.9 C284.5,57 284.4,52.6 283.9,49 C283.8,47.2 283.4,45.6 283.1,44.2 C282.8,42.8 282.5,41.6 282.2,40.7 C281.7,38.8 281.4,37.8 281.4,37.8 L281.4,37.7 C281.4,37.7 281,36.7 280.3,34.9 C280,34 279.5,32.9 278.9,31.5 C278.3,30.2 277.6,28.7 276.6,27.1 C274.8,23.8 272.1,20.1 268.7,16.2 C265.2,12.4 260.9,8.3 255.4,5.3 C250,2.2 243.4,0.2 236.7,0.4 C235.8,0.4 235,0.6 234.2,0.7 C233.6,0.8 232.9,0.9 232.2,1" id="Shape" fill="#000000"></path>
                            <path d="M245.9,75.8 C245.9,75.8 243,75.2 239,73.3 C238,72.9 236.9,72.3 235.8,71.7 C234.6,71.1 233.5,70.3 232.3,69.6 C231.2,68.7 229.9,67.9 228.8,66.9 C227.7,65.9 226.4,65 225.5,63.6 C224.7,62.3 224.1,60.8 223.5,59.4 C222.8,58 222.5,56.6 222.1,55.2 C221.6,53.9 221.5,52.5 221.2,51.2 C220.9,49.9 220.9,48.7 220.8,47.6 C220.7,46.5 220.6,45.5 220.7,44.6 C220.8,43.7 220.8,42.9 220.8,42.3 C220.9,41 220.9,40.3 220.9,40.3 C220.9,40.3 220.9,40.2 221,40.2 C221,40.2 221.1,40.2 221.1,40.3 C221.1,40.3 221.2,41 221.3,42.2 C221.4,42.8 221.4,43.6 221.5,44.4 C221.6,45.3 221.9,46.2 222,47.3 C222.2,48.3 222.4,49.5 222.8,50.6 C223.2,51.7 223.5,53 224.1,54.2 C224.7,55.4 225.2,56.7 225.9,57.9 C226.6,59.1 227.3,60.3 228.2,61.4 C228.7,62.8 229.8,63.7 230.7,64.8 C231.6,65.9 232.7,66.8 233.6,67.7 C234.6,68.5 235.6,69.4 236.6,70.1 C237.6,70.8 238.5,71.5 239.5,72 C243.1,74.3 245.8,75.2 245.8,75.2 C245.9,75.2 245.9,75.3 245.9,75.4 C246.1,75.8 246,75.9 245.9,75.8 L245.9,75.8 L245.9,75.8 Z" id="Shape" fill="#FFFFFF"></path>
                            <path d="M243,34.9 L251.3,44.1" id="Shape" stroke="#FFFFFF" stroke-width="0.4591" fill="#FFFFFF"></path>
                            <path d="M239.1,42.4 L251.3,44.1" id="Shape" stroke="#FFFFFF" stroke-width="0.6886" fill="#FFFFFF"></path>
                            <path d="M240.8,50.6 L251.3,44.1" id="Shape" stroke="#FFFFFF" stroke-width="0.9181" fill="#FFFFFF"></path>
                            <path d="M247.5,55.8 L251.3,44.1" id="Shape" stroke="#FFFFFF" stroke-width="0.6886" fill="#FFFFFF"></path>
                            <path d="M255.9,55.5 L251.3,44.1" id="Shape" stroke="#FFFFFF" stroke-width="0.4591"></path>
                            <path d="M260.6,48.9 L251.3,44.1" id="Shape" stroke="#FFFFFF" stroke-width="0.2295" fill="#FFFFFF"></path>
                            <path d="M259.5,42.3 L251.3,44.1" id="Shape" stroke="#FFFFFF" stroke-width="0.2295" fill="#FFFFFF"></path>
                            <path d="M256.5,37.2 L251.3,44.1" id="Shape" stroke="#FFFFFF" stroke-width="0.2295" fill="#FFFFFF"></path>
                            <path d="M250.8,34.3 L251.3,44.1" id="Shape" stroke="#FFFFFF" stroke-width="0.4591" fill="#FFFFFF"></path>
                            <g transform="translate(242.000000, 35.000000)">
                                <ellipse id="Oval" fill="#000000" transform="translate(8.776400, 9.019360) rotate(-25.106891) translate(-8.776400, -9.019360) " cx="8.77651582" cy="9.01949152" rx="5.9" ry="6.7"></ellipse>
                                <path d="M5.8,2.5 C5.8,2.5 5.9,2.4 6.2,2.4 C6.5,2.3 7,2.2 7.6,2.1 C8.8,2 10.5,2.4 12,3.6 C13.5,4.8 14.8,6.7 15.1,9.1 C15.4,11.4 14.5,14.3 12,15.7 C10.9,16.3 9.3,16.5 8,16.2 C6.6,15.9 5.4,15.2 4.5,14.4 C3.6,13.5 2.8,12.4 2.5,11.3 C2.1,10.1 2,9 2.1,7.9 C2.3,5.8 3.4,4.3 4.3,3.5 C5.1,2.7 5.8,2.5 5.8,2.5 L5.8,2.5 L5.8,2.5 Z M6.2,3.5 C6.2,3.5 5.7,3.7 5,4.4 C4.4,5.1 3.7,6.4 3.7,8 C3.7,8.8 3.8,9.7 4.1,10.5 C4.5,11.4 4.9,12.3 5.6,13 C6.3,13.7 7.2,14.4 8.2,14.7 C9.2,15 10.3,15 11.4,14.6 C12.4,14.2 13.3,13.4 13.8,12.4 C14.4,11.4 14.6,10.2 14.5,9.1 C14.3,6.8 13.1,4.9 11.5,3.9 C10,2.9 8.4,2.8 7.5,3 C7,3.1 6.7,3.2 6.4,3.3 C6.3,3.4 6.2,3.5 6.2,3.5 L6.2,3.5 L6.2,3.5 Z" id="Shape" fill="#FFFFFF"></path>
                            </g>
                            <path d="M257.8,41.9 C257.8,41.9 257.8,42.1 257.7,42.5 C257.6,42.8 257.5,43.4 257.2,43.8 C257,44.3 256.7,44.9 256.4,45.4 C256.1,45.9 255.7,46.4 255.4,46.8 C255,47.2 254.6,47.6 254.2,47.9 C253.8,48.2 253.4,48.3 253.1,48.5 C252.8,48.7 252.4,48.7 252.2,48.7 L251.8,48.7 L251.1,48.6 C248.2,48.1 246.3,45.3 246.8,42.4 C247,41.2 247.6,40.2 248.4,39.5 C248.4,39.5 248.5,39.4 248.7,39.3 C248.9,39.2 249.2,39 249.5,39 C249.9,39 250.3,38.8 250.8,38.8 C251.3,38.8 251.9,38.9 252.4,38.9 C253,39.1 253.6,39.2 254.1,39.4 C254.7,39.5 255.2,39.9 255.7,40 C256.2,40.2 256.6,40.5 256.9,40.7 C257.2,40.9 257.4,41 257.4,41 C257.8,41.2 257.9,41.6 257.8,41.9 L257.8,41.9 L257.8,41.9 Z" id="Shape" fill="#000000"></path>
                            <path d="M242.2,29.9 C242.2,29.9 242.6,29.8 243.3,29.7 C244.1,29.6 245.2,29.6 246.5,29.7 C249.2,30 253,31.3 256.6,34.1 C258.4,35.6 260,37.5 261.2,40 C262.4,42.4 263,45.2 263.1,48.1 C263.3,51 262.8,54.1 261.6,56.9 C260.3,59.7 258.1,62.4 255,63.7 C251.8,64.9 248.3,64.4 245.3,63.1 C242.3,61.8 239.8,59.7 238,57.3 C236.1,54.9 234.9,52.3 234,49.7 C233.1,47.1 232.9,44.4 233.1,42 C233.6,37.1 236.1,33.6 238.2,31.9 C239.3,31 240.3,30.5 241,30.3 C241.8,30 242.2,29.9 242.2,29.9 L242.2,29.9 L242.2,29.9 Z M242.4,30.8 C242.4,30.9 240.9,31 239,32.8 C237.1,34.4 235.2,37.8 235.1,42.1 C235,44.2 235.5,46.6 236.3,48.9 C237.1,51.1 238.5,53.6 240.1,55.6 C241.7,57.7 243.8,59.6 246.3,60.8 C248.7,62 251.6,62.7 254.2,61.8 C256.8,60.9 258.9,58.8 260.2,56.3 C261.5,53.8 262.1,50.9 262.1,48.1 C262.1,45.3 261.6,42.6 260.5,40.3 C259.4,38 257.8,36.1 256.1,34.6 C252.6,31.7 248.8,30.7 246.3,30.5 C245,30.4 244,30.5 243.3,30.6 C242.8,30.8 242.4,30.8 242.4,30.8 L242.4,30.8 L242.4,30.8 Z" id="Shape" fill="#FFFFFF"></path>
                            <path d="M247.5,41 C247.5,41 248.2,40.8 249.1,40.6 C250.1,40.4 251.4,40.2 252.7,40.3 C254,40.3 255.3,40.5 256.2,40.8 C257.1,41.1 257.7,41.4 257.7,41.4 C257.8,41.4 257.9,41.6 257.8,41.7 C257.8,41.8 257.6,41.8 257.5,41.8 C257.5,41.8 256.9,41.6 256,41.5 C255.1,41.3 253.9,41.3 252.7,41.4 C251.5,41.5 250.3,41.8 249.5,42.1 C248.6,42.4 248.1,42.6 248.1,42.6 C247.7,42.8 247.2,42.6 247,42.2 C246.8,41.8 247,41.3 247.4,41.1 C247.4,41 247.5,41 247.5,41 L247.5,41 L247.5,41 Z" id="Shape" fill="#FFFFFF"></path>
                            <circle id="Oval" fill="#000000" cx="252" cy="107.8" r="8.2"></circle>
                            <path d="M242,110.2 C240.5,104.5 243.8,98.7 249.5,97.2 C255.2,95.7 261,99 262.5,104.7" id="Shape" fill="#000000"></path>
                            <g transform="translate(176.000000, 88.000000)" fill="#000000">
                                <circle id="Oval" cx="21.8" cy="30.4" r="9.7"></circle>
                                <path d="M10.6,33 C8.9,26.7 12.7,20.2 19,18.5 C25.3,16.8 31.8,20.6 33.5,26.9" id="Shape"></path>
                                <path d="M1,7.3 L24,28.4 L18.9,31.3 L9.9,7.8 C8.9,5.2 10.2,2.3 12.8,1.3 C15.4,0.3 18.3,1.6 19.3,4.2 C19.4,4.5 19.5,4.7 19.5,5 L24.5,29.7 L24.6,30.2 C24.9,31.8 23.9,33.3 22.3,33.7 C21.2,33.9 20.1,33.5 19.4,32.7 L0.2,8 C0,7.7 0,7.4 0.3,7.2 C0.5,7 0.8,7.1 1,7.3 L1,7.3 Z" id="Shape"></path>
                            </g>
                            <path d="M234.9,88.6 L253.7,105.1 L249.9,107.5 L241.9,90.3 L248.8,87.7 L254.1,105.9 L254.2,106.2 C254.5,107.4 253.9,108.6 252.7,109 C251.8,109.3 250.9,109 250.4,108.3 L234,89.4 L234.9,88.6 L234.9,88.6 Z" id="Shape" fill="#000000"></path>
                            <g transform="translate(86.000000, 135.000000)" fill="#000000">
                                <circle id="Oval" cx="4.2" cy="10.1" r="4.2"></circle>
                                <polygon id="Shape" points="3.7 10.2 1 1.2 3.6 0.7 4.8 10"></polygon>
                            </g>
                        </g>
                    </g>
                </g>
            </g>
        </g>
    </g>
</svg>