<svg xmlns="http://www.w3.org/2000/svg" xmlns:xlink="http://www.w3.org/1999/xlink" width="313" height="314" viewBox="0 0 313 314">
  <defs>
    <polyline id="logo-a" points="24.454 91.423 .029 14.013 61.375 .974 85.801 78.384 24.454 91.423"/>
    <polyline id="logo-c" points="25.226 92.656 .349 13.813 62.738 .551 87.616 79.395 25.226 92.656"/>
    <polygon id="logo-e" points=".257 .729 13.876 .729 13.876 11 .257 11"/>
  </defs>
  <g fill="none" fill-rule="evenodd">
    <path fill="#433D3C" d="M312.047 212.077C312.047 212.077 309.428 214.13 305.497 217.212 301.579 220.309 296.373 224.469 291.04 228.498 285.704 232.522 280.195 236.361 275.876 238.998 274.805 239.669 273.81 240.265 272.913 240.774 272.023 241.294 271.247 241.747 270.59 242.091 269.285 242.798 268.54 243.203 268.54 243.203L266.862 239.743C266.862 239.743 267.604 239.397 268.899 238.792 269.552 238.499 270.329 238.104 271.222 237.654 272.119 237.213 273.12 236.692 274.203 236.101 278.563 233.789 284.213 230.338 289.744 226.667 295.273 222.991 300.717 219.154 304.816 216.295 308.928 213.454 311.669 211.558 311.669 211.558L312.047 212.077M42.05 241.407C42.05 241.407 41.337 241.017 40.088 240.336 39.467 240.007 38.701 239.558 37.824 239.038 36.938 238.529 35.962 237.937 34.925 237.271 33.871 236.623 32.761 235.878 31.586 235.092 30.409 234.31 29.201 233.443 27.944 232.558 25.449 230.763 22.846 228.786 20.275 226.775 15.149 222.737 10.15 218.58 6.359 215.52 2.574 212.452 0 210.472 0 210.472L.375 209.954C.375 209.954 3.075 211.776 7.049 214.611 11.029 217.437 16.278 221.281 21.605 224.969 24.275 226.804 26.966 228.597 29.524 230.21 30.811 231.001 32.047 231.778 33.242 232.469 34.436 233.166 35.562 233.825 36.623 234.389 37.675 234.977 38.644 235.485 39.504 235.912 40.359 236.35 41.107 236.731 41.764 237.028 43.052 237.631 43.788 237.976 43.788 237.976L42.05 241.407M81.356 223.163C83.488 224.746 85.52 225.801 87.454 226.337 91.378 227.424 94.648 227.648 97.233 227.074 99.815 226.498 101.76 225.257 103.051 223.393 104.348 221.526 105.103 218.997 105.331 215.818 105.568 212.533 105.141 209.77 104.07 207.515 102.578 204.403 100.684 202.098 98.377 200.575 96.068 199.049 92.552 197.682 87.834 196.335 85.743 195.736 84.283 195.454 83.46 195.518 83.253 197.607 83.046 199.695 82.839 201.784 82.574 204.292 82.308 206.799 82.042 209.307 81.704 213.228 81.367 217.149 81.031 221.07 81.011 221.627 81.12 222.322 81.356 223.163zM83.955 190.527C85.249 191.129 86.793 191.69 88.578 192.198 93.543 193.61 97.405 193.606 100.113 192.334 102.825 191.054 104.349 188.067 104.697 183.42 104.943 180.137 103.947 177.139 101.748 174.382 99.547 171.625 96.084 169.653 91.355 168.319 90.005 167.937 88.187 167.605 85.909 167.297 85.831 168.078 85.752 169.207 85.671 170.688 85.544 173.623 85.228 177.689 84.712 182.885 84.555 184.307 84.397 185.729 84.239 187.151 84.165 187.897 84.067 189.023 83.955 190.527zM56.301 220.883C56.505 219.551 56.709 218.218 56.913 216.885 57.744 217.001 58.741 217.2 59.904 217.468 62.127 218.004 63.969 218.223 65.42 218.149 65.982 217.544 66.371 216.91 66.589 216.248 67.076 214.454 67.536 211.716 67.961 208.034 68.757 200.842 69.554 193.651 70.351 186.461 70.607 184.23 71.166 178.361 72.036 168.859 72.267 166.302 72.29 164.675 72.107 163.976 72.039 163.739 71.899 163.514 71.692 163.298 71.231 162.745 70.31 162.178 68.93 161.592 68.334 161.333 66.81 160.573 64.377 159.257 64.48 158.045 64.585 156.831 64.689 155.618 68.195 156.916 71.721 158.14 75.265 159.293 80.442 160.912 85.657 162.375 90.9 163.683 91.524 163.844 92.149 164.003 92.774 164.16 93.164 164.234 93.547 164.324 93.932 164.429 94.254 164.517 95.102 164.766 96.479 165.165 97.505 165.435 98.533 165.7 99.563 165.96 102.011 166.542 104.638 167.57 107.46 169.027 108.442 169.524 109.731 170.382 111.329 171.598 112.928 172.812 114.299 174.208 115.441 175.793 116.584 177.38 117.406 179.062 117.897 180.847 118.39 182.634 118.581 184.468 118.471 186.354 118.349 188.445 117.789 190.245 116.787 191.744 115.787 193.242 114.319 194.524 112.387 195.565 111.404 196.065 109.17 196.774 105.67 197.603 110.641 199.878 114.387 202.731 116.887 206.311 119.382 209.889 120.556 213.556 120.348 217.368 120.224 219.631 119.665 221.93 118.659 224.254 117.93 225.999 116.772 227.535 115.179 228.845 113.072 230.582 110.866 231.756 108.578 232.375 106.288 232.988 103.16 233.222 99.204 232.994 97.23 232.879 94.253 232.343 90.3 231.295 87.36 230.445 84.428 229.55 81.508 228.611 77.79 227.503 73.365 226.283 68.249 224.853 66.812 224.415 62.801 223.201 56.301 220.883zM149.722 207.706C157.767 207.893 162.517 207.729 163.959 207.689 164.39 207.656 164.819 207.622 165.25 207.587 164.176 204.564 162.791 201.039 161.121 197.001 159.453 192.963 158.119 189.873 157.101 187.75 154.698 194.432 152.238 201.086 149.722 207.706zM124.526 235.417C124.599 234.25 124.671 233.083 124.744 231.917 125.42 231.773 126.613 231.628 128.317 231.457 131.053 231.164 132.711 230.805 133.304 230.432 133.899 230.056 134.635 229.102 135.509 227.57 139.244 218.678 142.872 209.717 146.393 200.693 150.522 190.082 154.503 179.383 158.333 168.606 159.427 168.587 160.469 168.561 161.464 168.533 162.209 168.51 162.955 168.486 163.7 168.459 163.853 168.762 164.004 169.067 164.155 169.371 167.108 176.357 170.133 183.296 173.228 190.186 175.322 194.558 177.238 198.795 178.969 202.903 180.701 207.012 182.211 210.34 183.477 212.905 184.223 214.451 185.26 216.777 186.598 219.871 187.288 221.554 188.331 223.647 189.735 226.135 190.494 227.496 191.063 228.27 191.419 228.465 192.074 228.9 193.119 229.112 194.55 229.087 195.978 229.064 197.536 229.236 199.221 229.6 199.452 230.707 199.586 231.535 199.612 232.084 199.626 232.323 199.624 232.705 199.618 233.224 197.008 233.627 194.124 233.914 190.968 234.066 187.81 234.222 184.972 234.405 182.459 234.647 179.658 234.919 177.637 235.11 176.398 235.275 173.387 235.66 170.37 236.001 167.352 236.295 166.48 236.37 165.609 236.441 164.738 236.509 164.723 235.301 164.762 234.147 164.854 233.041 166.814 232.552 168.772 232.045 170.727 231.517 172.484 230.968 173.501 230.552 173.777 230.292 174.121 229.923 174.289 229.512 174.279 229.067 174.268 228.618 174.169 228.161 173.98 227.69 173.243 226.051 172.51 224.41 171.78 222.766 170.337 219.476 168.908 216.175 167.495 212.865 160.885 213.166 154.267 213.245 147.653 213.102 146.907 214.74 145.357 218.761 142.937 225.124 142.25 226.927 141.897 228.155 141.89 228.809 141.88 229.704 142.116 230.353 142.608 230.749 143.412 231.431 144.963 231.95 147.263 232.271 147.58 232.346 148.833 232.565 151.034 232.89 151.063 234.132 151.079 234.994 151.078 235.476 151.076 235.856 151.042 236.253 150.971 236.665 148.764 236.636 143.493 236.326 135.198 235.258 134.467 235.336 133.736 235.409 133.005 235.481 130.371 235.718 127.861 235.723 125.485 235.505 125.166 235.476 124.846 235.447 124.526 235.417zM238.719 159.027C239.167 160.06 239.66 161.69 240.193 163.923 240.989 167.255 241.508 169.881 241.741 171.803 241.814 172.411 241.829 173.093 241.787 173.849 241.633 173.959 241.479 174.069 241.325 174.178 240.163 174.523 239 174.861 237.834 175.19 237.638 175.225 237.441 175.26 237.244 175.295 235.315 171.339 233.573 168.798 231.994 167.681 229.27 165.793 226.285 165.363 222.988 166.361 219.854 167.309 217.438 168.883 215.737 171.149 214.039 173.41 213.29 175.824 213.514 178.418 213.7 180.598 214.813 182.458 216.861 183.962 218.875 185.466 222.968 186.324 229.114 186.253 231.175 186.228 233.689 186.417 236.663 186.781 239.638 187.147 241.951 187.821 243.605 188.859 245.812 190.221 247.403 191.707 248.383 193.357 249.356 195.005 250.035 197.272 250.402 200.167 250.803 203.329 250.626 206.673 249.842 210.192 249.409 212.052 248.584 213.984 247.349 215.962 246.461 217.355 245.039 219.127 243.063 221.259 241.085 223.392 238.975 225.149 236.729 226.525 234.485 227.896 231.535 229.165 227.881 230.252 225.467 230.969 222.545 231.457 219.123 231.671 216.99 231.628 214.858 231.56 212.726 231.469 210.949 231.414 209.821 231.238 209.339 230.967 209.155 230.872 208.973 230.584 208.797 230.103 208.782 229.915 208.768 229.727 208.754 229.539 208.724 229.164 208.459 226.839 207.963 222.577 207.725 220.372 207.571 218.806 207.502 217.885 207.453 217.236 207.404 216.587 207.354 215.937 208.942 215.539 210.527 215.128 212.109 214.705 214.053 218.105 215.31 220.126 215.853 220.79 217.063 222.261 218.36 223.364 219.742 224.092 221.124 224.819 222.739 225.251 224.581 225.368 226.422 225.49 228.389 225.228 230.477 224.584 232.317 224.014 234.311 222.979 236.434 221.464 238.556 219.949 240.177 218.058 241.304 215.811 242.433 213.565 242.864 211.423 242.63 209.394 242.336 206.891 240.915 204.999 238.382 203.666 236.837 202.82 232.884 202.384 226.524 202.043 220.161 201.687 215.716 200.803 213.196 199.673 210.673 198.538 208.613 196.652 207.02 194.048 205.428 191.446 204.542 188.782 204.34 186.083 203.936 180.642 205.472 175.622 208.852 170.926 212.235 166.222 217.446 162.94 224.495 160.753 226.021 160.277 228.302 159.856 231.334 159.426 233.173 159.154 235.634 159.038 238.719 159.027"/>
    <polyline fill="#CFCEC9" points="20.178 66.586 64.346 53.894 287.739 30.989 285.701 24.277 28 53.333 20.178 66.586"/>
    <path fill="#433D3C" d="M21.115,60.282 C22.736,58.97 24.571,57.561 26.715,56.252 C27.262,55.944 27.82,55.63 28.389,55.311 C28.984,55.04 29.578,54.736 30.207,54.479 C31.455,54.001 32.895,53.596 34.283,53.505 C39.87,52.871 46.174,52.155 53.051,51.374 C80.56,48.251 117.237,44.086 153.915,39.922 C190.592,35.757 227.27,31.593 254.777,28.469 C261.654,27.689 267.958,26.973 273.546,26.339 C279.128,25.721 284.008,25.044 288.066,24.987 C290.093,24.942 291.91,24.991 293.494,25.258 C294.283,25.402 295.024,25.57 295.669,26.001 C295.802,26.107 295.941,26.23 296.062,26.372 C296.375,23.651 288.324,23.598 288.324,23.598 C288.324,23.598 73.088,45.756 33.628,51.662 C30.727,52.096 26.332,53.578 23.338,56.145 C20.357,58.702 16.557,62.43 14.544,66.232 C16.108,64.693 18.266,62.615 21.115,60.282"/>
    <path fill="#433D3C" d="M291.672,31.783 C293.957,30.443 295.198,29.366 295.737,28.497 C295.723,28.262 295.604,28.041 295.329,27.85 C294.842,27.517 294.135,27.336 293.387,27.206 C291.873,26.951 290.075,26.902 288.071,26.95 C284.054,27.011 279.202,27.69 273.61,28.315 C268.023,28.958 261.721,29.681 254.844,30.471 C227.34,33.63 190.667,37.842 153.995,42.054 C117.323,46.267 80.65,50.479 53.146,53.638 C46.27,54.427 39.967,55.151 34.38,55.793 C31.618,56.018 29.261,57.155 27.167,58.427 C25.081,59.702 23.276,61.092 21.68,62.388 C18.495,65.001 16.171,67.305 14.589,68.872 C14.214,69.252 13.883,69.587 13.593,69.881 C12.418,76.058 30.436,75.244 30.436,75.244 C30.436,75.244 237.038,48.004 248.396,46.905 C262.682,45.522 279.083,39.168 291.672,31.783"/>
    <path fill="#433D3C" d="M238.512,41.552 C242.686,45.737 246.249,49.16 239.087,60.421 C239.087,60.421 201.43,86.529 193.07,91.606 C191.534,92.538 189.894,93.256 188.167,93.753 C174.862,97.582 110.157,120.17 99.038,125.408 C90.45,129.453 80.192,129.501 78.19,126.297 C76.188,123.094 74.186,114.685 73.385,105.476 C72.759,98.278 71.644,84.231 71.187,78.438 C71.039,76.563 72.286,74.866 74.12,74.451 C77.329,73.724 82.52,74.445 87.399,83.453 C96.703,100.625 99.264,101.285 99.022,100.085 C98.752,98.742 99.123,97.359 100.211,96.528 C100.211,96.528 123.614,93.677 141.364,66.535 C151.998,50.276 175.825,36.563 179.402,34.815 C183.084,33.016 192.787,33.631 197.809,32.737 C203.25,31.769 207.385,39.518 212.701,39.187 C230.404,38.084 233.432,36.458 238.512,41.552"/>
    <polyline fill="#CFCEC9" points="21.894 108.542 66.062 95.85 289.455 72.945 287.424 65.563 37.89 92.645 27.479 97.21 21.894 108.542"/>
    <path fill="#433D3C" d="M82.899,124.037 L94.912,114.827 C94.912,114.827 94.512,109.621 90.507,110.422 C86.503,111.223 44.46,115.361 35.25,120.967 C26.04,126.573 38.854,125.772 38.854,125.772 C38.854,125.772 74.491,122.435 82.899,124.037"/>
    <path fill="#CFCEC9" d="M82.862,124.233 C80.423,123.852 77.907,123.875 75.418,123.88 C72.923,123.908 70.427,124.002 67.932,124.123 C62.942,124.369 57.956,124.733 52.974,125.132 L45.502,125.748 L41.769,126.084 L39.903,126.259 L38.972,126.35 C38.611,126.378 38.32,126.386 37.993,126.396 C36.718,126.425 35.443,126.405 34.14,126.206 C33.486,126.089 32.826,125.971 32.129,125.561 C31.798,125.358 31.375,124.967 31.303,124.38 C31.242,123.808 31.476,123.391 31.678,123.076 C32.573,121.865 33.671,121.218 34.743,120.509 C35.869,119.822 37.062,119.304 38.253,118.856 C40.646,117.971 43.081,117.316 45.528,116.726 C47.976,116.14 50.435,115.628 52.899,115.16 C57.828,114.22 62.777,113.429 67.733,112.702 C72.689,111.974 77.653,111.321 82.616,110.686 C85.084,110.362 87.608,110.07 90.011,109.699 C90.568,109.598 91.433,109.429 92.186,109.643 C92.969,109.813 93.678,110.301 94.129,110.898 C95.032,112.107 95.262,113.496 95.112,114.811 L95.121,114.919 L82.954,124.248 L82.862,124.233 Z M82.841,123.829 L94.79,114.668 L94.712,114.842 L94.712,114.841 C94.273,113.695 93.771,112.564 93.038,111.857 C92.293,111.144 91.5,110.997 90.293,111.27 C87.751,111.653 85.304,111.923 82.812,112.241 C77.85,112.857 72.893,113.489 67.949,114.196 C63.005,114.902 58.07,115.672 53.169,116.587 C50.718,117.043 48.277,117.542 45.858,118.111 C43.444,118.691 41.031,119.303 38.721,120.129 C37.567,120.548 36.454,121.021 35.436,121.625 C34.419,122.256 33.333,122.966 32.733,123.782 C32.593,123.978 32.538,124.167 32.553,124.227 C32.551,124.277 32.609,124.381 32.798,124.506 C33.178,124.746 33.769,124.897 34.34,124.995 C35.508,125.189 36.744,125.228 37.968,125.213 C38.266,125.208 38.6,125.2 38.863,125.182 L39.799,125.103 L41.67,124.948 L45.413,124.655 L52.902,124.124 C57.898,123.814 62.898,123.562 67.904,123.415 C70.407,123.345 72.912,123.302 75.418,123.326 C77.891,123.373 80.372,123.402 82.841,123.829 Z"/>
    <path fill="#433D3C" d="M25.23,101.422 C26.87,100.087 28.726,98.651 30.895,97.319 C31.448,97.006 32.013,96.686 32.589,96.36 C33.191,96.085 33.792,95.776 34.427,95.514 C35.69,95.026 37.147,94.615 38.552,94.522 C44.205,93.876 50.583,93.147 57.54,92.352 C85.371,89.171 122.478,84.93 159.586,80.689 C196.693,76.448 233.801,72.206 261.631,69.026 C268.589,68.23 274.967,67.501 280.62,66.855 C286.267,66.227 291.204,65.537 295.311,65.479 C297.36,65.433 299.199,65.482 300.802,65.755 C301.6,65.901 302.35,66.072 303.002,66.511 C303.136,66.619 303.277,66.744 303.398,66.889 C303.717,64.119 295.571,64.064 295.571,64.064 C295.571,64.064 77.812,86.632 37.89,92.645 C34.954,93.087 30.507,94.597 27.479,97.21 C24.462,99.813 20.618,103.609 18.581,107.479 C20.164,105.912 22.347,103.797 25.23,101.422"/>
    <path fill="#433D3C" d="M298.957 72.397C301.27 71.033 302.525 69.937 303.07 69.052 303.057 68.813 302.937 68.588 302.657 68.393 302.165 68.054 301.449 67.869 300.692 67.737 299.161 67.479 297.343 67.428 295.315 67.478 291.25 67.54 286.342 68.231 280.685 68.868 275.032 69.522 268.655 70.259 261.698 71.064 233.872 74.281 196.77 78.57 159.667 82.86 122.565 87.15 85.462 91.439 57.636 94.656 50.679 95.46 44.302 96.198 38.65 96.852 35.855 97.081 33.471 98.238 31.352 99.533 29.243 100.832 27.416 102.247 25.801 103.566 22.579 106.227 20.227 108.573 18.627 110.167 18.247 110.554 17.913 110.896 17.619 111.195 16.43 117.483 31.608 115.631 31.608 115.631 31.608 115.631 245.717 86.868 257.208 85.748 271.661 84.339 286.221 79.917 298.957 72.397M201.853 32.604C201.286 32.115 201.11 32.378 200.368 32.464L181.368 34.495C181.191 34.515 181.027 34.55 180.858 34.604 179.524 35.028 173.943 37.126 177.131 41.73L183.343 48.075C184.324 49.239 186.09 49.365 187.192 48.315 194.128 41.699 199.72 40.651 201.978 39.804"/>
    <path fill="#CFCEC9" d="M201.517,33.017 C201.364,33.14 201.297,33.159 201.249,33.154 C201.215,33.153 201.227,33.148 201.278,33.038 C201.339,32.921 201.41,32.746 201.434,32.636 C201.452,32.534 201.416,32.53 201.398,32.487 C201.335,32.462 201.271,32.523 201.213,32.517 C201.198,32.508 201.179,32.477 201.158,32.453 C201.147,32.437 201.139,32.436 201.13,32.44 C201.127,32.452 201.117,32.413 201.12,32.471 C201.129,32.562 201.136,32.635 201.133,32.639 C201.105,32.678 201.076,32.696 201.045,32.729 C200.751,32.805 200.345,32.823 200.049,32.859 L198.122,33.065 L194.271,33.477 L186.567,34.301 L182.715,34.712 C182.083,34.804 181.394,34.8 180.872,34.964 C180.281,35.162 179.7,35.41 179.152,35.705 C178.072,36.291 177.049,37.112 176.676,38.207 C176.494,38.748 176.494,39.334 176.653,39.898 C176.803,40.466 177.096,41.007 177.446,41.511 L177.405,41.461 L183.646,47.778 L183.656,47.789 L183.667,47.802 C184.158,48.383 184.947,48.682 185.694,48.575 C186.064,48.518 186.418,48.371 186.714,48.144 C186.999,47.901 187.36,47.551 187.68,47.26 C188.004,46.952 188.343,46.651 188.696,46.357 C189.046,46.065 189.386,45.755 189.748,45.482 C190.457,44.912 191.192,44.375 191.94,43.856 C193.445,42.828 195.042,41.928 196.709,41.178 C197.541,40.8 198.393,40.464 199.252,40.165 C200.105,39.86 200.986,39.6 201.791,39.306 L202.165,40.303 C201.278,40.615 200.432,40.854 199.591,41.145 C198.75,41.427 197.926,41.743 197.117,42.1 C195.5,42.808 193.945,43.662 192.473,44.645 C191.739,45.143 191.019,45.658 190.321,46.207 C189.963,46.471 189.635,46.764 189.293,47.044 C188.952,47.32 188.615,47.612 188.285,47.921 C187.937,48.23 187.654,48.506 187.252,48.843 C186.833,49.161 186.33,49.365 185.812,49.438 C184.771,49.58 183.686,49.152 183.02,48.348 L183.04,48.372 L176.856,41.998 L176.832,41.973 L176.814,41.948 C176.435,41.391 176.104,40.777 175.927,40.092 C175.74,39.413 175.74,38.654 175.979,37.97 C176.219,37.286 176.653,36.704 177.157,36.24 C177.659,35.768 178.23,35.399 178.818,35.083 C179.411,34.77 180.022,34.514 180.658,34.306 C180.976,34.183 181.378,34.123 181.676,34.101 L182.639,33.998 L186.49,33.586 L198.046,32.35 L199.972,32.144 C200.318,32.122 200.554,32.057 200.888,31.974 C200.934,31.989 200.985,31.994 201.037,32.02 C201.044,32.022 201.061,32.093 201.079,32.183 C201.093,32.239 201.093,32.199 201.1,32.211 C201.111,32.212 201.122,32.209 201.132,32.191 C201.15,32.161 201.172,32.126 201.198,32.118 C201.301,32.103 201.399,32.185 201.488,32.212 C201.55,32.191 201.585,32.224 201.677,32.156 C201.772,32.082 201.912,31.951 202.042,31.876 C202.159,31.813 202.237,31.852 202.268,31.9 C202.282,31.946 202.277,32.016 202.188,32.19 L201.517,33.017"/>
    <path fill="#433D3C" d="M246.748,50.027 C246.748,59.783 240.035,66.687 230.279,66.687 C220.523,66.687 212.614,58.777 212.614,49.021 C212.614,39.265 220.523,31.356 230.279,31.356 C240.035,31.356 246.748,40.271 246.748,50.027"/>
    <polyline fill="#433D3C" points="95.895 114.529 85.204 114.529 82.183 124.106 94.195 125.812 95.895 114.529"/>
    <path fill="#FFFFFE" d="M184.307 36.931C184.307 36.931 184.099 37.359 183.787 38.001 183.487 38.632 183.108 39.449 182.982 40.286 182.845 41.131 182.945 42.031 183.005 42.761 183.063 43.475 183.103 43.951 183.103 43.951 183.127 44.243 182.909 44.499 182.617 44.523 182.335 44.546 182.087 44.343 182.049 44.065 182.049 44.065 181.984 43.592 181.888 42.883 181.798 42.194 181.618 41.183 181.73 40.126 181.838 39.057 182.233 38.099 182.51 37.425 182.792 36.765 182.98 36.324 182.98 36.324 183.139 35.954 183.567 35.782 183.938 35.94 184.309 36.098 184.48 36.527 184.322 36.897 184.317 36.907 184.312 36.922 184.307 36.931M186.708 38.374C186.708 38.374 186.545 38.692 186.353 39.126 186.164 39.556 185.969 40.176 185.886 40.811 185.793 41.455 185.824 42.077 185.878 42.593 185.921 43.102 185.95 43.44 185.95 43.44 185.966 43.624 185.829 43.786 185.646 43.802 185.467 43.817 185.31 43.688 185.286 43.513 185.286 43.513 185.241 43.175 185.175 42.67 185.099 42.176 185.024 41.433 185.098 40.723 185.158 40.004 185.342 39.306 185.538 38.792 185.737 38.285 185.873 37.991 185.873 37.991L185.883 37.97C185.989 37.74 186.263 37.64 186.493 37.746 186.724 37.853 186.823 38.126 186.717 38.357 186.714 38.362 186.711 38.369 186.708 38.374"/>
    <path fill="#433D3C" d="M172.64,54.356 C173.171,55.573 172.692,56.994 171.534,57.644 L160.743,67.075 C159.696,67.759 158.29,67.16 158.058,65.932 L157.934,58.175 C157.934,57.047 158.436,55.976 159.304,55.255 L167.761,46.818 C168.418,46.272 169.416,46.508 169.758,47.292 L172.64,54.356"/>
    <path fill="#CFCEC9" d="M172.242,54.423 L170.313,49.901 L169.332,47.599 C169.257,47.415 169.211,47.352 169.113,47.254 C169.023,47.171 168.912,47.109 168.792,47.077 C168.55,47.011 168.29,47.068 168.104,47.231 L168.141,47.198 L163.91,51.415 C162.483,52.804 161.03,54.166 159.558,55.508 L159.533,55.53 C158.859,56.026 158.354,56.794 158.213,57.653 C158.173,57.856 158.155,58.085 158.154,58.305 L158.146,58.999 L158.19,65.929 L158.188,65.907 C158.279,66.431 158.643,66.905 159.143,67.108 C159.637,67.32 160.228,67.265 160.672,66.967 L160.658,66.978 L166.04,62.246 C167.825,60.659 169.595,59.054 171.351,57.433 L171.365,57.419 L171.397,57.4 C171.884,57.107 172.245,56.636 172.401,56.106 C172.48,55.841 172.51,55.564 172.488,55.293 C172.476,55.157 172.452,55.022 172.42,54.894 C172.39,54.786 172.341,54.65 172.273,54.495 L172.242,54.423 Z M173.005,54.217 C173.059,54.355 173.112,54.519 173.156,54.72 C173.191,54.901 173.212,55.08 173.217,55.261 C173.223,55.623 173.162,55.983 173.039,56.32 C172.795,56.994 172.294,57.563 171.671,57.887 L171.718,57.854 C169.877,59.377 168.049,60.916 166.237,62.472 L160.827,67.171 L160.82,67.177 L160.813,67.183 C160.297,67.523 159.61,67.581 159.047,67.333 C158.482,67.092 158.041,66.568 157.927,65.957 L157.925,65.946 L157.925,65.934 L157.746,59.005 L157.716,58.312 C157.703,58.071 157.706,57.836 157.738,57.583 C157.856,56.608 158.328,55.665 159.075,54.979 L159.051,55.001 C160.396,53.531 161.763,52.081 163.155,50.658 L167.381,46.438 L167.397,46.422 L167.417,46.404 C167.87,46.024 168.524,45.898 169.082,46.071 C169.362,46.154 169.623,46.306 169.832,46.512 C170.039,46.702 170.206,47.009 170.276,47.214 L171.187,49.545 L173.001,54.208 L173.005,54.217 Z"/>
    <polyline fill="#433D3C" points="239.342 64.261 187.151 72.818 194.033 83.241 199.503 81.275 219.979 81.478 215.116 76.874 239.342 64.261"/>
    <polyline fill="#433D3C" points="76.315 90.174 62.538 62.901 65.753 61.324 78.887 88.913 76.315 90.174"/>
    <path stroke="#CFCEC9" stroke-linecap="round" stroke-linejoin="round" stroke-width="1.023" d="M78.397,88.473 L66.36,62.112"/>
    <polyline fill="#433D3C" points="72.973 88.188 81.33 87.211 78.885 89.735 72.973 88.188"/>
    <polyline fill="#433D3C" points="261.195 68.468 246.684 39.696 249.898 38.119 263.768 67.207 261.195 68.468"/>
    <path stroke="#CFCEC9" stroke-linecap="round" stroke-linejoin="round" stroke-width="1.023" d="M263.922,67.99 L250.505,38.907"/>
    <polyline fill="#433D3C" points="262.271 67.543 266.521 67.097 263.922 68.764 262.271 67.543"/>
    <polyline fill="#433D3C" points="222.889 33.156 200.07 36.628 211.678 41.254 222.889 34.402 222.889 33.156"/>
    <g transform="translate(187)">
      <mask id="logo-b" fill="#fff">
        <use xlink:href="#logo-a"/>
      </mask>
      <path fill="#FFFFFE" d="M31.239,7.379 L31.25,7.378 C31.258,7.376 31.256,7.376 31.239,7.379 M17.503,51.169 L17.481,51.101 L17.443,50.956 L17.361,50.668 L17.195,50.09 L16.87,48.927 L16.54,47.773 L16.304,46.599 L15.844,44.267 L15.557,41.925 C15.511,41.539 15.438,41.149 15.425,40.765 L15.377,39.605 C15.36,38.835 15.28,38.05 15.308,37.289 C15.37,35.763 15.392,34.238 15.638,32.764 C15.766,31.26 16.18,29.867 16.479,28.427 C16.945,27.068 17.302,25.651 17.929,24.402 C18.44,23.078 19.19,21.928 19.857,20.725 C20.666,19.653 21.388,18.491 22.338,17.579 C23.194,16.55 24.247,15.777 25.229,14.939 C25.759,14.574 26.317,14.249 26.853,13.901 C27.121,13.745 27.39,13.535 27.661,13.414 L28.494,13.03 L29.319,12.648 C29.578,12.511 29.854,12.381 30.202,12.289 C30.869,12.093 31.524,11.891 32.181,11.689 L32.555,11.573 L33.025,11.5 L33.956,11.347 C34.581,11.259 35.19,11.094 35.831,11.11 C36.462,11.093 37.091,11.068 37.713,11.052 C38.336,11.037 38.965,11.146 39.588,11.185 C40.84,11.225 42.066,11.585 43.282,11.804 C43.885,11.937 44.472,12.181 45.07,12.351 C45.654,12.559 46.255,12.684 46.811,12.961 C47.937,13.478 49.077,13.884 50.117,14.527 C54.375,16.826 57.896,19.866 60.597,22.91 C63.306,25.98 65.274,29.008 66.578,31.629 C66.901,32.28 67.268,32.886 67.512,33.473 C67.764,34.059 67.994,34.604 68.214,35.115 C68.434,35.626 68.641,36.096 68.826,36.524 C68.982,36.995 69.134,37.422 69.265,37.808 C69.711,39.109 69.976,39.893 70.046,40.101 C70.078,40.23 70.276,41.01 70.628,42.369 C70.72,42.737 70.834,43.153 70.946,43.615 C71.032,44.074 71.124,44.577 71.219,45.115 C71.308,45.663 71.415,46.243 71.521,46.868 C71.631,47.484 71.655,48.145 71.735,48.848 C72.054,51.633 72.034,55.021 71.449,58.71 C70.871,62.397 69.575,66.38 67.233,69.992 C66.712,70.939 65.965,71.728 65.286,72.602 C64.969,73.056 64.523,73.394 64.138,73.791 C63.729,74.166 63.365,74.603 62.919,74.94 C62.004,75.594 61.162,76.376 60.126,76.884 C59.624,77.153 59.124,77.503 58.614,77.719 C58.105,77.935 57.593,78.143 57.076,78.361 C56.624,78.601 55.882,78.74 55.252,78.919 L54.264,79.183 L53.862,79.291 C53.868,79.288 53.869,79.287 53.861,79.287 L53.799,79.3 L53.687,79.316 L53.45,79.338 C52.839,79.415 52.222,79.501 51.594,79.58 C50.974,79.685 50.318,79.599 49.681,79.618 C49.031,79.63 48.39,79.64 47.728,79.529 C47.069,79.435 46.415,79.376 45.747,79.275 C44.424,78.953 43.079,78.726 41.758,78.197 C40.41,77.799 39.119,77.102 37.794,76.51 C36.516,75.747 35.2,75.082 33.979,74.153 C32.699,73.336 31.553,72.275 30.344,71.308 C29.238,70.193 28.058,69.157 27.041,67.924 C25.94,66.772 25.011,65.466 24.03,64.19 C23.553,63.553 23.146,62.848 22.7,62.177 L22.035,61.158 C21.819,60.816 21.646,60.457 21.451,60.103 L20.283,57.966 L19.319,55.84 L18.824,54.775 L18.373,53.557 L17.52,51.23 C17.52,51.227 17.517,51.214 17.513,51.202 C17.509,51.188 17.502,51.167 17.502,51.167 C17.502,51.167 17.502,51.167 17.503,51.169 M31.25,7.378 C31.22,7.387 31.054,7.428 31.054,7.428 L30.991,7.441 L30.868,7.476 L30.62,7.538 C29.956,7.715 29.289,7.884 28.617,8.063 C28.288,8.133 27.931,8.272 27.567,8.421 L26.483,8.858 L25.396,9.315 C25.026,9.465 24.724,9.673 24.387,9.853 C23.736,10.234 23.066,10.602 22.425,11.008 C21.212,11.941 19.941,12.823 18.891,13.973 C17.729,15.012 16.824,16.312 15.833,17.548 C14.995,18.896 14.086,20.232 13.437,21.73 C12.669,23.171 12.193,24.766 11.612,26.32 C11.213,27.944 10.708,29.555 10.502,31.263 C10.17,32.945 10.083,34.682 9.961,36.418 C9.91,37.293 9.965,38.182 9.959,39.065 L9.984,40.391 C9.989,40.831 10.054,41.276 10.085,41.72 L10.353,44.399 L10.827,47.07 L11.083,48.411 L11.425,49.733 L12.178,52.516 L13.033,54.962 L13.461,56.185 L14.028,57.505 L15.19,60.128 L16.515,62.601 C16.745,63.011 16.943,63.428 17.194,63.825 L17.943,65.006 C18.458,65.788 18.923,66.598 19.479,67.353 C20.597,68.853 21.686,70.367 22.962,71.734 C24.145,73.174 25.543,74.398 26.856,75.694 C28.286,76.857 29.653,78.087 31.185,79.067 C32.648,80.151 34.236,80.992 35.79,81.859 C37.406,82.578 38.989,83.375 40.646,83.851 C42.271,84.468 43.943,84.752 45.578,85.106 C46.406,85.21 47.229,85.269 48.037,85.34 C48.857,85.444 49.653,85.419 50.454,85.384 C51.244,85.342 52.053,85.386 52.813,85.251 C53.577,85.125 54.344,85.007 55.1,84.883 L55.38,84.841 L55.521,84.811 L55.594,84.805 C55.588,84.806 55.804,84.749 55.832,84.743 C55.839,84.741 55.834,84.743 55.811,84.75 L56.3,84.601 L57.27,84.305 C57.93,84.092 58.529,83.974 59.263,83.62 C59.96,83.31 60.649,83.001 61.339,82.693 C62.015,82.369 62.565,81.964 63.179,81.6 C64.41,80.915 65.413,79.955 66.461,79.111 C66.984,78.675 67.403,78.146 67.864,77.669 C68.302,77.172 68.802,76.741 69.165,76.196 C69.924,75.126 70.746,74.15 71.326,73.019 C73.885,68.686 75.117,64.077 75.656,59.922 C76.179,55.742 76.073,51.985 75.631,48.911 C75.521,48.142 75.468,47.415 75.328,46.734 C75.188,46.053 75.055,45.415 74.934,44.82 C74.815,44.233 74.7,43.682 74.593,43.182 C74.451,42.681 74.318,42.232 74.206,41.824 C73.74,40.214 73.484,39.35 73.484,39.35 L73.46,39.274 C73.46,39.274 73.152,38.458 72.59,36.939 C72.443,36.556 72.284,36.131 72.112,35.664 C71.892,35.179 71.651,34.654 71.387,34.081 C71.122,33.507 70.844,32.891 70.539,32.245 C70.24,31.589 69.839,30.954 69.466,30.25 C67.968,27.437 65.789,24.192 62.874,20.815 C59.964,17.456 56.192,13.991 51.467,11.297 C50.313,10.561 49.031,10.051 47.767,9.438 C47.137,9.112 46.455,8.942 45.789,8.688 C45.118,8.47 44.451,8.189 43.755,8.022 C42.36,7.715 40.952,7.286 39.497,7.181 C38.781,7.117 38.043,6.977 37.313,6.97 C36.585,6.972 35.85,6.976 35.106,6.981 C34.357,6.941 33.641,7.085 32.905,7.169 L31.797,7.315 L31.25,7.378" mask="url(#logo-b)"/>
    </g>
    <g transform="translate(186)">
      <mask id="logo-d" fill="#fff">
        <use xlink:href="#logo-c"/>
      </mask>
      <path fill="#433D3C" d="M31.811,7.125 C31.551,7.18 31.438,7.222 31.243,7.264 C30.54,7.449 29.837,7.634 29.128,7.83 C29.108,7.834 29.088,7.838 29.067,7.842 C28.733,7.913 28.405,8.051 28.073,8.198 L27.012,8.631 L25.954,9.072 C25.589,9.212 25.291,9.438 24.955,9.617 C24.297,10 23.626,10.367 22.977,10.776 C21.774,11.715 20.497,12.599 19.44,13.759 C18.273,14.808 17.366,16.126 16.37,17.373 C15.529,18.739 14.612,20.078 13.963,21.602 C13.181,23.046 12.696,24.669 12.105,26.244 C11.706,27.895 11.19,29.526 10.978,31.263 C10.638,32.973 10.561,34.745 10.432,36.509 C10.378,37.402 10.438,38.308 10.435,39.2 L10.452,40.555 C10.46,41.003 10.527,41.457 10.563,41.917 L10.829,44.642 L11.312,47.365 L11.567,48.732 L11.928,50.087 L12.668,52.855 L13.573,55.434 L14.03,56.723 L14.6,58.051 L15.768,60.692 L17.108,63.215 C17.341,63.633 17.542,64.059 17.795,64.464 L18.561,65.669 C19.08,66.468 19.553,67.303 20.112,68.066 C21.248,69.598 22.355,71.145 23.641,72.537 C24.842,74.009 26.254,75.275 27.587,76.585 C29.038,77.761 30.425,79.023 31.977,80.017 C33.456,81.124 35.07,81.969 36.632,82.861 C38.262,83.595 39.862,84.424 41.537,84.905 C43.177,85.538 44.858,85.829 46.51,86.207 C47.34,86.318 48.165,86.386 48.987,86.472 C49.398,86.501 49.807,86.577 50.213,86.563 L51.427,86.538 L52.623,86.509 C53.023,86.505 53.421,86.492 53.809,86.419 C54.582,86.3 55.356,86.18 56.115,86.064 L56.402,86.021 L56.546,85.999 L56.617,85.984 L56.773,85.951 L57.294,85.795 L58.321,85.496 C59.009,85.287 59.678,85.153 60.38,84.806 C61.08,84.505 61.762,84.198 62.445,83.899 C63.125,83.584 63.695,83.166 64.312,82.81 C65.57,82.128 66.596,81.163 67.675,80.313 C68.199,79.878 68.634,79.344 69.11,78.865 C69.563,78.363 70.071,77.931 70.445,77.366 C71.22,76.292 72.07,75.301 72.672,74.157 C75.313,69.743 76.632,65.035 77.198,60.756 C77.744,56.464 77.65,52.587 77.213,49.422 C77.104,48.626 77.05,47.873 76.913,47.173 C76.766,46.466 76.634,45.811 76.516,45.196 C76.39,44.585 76.269,44.016 76.164,43.499 C76.018,42.981 75.887,42.513 75.764,42.098 C75.287,40.427 75.039,39.534 75.039,39.534 L75.018,39.494 C75.018,39.494 74.696,38.635 74.1,37.034 C73.945,36.626 73.772,36.186 73.592,35.693 C73.352,35.195 73.098,34.655 72.83,34.073 C72.547,33.494 72.25,32.873 71.931,32.203 C71.604,31.543 71.18,30.887 70.778,30.171 C70.349,29.47 69.954,28.699 69.442,27.953 C68.928,27.198 68.388,26.413 67.836,25.594 C67.298,24.764 66.598,24.003 65.947,23.161 C65.62,22.735 65.299,22.3 64.94,21.881 C64.569,21.474 64.195,21.058 63.812,20.636 C60.799,17.244 56.97,13.702 52.166,10.997 C50.991,10.248 49.693,9.741 48.413,9.131 C47.772,8.799 47.094,8.637 46.42,8.384 C45.738,8.161 45.071,7.879 44.367,7.714 C42.968,7.418 41.549,6.981 40.088,6.886 C39.365,6.824 38.626,6.684 37.896,6.677 C37.163,6.689 36.428,6.692 35.685,6.697 C34.928,6.66 34.209,6.822 33.474,6.906 L32.364,7.052 L31.811,7.125 M55.532,82.759 L55.412,82.775 L55.155,82.812 C54.473,82.903 53.782,82.996 53.092,83.089 C52.755,83.16 52.394,83.156 52.043,83.158 L50.964,83.163 L49.896,83.173 C49.533,83.188 49.166,83.113 48.805,83.082 C48.071,82.986 47.343,82.933 46.609,82.837 C45.137,82.493 43.636,82.245 42.167,81.675 C40.676,81.246 39.24,80.489 37.763,79.84 C36.348,79.016 34.891,78.272 33.548,77.253 C32.136,76.356 30.873,75.193 29.54,74.126 C28.327,72.908 27.018,71.782 25.898,70.437 C24.688,69.173 23.662,67.753 22.585,66.353 C22.052,65.647 21.611,64.886 21.12,64.153 L20.393,63.039 C20.149,62.668 19.956,62.268 19.742,61.881 L18.463,59.552 L17.381,57.181 L16.83,55.993 L16.365,54.706 L15.42,52.135 C13.415,45.568 12.433,38.451 13.404,31.98 C13.553,30.329 14.003,28.784 14.335,27.211 C14.843,25.716 15.249,24.163 15.94,22.774 C16.512,21.321 17.329,20.04 18.084,18.719 C18.98,17.529 19.791,16.25 20.851,15.232 C21.809,14.102 22.979,13.25 24.081,12.314 C24.676,11.918 25.297,11.551 25.895,11.163 C26.2,10.99 26.486,10.758 26.813,10.626 L27.771,10.189 L28.722,9.753 C29.035,9.605 29.349,9.457 29.715,9.37 C30.41,9.16 31.104,8.949 31.792,8.74 C31.954,8.696 32.182,8.621 32.276,8.601 L32.794,8.518 L33.837,8.35 C34.535,8.256 35.218,8.084 35.93,8.112 C36.634,8.088 37.333,8.075 38.029,8.053 C38.72,8.041 39.427,8.161 40.121,8.211 C41.504,8.269 42.869,8.671 44.213,8.926 C44.887,9.07 45.54,9.336 46.19,9.541 C46.841,9.771 47.503,9.909 48.12,10.219 C49.363,10.792 50.614,11.255 51.757,11.957 C56.424,14.52 60.286,17.848 63.188,21.209 C63.547,21.629 63.905,22.047 64.261,22.458 C64.592,22.873 64.891,23.314 65.206,23.732 C65.787,24.59 66.427,25.372 66.899,26.208 C67.401,27.028 67.877,27.818 68.323,28.569 C68.779,29.327 69.105,30.095 69.471,30.8 C69.812,31.51 70.187,32.168 70.438,32.808 C70.709,33.453 70.948,34.05 71.184,34.612 C71.409,35.167 71.621,35.68 71.82,36.151 C71.987,36.655 72.145,37.099 72.282,37.51 C72.769,38.956 73.058,39.799 73.112,39.959 C73.142,40.073 73.358,40.914 73.75,42.401 C73.859,42.8 73.975,43.244 74.105,43.738 C74.194,44.232 74.291,44.778 74.399,45.358 C74.501,45.949 74.614,46.573 74.736,47.249 C74.862,47.915 74.887,48.63 74.975,49.385 C75.336,52.386 75.336,56.049 74.724,60.049 C74.105,64.033 72.757,68.378 70.236,72.353 C69.668,73.391 68.863,74.264 68.131,75.23 C67.788,75.734 67.303,76.108 66.892,76.555 C66.446,76.974 66.043,77.447 65.561,77.828 C64.562,78.562 63.647,79.432 62.502,80.017 C61.951,80.314 61.414,80.708 60.839,80.956 C60.265,81.204 59.683,81.454 59.089,81.697 C58.552,81.982 57.804,82.132 57.13,82.329 L56.097,82.611 L55.574,82.759 C55.473,82.78 55.645,82.744 55.595,82.745 L55.532,82.759" mask="url(#logo-d)"/>
    </g>
    <path fill="#FFFFFE" d="M229.68,72.944 C229.68,72.944 229.051,72.815 227.984,72.473 C227.441,72.318 226.811,72.072 226.063,71.815 C225.345,71.509 224.494,71.216 223.624,70.786 C223.181,70.578 222.72,70.362 222.242,70.138 C221.776,69.886 221.296,69.626 220.801,69.359 C219.786,68.849 218.818,68.152 217.746,67.5 C217.242,67.129 216.729,66.753 216.21,66.371 C215.685,65.99 215.155,65.595 214.668,65.144 C213.691,64.252 212.544,63.434 211.799,62.28 C211.471,61.676 211.109,61.101 210.833,60.476 C210.563,59.852 210.294,59.231 210.026,58.614 C209.447,57.417 209.142,56.119 208.753,54.933 C208.661,54.635 208.571,54.339 208.481,54.046 C208.405,53.749 208.36,53.444 208.3,53.15 C208.188,52.562 208.08,51.986 207.975,51.426 C207.719,50.324 207.67,49.25 207.606,48.273 C207.559,47.294 207.433,46.418 207.505,45.626 C207.553,44.841 207.596,44.158 207.63,43.595 C207.702,42.486 207.743,41.853 207.743,41.853 C207.745,41.81 207.781,41.776 207.824,41.778 C207.863,41.78 207.894,41.811 207.898,41.849 C207.898,41.849 207.961,42.472 208.071,43.563 C208.126,44.107 208.192,44.769 208.269,45.527 C208.288,45.908 208.378,46.304 208.475,46.721 C208.561,47.139 208.652,47.579 208.747,48.037 C208.933,48.956 209.109,49.957 209.492,50.963 C209.659,51.473 209.832,51.996 210.008,52.531 C210.1,52.797 210.176,53.072 210.283,53.338 C210.402,53.599 210.523,53.863 210.646,54.128 C211.155,55.181 211.573,56.324 212.253,57.352 C212.566,57.879 212.883,58.411 213.199,58.945 C213.517,59.48 213.927,59.955 214.279,60.469 C214.673,61.737 215.707,62.531 216.482,63.486 C216.879,63.96 217.321,64.383 217.765,64.797 C218.203,65.214 218.636,65.625 219.062,66.03 C219.983,66.759 220.813,67.541 221.709,68.143 C222.146,68.458 222.571,68.764 222.982,69.06 C223.409,69.332 223.821,69.595 224.218,69.847 C224.999,70.37 225.773,70.753 226.43,71.141 C227.112,71.48 227.695,71.802 228.198,72.019 C229.188,72.487 229.776,72.692 229.776,72.692 C229.846,72.716 229.883,72.793 229.858,72.862 C229.837,72.927 229.771,72.964 229.705,72.95 L229.68,72.944"/>
    <path stroke="#FFFFFE" stroke-linecap="round" stroke-linejoin="round" stroke-width=".404" d="M227.159,36.977 L234.411,45.02"/>
    <path stroke="#FFFFFE" stroke-linecap="round" stroke-linejoin="round" stroke-width=".606" d="M223.684,43.535 L234.411,45.02"/>
    <path stroke="#FFFFFE" stroke-linecap="round" stroke-linejoin="round" stroke-width=".807" d="M225.247,50.79 L234.411,45.02"/>
    <path stroke="#FFFFFE" stroke-linecap="round" stroke-linejoin="round" stroke-width=".606" d="M231.115,55.335 L234.411,45.02"/>
    <path stroke="#FFFFFE" stroke-linecap="round" stroke-linejoin="round" stroke-width=".404" d="M238.53,55.034 L234.411,45.02"/>
    <path stroke="#FFFFFE" stroke-linecap="round" stroke-linejoin="round" stroke-width=".202" d="M242.613,49.3 L234.411,45.02 M241.626,43.417 L234.411,45.02 M239.056,38.944 L234.411,45.02"/>
    <path stroke="#FFFFFE" stroke-linecap="round" stroke-linejoin="round" stroke-width=".404" d="M233.998,36.422 L234.411,45.02"/>
    <path fill="#433D3C" d="M231.548,39.661 C234.124,38.454 237.332,39.864 238.713,42.811 C240.094,45.757 239.124,49.125 236.548,50.332 C233.972,51.539 230.764,50.128 229.383,47.182 C228.002,44.235 228.972,40.868 231.548,39.661"/>
    <path fill="#CFCEC9" d="M231.753,40.099 C231.753,40.099 231.65,40.163 231.457,40.283 C231.267,40.404 231.003,40.608 230.715,40.911 C230.436,41.221 230.136,41.636 229.92,42.175 C229.704,42.711 229.564,43.36 229.558,44.069 C229.552,44.764 229.699,45.578 229.946,46.273 C230.263,47.103 230.684,47.803 231.288,48.472 C231.883,49.124 232.656,49.669 233.546,49.963 C234.451,50.264 235.405,50.253 236.343,49.894 C237.243,49.527 238.021,48.829 238.502,47.941 C238.998,47.061 239.186,46.027 239.146,45.04 C239.059,44.065 238.772,43.101 238.295,42.329 C237.817,41.552 237.211,40.914 236.55,40.486 C235.231,39.587 233.86,39.519 233.024,39.664 C232.58,39.75 232.319,39.843 232.082,39.946 C231.851,40.053 231.728,40.11 231.728,40.11 L231.753,40.099 Z M231.368,39.211 C231.368,39.211 231.497,39.168 231.738,39.086 C231.975,39.007 232.436,38.891 232.934,38.858 C233.449,38.833 234.078,38.87 234.753,39.07 C235.425,39.269 236.137,39.625 236.797,40.148 C237.448,40.68 238.069,41.355 238.545,42.182 C239.008,43.02 239.369,43.959 239.483,45.01 C239.611,46.045 239.506,47.166 239.065,48.214 C238.636,49.262 237.817,50.201 236.753,50.77 C236.26,51.027 235.622,51.233 235.031,51.312 C234.428,51.393 233.816,51.357 233.224,51.251 C232.032,51.033 230.963,50.422 230.111,49.652 C229.288,48.868 228.661,47.854 228.342,46.93 C227.965,45.867 227.891,44.898 227.987,43.969 C228.079,43.053 228.362,42.24 228.731,41.592 C229.1,40.941 229.541,40.454 229.936,40.099 C230.342,39.753 230.7,39.536 230.953,39.409 C231.207,39.288 231.343,39.223 231.343,39.223 L231.368,39.211 Z"/>
    <path fill="#CFCEC9" d="M240.178,43.131 C240.178,43.131 240.016,43.947 239.641,44.822 C239.549,45.044 239.449,45.286 239.329,45.503 C239.212,45.729 239.095,45.981 238.952,46.188 C238.812,46.398 238.681,46.654 238.521,46.845 C238.365,47.044 238.207,47.248 238.049,47.451 C237.88,47.624 237.71,47.797 237.543,47.967 C237.382,48.152 237.193,48.256 237.027,48.398 C236.685,48.659 236.345,48.847 236.035,48.959 C235.73,49.086 235.454,49.129 235.255,49.147 C235.056,49.165 234.931,49.144 234.931,49.144 L234.143,49.012 C231.637,48.595 229.942,46.226 230.359,43.719 C230.541,42.628 231.096,41.689 231.867,41.013 C231.867,41.013 232.221,40.704 232.867,40.551 C233.187,40.462 233.577,40.41 234.016,40.406 C234.239,40.416 234.456,40.387 234.702,40.427 C234.944,40.455 235.189,40.483 235.435,40.511 C235.69,40.566 235.945,40.621 236.197,40.675 C236.445,40.721 236.713,40.826 236.959,40.895 C237.459,41.056 237.944,41.253 238.376,41.464 C239.231,41.865 239.879,42.337 239.879,42.337 C240.13,42.52 240.238,42.826 240.182,43.112 L240.178,43.131"/>
    <path fill="#CFCEC9" d="M226.633,33.382 C226.633,33.382 226.559,33.406 226.414,33.454 C226.269,33.495 226.056,33.57 225.786,33.69 C225.253,33.93 224.474,34.336 223.663,35.092 C222.853,35.835 221.981,36.901 221.354,38.312 C220.72,39.716 220.302,41.432 220.266,43.317 C220.211,45.204 220.611,47.237 221.349,49.267 C221.727,50.27 222.19,51.319 222.731,52.276 C223.336,53.331 223.905,54.266 224.649,55.203 C226.108,57.032 227.92,58.694 230.088,59.794 C232.211,60.894 234.817,61.439 237.03,60.726 C239.343,59.937 241.185,58.048 242.334,55.827 C243.496,53.597 244.028,51.06 244.055,48.612 C244.073,46.158 243.574,43.777 242.669,41.71 C241.748,39.651 240.342,37.965 238.821,36.71 C237.296,35.45 235.673,34.585 234.167,34.041 C232.663,33.483 231.282,33.225 230.148,33.128 C229.013,33.034 228.121,33.104 227.531,33.197 C227.246,33.245 227.022,33.286 226.86,33.329 C226.702,33.366 226.621,33.385 226.621,33.385 L226.633,33.382 Z M226.446,32.577 C226.446,32.577 226.528,32.561 226.688,32.529 C226.84,32.495 227.089,32.456 227.424,32.412 C228.073,32.333 229.027,32.294 230.22,32.436 C231.408,32.581 232.833,32.903 234.364,33.534 C235.888,34.17 237.54,35.07 239.107,36.366 C240.649,37.675 242.156,39.359 243.138,41.494 C244.143,43.603 244.726,46.045 244.839,48.598 C244.962,51.148 244.586,53.849 243.492,56.381 C242.421,58.897 240.393,61.23 237.664,62.35 C234.78,63.464 231.715,62.926 229.135,61.812 C226.538,60.657 224.347,58.818 222.729,56.708 C221.915,55.682 221.195,54.507 220.646,53.447 C220.034,52.286 219.574,51.157 219.213,49.987 C218.478,47.669 218.27,45.321 218.483,43.208 C218.692,41.088 219.339,39.211 220.175,37.714 C221.024,36.22 222.021,35.073 222.985,34.303 C223.938,33.514 224.842,33.105 225.458,32.871 C225.77,32.755 226.015,32.684 226.183,32.645 C226.349,32.602 226.435,32.58 226.435,32.58 L226.446,32.577 Z"/>
    <path fill="#FFFFFE" d="M231.126,42.272 C231.126,42.272 231.709,42.069 232.548,41.909 C233.395,41.74 234.537,41.597 235.682,41.628 C236.824,41.644 237.955,41.84 238.768,42.085 C239.177,42.2 239.507,42.325 239.733,42.424 C239.962,42.517 240.092,42.57 240.092,42.57 C240.182,42.607 240.226,42.709 240.188,42.799 C240.155,42.882 240.064,42.925 239.98,42.903 L239.965,42.898 C239.965,42.898 239.834,42.863 239.604,42.802 C239.378,42.734 239.051,42.654 238.65,42.593 C237.855,42.457 236.778,42.406 235.717,42.521 C234.654,42.624 233.617,42.886 232.866,43.135 C232.102,43.384 231.662,43.605 231.662,43.605 C231.307,43.783 230.874,43.639 230.695,43.284 C230.517,42.928 230.661,42.495 231.017,42.317 C231.043,42.303 231.07,42.292 231.099,42.282 L231.126,42.272"/>
    <path fill="#433D3C" d="M227.907,101.023 C227.907,97.063 231.118,93.852 235.078,93.852 C239.039,93.852 242.249,97.063 242.249,101.023 C242.249,104.983 239.039,108.194 235.078,108.194 C231.118,108.194 227.907,104.983 227.907,101.023"/>
    <path fill="#433D3C" d="M226.232 103.135C224.899 98.161 227.852 93.048 232.825 91.716 237.799 90.383 242.912 93.335 244.244 98.309M187.405 101.879C192.115 101.879 195.934 105.697 195.934 110.407 195.934 115.117 192.115 118.935 187.405 118.935 182.695 118.935 178.878 115.117 178.878 110.407 178.878 105.697 182.695 101.879 187.405 101.879"/>
    <path fill="#433D3C" d="M177.513,112.648 C176.022,107.086 179.323,101.368 184.886,99.877 C190.448,98.387 196.166,101.688 197.657,107.251"/>
    <path fill="#433D3C" d="M169.137 90.026L189.331 108.615 184.879 111.139 176.999 90.454C176.122 88.152 177.276 85.576 179.578 84.7 181.879 83.823 184.455 84.978 185.332 87.279 185.417 87.503 185.487 87.753 185.535 87.981L189.933 109.675 190.016 110.086C190.298 111.478 189.397 112.837 188.005 113.119 187.026 113.317 186.063 112.929 185.48 112.199L168.388 90.723C168.212 90.501 168.248 90.178 168.47 90.002 168.671 89.842 168.954 89.857 169.137 90.026M219.997 84.199L236.503 98.712 233.201 100.833 226.155 85.71 232.256 83.408 237.037 99.692C237.344 100.737 236.745 101.833 235.7 102.14 234.937 102.364 234.145 102.103 233.654 101.538L219.271 84.919 219.997 84.199M89.139 133.875C89.139 131.839 90.789 130.189 92.825 130.189 94.86 130.189 96.511 131.839 96.511 133.875 96.511 135.91 94.86 137.56 92.825 137.56 90.789 137.56 89.139 135.91 89.139 133.875"/>
    <polyline fill="#433D3C" points="92.324 133.98 89.986 126.052 92.266 125.571 93.326 133.769 92.324 133.98"/>
    <path fill="#433D3C" d="M55.176 241.407L53.778 245.221 55.263 245.766C56.333 246.158 57.074 246.35 57.486 246.341 57.898 246.333 58.262 246.216 58.576 245.992 58.891 245.767 59.121 245.457 59.267 245.059 59.446 244.57 59.45 244.114 59.279 243.691 59.108 243.268 58.817 242.936 58.406 242.695 58.105 242.515 57.465 242.246 56.487 241.887L55.176 241.407zM48.369 251.581L53.295 238.138 57.65 239.735C59.301 240.339 60.352 240.801 60.804 241.119 61.501 241.603 61.984 242.278 62.257 243.144 62.528 244.01 62.469 244.978 62.077 246.047 61.774 246.873 61.37 247.511 60.864 247.964 60.359 248.417 59.816 248.719 59.237 248.871 58.658 249.022 58.111 249.063 57.596 248.992 56.901 248.883 55.939 248.603 54.711 248.153L52.941 247.504 51.083 252.575 48.369 251.581zM72.481 253.578L72.036 247.928 68.723 252.509 72.481 253.578zM76.05 260.481L73.026 259.622 72.713 256.151 67.209 254.587 65.183 257.391 62.233 256.552 71.512 244.307 74.452 245.143 76.05 260.481zM86.257 254.317L88.351 254.753C89.708 255.035 90.568 255.154 90.93 255.11 91.291 255.065 91.597 254.922 91.847 254.682 92.096 254.442 92.265 254.111 92.352 253.69 92.45 253.218 92.404 252.811 92.212 252.469 92.021 252.127 91.704 251.87 91.261 251.698 91.038 251.618 90.353 251.459 89.206 251.22L86.997 250.76 86.257 254.317zM81.744 261.817L84.66 247.8 90.617 249.04C92.114 249.351 93.177 249.704 93.803 250.097 94.43 250.49 94.879 251.05 95.154 251.779 95.428 252.508 95.479 253.287 95.306 254.115 95.087 255.167 94.597 255.971 93.836 256.528 93.076 257.085 92.062 257.324 90.794 257.246 91.332 257.73 91.755 258.227 92.065 258.738 92.374 259.248 92.753 260.118 93.203 261.348L94.345 264.439 90.96 263.734 89.549 260.258C89.049 259.017 88.695 258.227 88.486 257.888 88.277 257.548 88.034 257.296 87.757 257.128 87.479 256.961 87.015 256.809 86.365 256.673L85.791 256.554 84.574 262.406 81.744 261.817z"/>
    <polyline fill="#433D3C" points="103.226 265.82 104.93 254.048 100.726 253.44 101.073 251.043 112.333 252.673 111.985 255.07 107.791 254.462 106.086 266.235 103.226 265.82"/>
    <path fill="#433D3C" d="M125.284 263.678L128.107 263.569C128.221 264.521 128.524 265.234 129.015 265.706 129.505 266.178 130.19 266.439 131.067 266.491 131.997 266.545 132.708 266.389 133.203 266.023 133.697 265.658 133.959 265.212 133.99 264.685 134.009 264.347 133.927 264.053 133.743 263.805 133.558 263.556 133.224 263.33 132.741 263.126 132.409 262.989 131.651 262.736 130.466 262.367 128.942 261.893 127.884 261.359 127.292 260.763 126.461 259.925 126.078 258.941 126.144 257.81 126.187 257.083 126.433 256.414 126.882 255.804 127.332 255.194 127.955 254.747 128.75 254.461 129.547 254.174 130.494 254.063 131.592 254.128 133.386 254.232 134.713 254.704 135.574 255.543 136.435 256.382 136.85 257.46 136.819 258.775L133.926 258.734C133.845 257.992 133.611 257.449 133.224 257.103 132.836 256.757 132.236 256.561 131.424 256.514 130.585 256.465 129.919 256.599 129.424 256.916 129.106 257.119 128.936 257.406 128.915 257.776 128.895 258.114 129.021 258.412 129.293 258.669 129.639 258.996 130.504 259.366 131.889 259.779 133.273 260.192 134.292 260.595 134.944 260.989 135.596 261.382 136.094 261.897 136.438 262.534 136.783 263.171 136.929 263.94 136.876 264.843 136.828 265.663 136.556 266.416 136.06 267.104 135.563 267.793 134.888 268.287 134.036 268.586 133.184 268.885 132.137 268.999 130.896 268.926 129.089 268.821 127.726 268.322 126.806 267.43 125.886 266.539 125.379 265.289 125.284 263.678M150.813 263.572L148.86 258.253 146.908 263.557 150.813 263.572zM156.115 269.255L152.971 269.244 151.732 265.988 146.01 265.966 144.816 269.214 141.75 269.203 147.379 254.907 150.436 254.919 156.115 269.255z"/>
    <polyline fill="#433D3C" points="161.317 269.082 160.677 254.897 163.564 254.766 164.097 266.542 171.276 266.217 171.386 268.627 161.317 269.082"/>
    <polyline fill="#433D3C" points="176.941 268.241 175.653 253.982 186.226 253.027 186.443 255.439 178.75 256.134 179.035 259.296 186.193 258.648 186.411 261.05 179.253 261.698 179.604 265.579 187.568 264.859 187.786 267.261 176.941 268.241"/>
    <path fill="#433D3C" d="M192.397,262.058 L195.147,261.41 C195.441,262.322 195.875,262.963 196.447,263.332 C197.021,263.702 197.741,263.827 198.612,263.709 C199.535,263.584 200.204,263.295 200.619,262.84 C201.033,262.387 201.205,261.899 201.135,261.377 C201.089,261.041 200.952,260.769 200.724,260.56 C200.494,260.351 200.123,260.193 199.609,260.085 C199.258,260.014 198.466,259.912 197.232,259.777 C195.645,259.604 194.504,259.283 193.81,258.811 C192.833,258.149 192.269,257.256 192.116,256.133 C192.019,255.412 192.132,254.708 192.456,254.023 C192.78,253.338 193.306,252.78 194.032,252.346 C194.759,251.913 195.667,251.622 196.757,251.474 C198.538,251.233 199.931,251.441 200.937,252.1 C201.942,252.758 202.556,253.737 202.778,255.034 L199.931,255.547 C199.709,254.836 199.375,254.346 198.929,254.082 C198.482,253.817 197.855,253.74 197.05,253.849 C196.217,253.962 195.589,254.221 195.164,254.627 C194.891,254.887 194.779,255.202 194.829,255.569 C194.874,255.905 195.055,256.172 195.371,256.373 C195.773,256.627 196.693,256.824 198.132,256.964 C199.57,257.104 200.646,257.305 201.362,257.566 C202.077,257.827 202.665,258.237 203.125,258.796 C203.585,259.354 203.876,260.082 203.998,260.978 C204.108,261.792 203.985,262.583 203.63,263.354 C203.274,264.125 202.707,264.739 201.929,265.196 C201.149,265.653 200.144,265.965 198.911,266.132 C197.118,266.376 195.685,266.147 194.61,265.449 C193.537,264.75 192.799,263.62 192.397,262.058"/>
    <polyline fill="#433D3C" points="219.558 262.544 216.76 248.623 219.593 248.052 221.916 259.609 228.963 258.192 229.438 260.557 219.558 262.544"/>
    <polyline fill="#433D3C" points="234.999 259.31 231.684 245.503 234.494 244.829 237.246 256.291 244.235 254.612 244.798 256.958 234.999 259.31"/>
    <path fill="#433D3C" d="M257.636 247.999L260.574 248.096C260.583 249.716 260.209 251.027 259.452 252.028 258.694 253.028 257.576 253.736 256.098 254.151 254.267 254.666 252.587 254.462 251.058 253.543 249.528 252.624 248.459 251.08 247.85 248.911 247.206 246.617 247.298 244.669 248.126 243.067 248.954 241.464 250.333 240.393 252.264 239.85 253.95 239.377 255.46 239.491 256.792 240.192 257.585 240.605 258.292 241.319 258.916 242.335L256.346 243.766C255.981 243.097 255.483 242.628 254.851 242.36 254.217 242.091 253.53 242.061 252.791 242.269 251.77 242.555 251.043 243.155 250.613 244.067 250.183 244.979 250.198 246.256 250.659 247.898 251.148 249.641 251.811 250.795 252.646 251.358 253.479 251.921 254.398 252.062 255.401 251.781 256.141 251.573 256.711 251.159 257.111 250.54 257.513 249.92 257.688 249.073 257.636 247.999M55.397 272.45C55.247 272.845 55.187 273.256 55.217 273.683 55.248 274.109 55.379 274.474 55.609 274.779 55.84 275.083 56.121 275.298 56.454 275.424 56.939 275.609 57.431 275.572 57.929 275.312 58.427 275.053 58.804 274.587 59.06 273.914 59.306 273.266 59.327 272.691 59.124 272.187 58.92 271.683 58.557 271.332 58.033 271.132 57.513 270.935 57.001 270.954 56.498 271.189 55.994 271.424 55.627 271.844 55.397 272.45zM61.628 270.195L60.45 269.849C60.52 269.359 60.5 268.976 60.39 268.701 60.203 268.254 59.882 267.945 59.426 267.771 59.06 267.632 58.699 267.612 58.345 267.712 57.882 267.838 57.45 268.116 57.049 268.544 56.648 268.971 56.265 269.652 55.9 270.586 56.337 270.269 56.795 270.085 57.273 270.032 57.751 269.98 58.209 270.037 58.648 270.204 59.416 270.495 59.961 271.025 60.286 271.795 60.61 272.564 60.603 273.395 60.263 274.291 60.04 274.879 59.705 275.377 59.26 275.785 58.814 276.194 58.319 276.448 57.774 276.547 57.23 276.648 56.676 276.591 56.113 276.378 55.155 276.013 54.507 275.364 54.17 274.429 53.833 273.495 53.972 272.217 54.586 270.598 55.274 268.788 56.108 267.598 57.09 267.03 57.945 266.537 58.867 266.477 59.855 266.852 60.593 267.132 61.118 267.568 61.432 268.161 61.746 268.753 61.811 269.43 61.628 270.195zM66.707 278.728L66.32 279.845 60.06 277.679C60.148 277.396 60.287 277.143 60.475 276.919 60.782 276.547 61.183 276.215 61.677 275.924 62.171 275.632 62.843 275.33 63.694 275.016 65.016 274.529 65.943 274.1 66.475 273.733 67.008 273.365 67.35 272.962 67.502 272.522 67.662 272.061 67.631 271.616 67.411 271.185 67.191 270.754 66.816 270.447 66.287 270.264 65.727 270.07 65.221 270.084 64.769 270.302 64.316 270.522 63.985 270.928 63.775 271.521L62.623 270.985C63.013 270.122 63.556 269.549 64.252 269.267 64.948 268.984 65.746 268.999 66.646 269.31 67.555 269.625 68.187 270.126 68.542 270.813 68.897 271.501 68.946 272.216 68.688 272.962 68.557 273.34 68.351 273.686 68.069 273.999 67.787 274.311 67.396 274.607 66.897 274.887 66.397 275.168 65.607 275.517 64.527 275.934 63.627 276.278 63.041 276.52 62.771 276.661 62.501 276.801 62.264 276.955 62.062 277.121L66.707 278.728M68.315 277.743L69.581 278.026C69.483 278.655 69.553 279.172 69.79 279.58 70.027 279.986 70.381 280.263 70.851 280.412 71.415 280.589 71.961 280.527 72.486 280.224 73.012 279.921 73.385 279.418 73.607 278.713 73.817 278.044 73.796 277.457 73.541 276.952 73.287 276.446 72.856 276.097 72.248 275.906 71.869 275.787 71.501 275.765 71.143 275.841 70.784 275.918 70.475 276.065 70.215 276.284L69.158 275.794 71.63 271.175 76.383 272.671 76.03 273.793 72.216 272.592 70.892 274.999C71.591 274.78 72.256 274.769 72.887 274.967 73.721 275.23 74.335 275.742 74.727 276.501 75.118 277.259 75.171 278.092 74.885 279.001 74.613 279.866 74.125 280.535 73.422 281.006 72.566 281.587 71.607 281.711 70.547 281.377 69.677 281.102 69.044 280.635 68.648 279.976 68.251 279.316 68.14 278.572 68.315 277.743M81.128 280.046L84.408 280.935 84.124 277.983C84.036 277.086 83.989 276.355 83.981 275.791 83.69 276.378 83.349 276.947 82.96 277.498L81.128 280.046zM77.261 283.263L83.597 274.596 84.976 274.969 86.314 285.715 84.856 285.32 84.521 282.085 80.477 280.989 78.621 283.631 77.261 283.263zM89.239 277.539L89.58 276.166 90.774 276.462 90.434 277.836 89.239 277.539zM87.165 285.891L88.914 278.846 90.109 279.142 88.359 286.188 87.165 285.891zM90.135 286.623L91.792 279.554 92.87 279.807 92.619 280.879C93.012 280.442 93.343 280.171 93.613 280.065 93.884 279.961 94.159 279.941 94.439 280.006 94.842 280.101 95.222 280.326 95.579 280.681L94.906 281.696C94.654 281.454 94.381 281.298 94.088 281.23 93.826 281.169 93.573 281.192 93.327 281.3 93.082 281.41 92.882 281.593 92.728 281.852 92.495 282.247 92.319 282.697 92.2 283.203L91.333 286.903 90.135 286.623M96.477 284.397C96.282 285.311 96.324 286.026 96.601 286.542 96.878 287.056 97.28 287.371 97.806 287.482 98.34 287.596 98.847 287.467 99.324 287.095 99.801 286.724 100.141 286.064 100.343 285.114 100.535 284.21 100.493 283.492 100.216 282.962 99.94 282.433 99.543 282.114 99.026 282.004 98.513 281.895 98.009 282.038 97.513 282.433 97.016 282.829 96.671 283.483 96.477 284.397zM94.062 290.397L96.15 280.575 97.247 280.808 97.05 281.731C97.386 281.424 97.735 281.215 98.099 281.104 98.463 280.993 98.877 280.987 99.34 281.086 99.946 281.214 100.448 281.484 100.845 281.894 101.243 282.305 101.499 282.82 101.614 283.438 101.73 284.056 101.716 284.705 101.572 285.382 101.417 286.109 101.147 286.735 100.763 287.261 100.379 287.788 99.905 288.153 99.342 288.357 98.779 288.561 98.224 288.605 97.675 288.489 97.274 288.404 96.932 288.242 96.649 288.005 96.367 287.768 96.15 287.499 96.001 287.196L95.266 290.653 94.062 290.397zM103.666 285.839C103.496 286.754 103.569 287.475 103.883 288.004 104.197 288.533 104.657 288.853 105.262 288.965 105.862 289.077 106.404 288.941 106.888 288.558 107.372 288.175 107.7 287.515 107.874 286.579 108.038 285.696 107.961 284.991 107.645 284.462 107.328 283.932 106.872 283.612 106.276 283.502 105.671 283.389 105.127 283.522 104.645 283.901 104.162 284.28 103.835 284.925 103.666 285.839zM102.422 285.609C102.667 284.288 103.217 283.377 104.07 282.877 104.782 282.462 105.579 282.337 106.462 282.5 107.443 282.682 108.186 283.152 108.689 283.911 109.192 284.67 109.339 285.616 109.129 286.75 108.958 287.668 108.687 288.365 108.313 288.84 107.94 289.316 107.463 289.65 106.882 289.843 106.302 290.037 105.7 290.076 105.078 289.961 104.078 289.775 103.33 289.305 102.833 288.549 102.335 287.795 102.199 286.815 102.422 285.609zM109.818 290.638L110.994 283.474 112.087 283.654 111.909 284.74C112.271 284.277 112.583 283.985 112.846 283.861 113.109 283.738 113.382 283.7 113.665 283.747 114.074 283.814 114.469 284.012 114.849 284.342L114.246 285.4C113.978 285.176 113.695 285.04 113.398 284.991 113.133 284.948 112.881 284.989 112.644 285.113 112.406 285.238 112.219 285.435 112.083 285.704 111.877 286.113 111.732 286.574 111.648 287.087L111.032 290.837 109.818 290.638"/>
    <path fill="#433D3C" d="M117.195 290.679L117.21 291.781C116.856 291.801 116.544 291.792 116.274 291.752 115.833 291.685 115.5 291.564 115.278 291.388 115.056 291.212 114.912 291.003 114.847 290.76 114.781 290.518 114.804 290.032 114.913 289.301L115.531 285.171 114.639 285.037 114.78 284.09 115.673 284.224 115.939 282.446 117.258 281.897 116.883 284.405 118.106 284.588 117.965 285.535 116.741 285.352 116.113 289.55C116.061 289.897 116.049 290.124 116.077 290.229 116.105 290.335 116.163 290.424 116.251 290.497 116.339 290.57 116.474 290.62 116.654 290.647 116.789 290.668 116.969 290.678 117.195 290.679M124.112 287.068L126.944 287.387C127.547 287.456 128.025 287.447 128.378 287.36 128.732 287.274 129.013 287.104 129.22 286.849 129.428 286.595 129.55 286.308 129.586 285.986 129.639 285.515 129.512 285.109 129.204 284.767 128.896 284.425 128.373 284.212 127.635 284.129L124.483 283.774 124.112 287.068zM122.167 292.483L123.29 282.525 127.705 283.022C128.592 283.123 129.257 283.288 129.699 283.519 130.141 283.75 130.474 284.107 130.699 284.591 130.924 285.076 131.006 285.591 130.944 286.139 130.865 286.846 130.569 287.416 130.057 287.848 129.545 288.282 128.804 288.51 127.833 288.534 128.163 288.741 128.41 288.935 128.572 289.119 128.917 289.515 129.232 289.999 129.517 290.567L130.943 293.472 129.286 293.286 128.202 291.065C127.884 290.424 127.619 289.931 127.405 289.586 127.192 289.241 126.994 288.994 126.811 288.844 126.628 288.696 126.438 288.585 126.24 288.512 126.094 288.463 125.851 288.421 125.512 288.381L123.983 288.21 123.485 292.631 122.167 292.483zM133.106 290.003C133.03 290.929 133.168 291.638 133.521 292.129 133.874 292.62 134.316 292.887 134.847 292.931 135.383 292.975 135.856 292.794 136.267 292.386 136.678 291.979 136.92 291.326 136.995 290.426 137.076 289.436 136.945 288.694 136.602 288.199 136.259 287.704 135.808 287.433 135.249 287.387 134.704 287.342 134.23 287.528 133.828 287.943 133.426 288.358 133.185 289.045 133.106 290.003zM136.685 293.933L136.76 293.02C136.242 293.7 135.538 294.004 134.648 293.929 134.071 293.882 133.554 293.679 133.097 293.322 132.639 292.964 132.301 292.489 132.083 291.897 131.864 291.305 131.785 290.639 131.846 289.899 131.905 289.176 132.08 288.532 132.369 287.963 132.658 287.395 133.056 286.973 133.563 286.7 134.071 286.426 134.622 286.314 135.217 286.363 135.653 286.399 136.034 286.523 136.359 286.735 136.685 286.947 136.942 287.21 137.131 287.522L137.426 283.939 138.646 284.039 137.823 294.027 136.685 293.933z"/>
    <polyline fill="#433D3C" points="140.05 294.166 140.138 292.767 141.537 292.855 141.449 294.254 140.05 294.166"/>
    <path fill="#433D3C" d="M152.344 290.776L152.373 289.6 156.616 289.697 156.526 293.415C155.861 293.919 155.18 294.293 154.481 294.538 153.782 294.783 153.068 294.896 152.339 294.879 151.355 294.854 150.466 294.622 149.672 294.18 148.878 293.74 148.287 293.116 147.896 292.308 147.505 291.501 147.322 290.605 147.346 289.621 147.37 288.646 147.596 287.741 148.025 286.906 148.453 286.071 149.055 285.458 149.831 285.066 150.606 284.674 151.493 284.491 152.49 284.515 153.215 284.534 153.867 284.667 154.446 284.916 155.026 285.165 155.477 285.503 155.799 285.93 156.122 286.357 156.361 286.911 156.519 287.588L155.314 287.887C155.176 287.374 154.999 286.968 154.783 286.671 154.567 286.374 154.253 286.132 153.843 285.947 153.433 285.761 152.975 285.663 152.469 285.65 151.863 285.635 151.337 285.714 150.891 285.888 150.444 286.062 150.082 286.296 149.803 286.59 149.525 286.884 149.306 287.21 149.147 287.566 148.876 288.179 148.733 288.848 148.715 289.572 148.693 290.465 148.829 291.216 149.122 291.825 149.414 292.434 149.851 292.891 150.432 293.198 151.012 293.504 151.633 293.665 152.293 293.68 152.867 293.695 153.431 293.598 153.982 293.39 154.535 293.183 154.955 292.957 155.244 292.713L155.29 290.847 152.344 290.776M158.206 294.787L158.192 287.527 159.3 287.525 159.302 288.626C159.583 288.11 159.843 287.77 160.083 287.606 160.321 287.441 160.585 287.359 160.872 287.358 161.286 287.357 161.708 287.489 162.136 287.753L161.716 288.894C161.413 288.717 161.112 288.629 160.812 288.629 160.544 288.63 160.302 288.712 160.087 288.874 159.874 289.036 159.722 289.26 159.632 289.547 159.495 289.986 159.429 290.464 159.429 290.984L159.437 294.785 158.206 294.787M163.657 290.427L167.71 290.335C167.642 289.725 167.476 289.27 167.214 288.971 166.811 288.506 166.297 288.281 165.673 288.296 165.108 288.309 164.638 288.508 164.262 288.896 163.885 289.283 163.684 289.794 163.657 290.427zM167.742 292.323L169.017 292.451C168.834 293.198 168.476 293.783 167.943 294.206 167.41 294.629 166.723 294.849 165.88 294.869 164.818 294.893 163.969 294.586 163.332 293.947 162.695 293.307 162.362 292.397 162.335 291.217 162.308 289.997 162.6 289.042 163.213 288.352 163.826 287.664 164.634 287.307 165.636 287.285 166.606 287.262 167.407 287.574 168.037 288.22 168.668 288.867 168.997 289.79 169.024 290.988 169.026 291.06 169.026 291.17 169.025 291.316L163.612 291.441C163.677 292.237 163.916 292.842 164.331 293.256 164.746 293.671 165.257 293.872 165.863 293.857 166.314 293.847 166.696 293.719 167.01 293.475 167.323 293.231 167.567 292.847 167.742 292.323zM171.265 290.206L175.313 290.004C175.229 289.397 175.051 288.948 174.78 288.656 174.365 288.202 173.847 287.99 173.223 288.021 172.658 288.049 172.193 288.261 171.827 288.659 171.461 289.055 171.273 289.571 171.265 290.206zM175.398 291.992L176.676 292.086C176.513 292.837 176.17 293.432 175.648 293.869 175.128 294.305 174.446 294.545 173.604 294.587 172.543 294.639 171.687 294.354 171.032 293.732 170.379 293.11 170.022 292.21 169.964 291.03 169.903 289.81 170.17 288.848 170.765 288.143 171.359 287.438 172.157 287.061 173.159 287.011 174.128 286.963 174.937 287.254 175.584 287.883 176.231 288.512 176.585 289.425 176.645 290.623 176.647 290.696 176.651 290.805 176.653 290.951L171.246 291.219C171.331 292.014 171.587 292.613 172.013 293.016 172.439 293.42 172.955 293.606 173.561 293.576 174.011 293.553 174.39 293.416 174.696 293.163 175.003 292.911 175.237 292.52 175.398 291.992z"/>
    <polyline fill="#433D3C" points="178.25 294.152 177.565 284.154 178.793 284.07 179.478 294.068 178.25 294.152"/>
    <path fill="#433D3C" d="M181.894 289.553L185.932 289.201C185.824 288.597 185.63 288.155 185.349 287.873 184.917 287.434 184.391 287.243 183.769 287.296 183.206 287.345 182.749 287.576 182.398 287.986 182.047 288.396 181.879 288.919 181.894 289.553zM186.091 291.184L187.371 291.23C187.236 291.987 186.916 292.594 186.411 293.049 185.907 293.505 185.234 293.77 184.395 293.843 183.337 293.935 182.47 293.683 181.793 293.086 181.116 292.488 180.727 291.601 180.624 290.425 180.519 289.209 180.749 288.237 181.317 287.51 181.885 286.784 182.668 286.378 183.667 286.29 184.634 286.206 185.453 286.465 186.123 287.071 186.793 287.675 187.181 288.575 187.285 289.769 187.291 289.841 187.299 289.951 187.307 290.096L181.913 290.567C182.027 291.358 182.306 291.946 182.746 292.334 183.188 292.72 183.71 292.887 184.313 292.835 184.763 292.796 185.137 292.644 185.434 292.38 185.73 292.117 185.95 291.717 186.091 291.184zM189.311 296.03L189.045 294.897C189.32 294.94 189.558 294.95 189.757 294.927 190.028 294.896 190.24 294.827 190.394 294.717 190.546 294.608 190.665 294.466 190.751 294.292 190.814 294.161 190.904 293.843 191.022 293.339 191.037 293.269 191.062 293.166 191.097 293.028L187.543 286.11 188.861 285.962 190.834 289.969C191.089 290.477 191.326 291.014 191.546 291.581 191.623 291.004 191.729 290.437 191.862 289.88L192.93 285.502 194.152 285.364 192.237 293.009C192.032 293.836 191.865 294.407 191.735 294.724 191.563 295.152 191.348 295.475 191.089 295.695 190.829 295.915 190.505 296.046 190.115 296.09 189.88 296.117 189.611 296.097 189.311 296.03M195.244 292.523L195.065 291.133 196.455 290.955 196.634 292.344C196.699 292.855 196.662 293.28 196.521 293.617 196.381 293.955 196.125 294.234 195.754 294.457L195.348 293.978C195.591 293.832 195.76 293.641 195.854 293.406 195.947 293.171 195.975 292.847 195.936 292.434L195.244 292.523M209.203 286.87L210.566 286.983C210.472 288.103 210.114 289.004 209.496 289.687 208.877 290.37 208.054 290.796 207.024 290.968 205.959 291.146 205.056 291.073 204.316 290.751 203.576 290.428 202.964 289.884 202.479 289.12 201.993 288.355 201.672 287.501 201.515 286.556 201.343 285.527 201.39 284.596 201.655 283.764 201.921 282.932 202.384 282.257 203.044 281.739 203.703 281.219 204.47 280.887 205.342 280.743 206.33 280.578 207.204 280.691 207.962 281.083 208.721 281.473 209.309 282.103 209.726 282.971L208.488 283.49C208.139 282.808 207.719 282.34 207.229 282.085 206.737 281.829 206.162 281.756 205.501 281.867 204.741 281.993 204.137 282.281 203.688 282.73 203.237 283.179 202.96 283.727 202.855 284.376 202.751 285.024 202.753 285.673 202.862 286.326 203.002 287.166 203.246 287.879 203.596 288.465 203.945 289.052 204.404 289.458 204.973 289.681 205.542 289.906 206.127 289.967 206.729 289.867 207.462 289.745 208.048 289.43 208.485 288.923 208.923 288.416 209.162 287.732 209.203 286.87M212.586 284.877C212.827 286.06 213.335 286.927 214.11 287.479 214.886 288.03 215.753 288.208 216.713 288.012 217.691 287.813 218.426 287.305 218.918 286.489 219.409 285.672 219.526 284.632 219.27 283.369 219.106 282.569 218.829 281.899 218.438 281.358 218.046 280.817 217.557 280.435 216.969 280.212 216.382 279.991 215.765 279.946 215.117 280.078 214.197 280.265 213.47 280.742 212.936 281.509 212.401 282.276 212.285 283.399 212.586 284.877zM211.242 285.129C210.91 283.5 211.088 282.134 211.775 281.034 212.462 279.934 213.498 279.243 214.883 278.961 215.789 278.776 216.65 278.826 217.467 279.111 218.282 279.395 218.961 279.886 219.5 280.584 220.04 281.28 220.41 282.12 220.61 283.102 220.813 284.098 220.794 285.03 220.552 285.898 220.311 286.765 219.862 287.476 219.208 288.031 218.553 288.586 217.8 288.949 216.946 289.123 216.022 289.311 215.15 289.256 214.332 288.959 213.513 288.66 212.837 288.163 212.305 287.466 211.772 286.771 211.418 285.992 211.242 285.129zM226.979 283.75C227.065 284.09 227.229 284.399 227.47 284.676 227.711 284.955 228.013 285.141 228.375 285.235 228.737 285.33 229.102 285.332 229.468 285.239 230.038 285.096 230.463 284.795 230.742 284.335 231.021 283.874 231.09 283.361 230.947 282.796 230.804 282.22 230.493 281.794 230.016 281.514 229.539 281.234 229.014 281.167 228.439 281.311 227.878 281.452 227.459 281.754 227.184 282.218 226.907 282.682 226.84 283.193 226.979 283.75zM226.236 279.165C226.353 279.625 226.595 279.962 226.964 280.18 227.333 280.397 227.755 280.447 228.228 280.328 228.688 280.212 229.027 279.973 229.249 279.61 229.47 279.247 229.528 278.855 229.423 278.435 229.313 277.998 229.068 277.668 228.691 277.445 228.313 277.223 227.899 277.169 227.448 277.282 226.993 277.396 226.651 277.636 226.424 278.004 226.197 278.371 226.135 278.758 226.236 279.165zM226.983 281.127C226.442 281.07 226.011 280.904 225.688 280.628 225.365 280.352 225.145 279.979 225.026 279.511 224.849 278.803 224.954 278.145 225.341 277.536 225.729 276.926 226.344 276.516 227.188 276.303 228.037 276.09 228.782 276.166 229.423 276.528 230.063 276.891 230.473 277.426 230.65 278.133 230.764 278.585 230.744 279.006 230.592 279.399 230.438 279.793 230.145 280.14 229.708 280.442 230.354 280.487 230.887 280.687 231.307 281.042 231.728 281.396 232.014 281.875 232.164 282.475 232.373 283.306 232.255 284.079 231.809 284.793 231.363 285.505 230.66 285.983 229.701 286.223 228.742 286.464 227.897 286.375 227.167 285.955 226.437 285.535 225.965 284.9 225.751 284.051 225.593 283.42 225.62 282.85 225.833 282.342 226.047 281.836 226.43 281.43 226.983 281.127zM233.844 279.863C234.287 281.448 234.767 282.45 235.284 282.871 235.802 283.292 236.333 283.426 236.877 283.274 237.421 283.123 237.805 282.731 238.029 282.101 238.253 281.47 238.144 280.365 237.702 278.785 237.259 277.196 236.778 276.192 236.261 275.774 235.744 275.355 235.209 275.223 234.656 275.378 234.112 275.53 233.742 275.881 233.546 276.433 233.302 277.135 233.401 278.279 233.844 279.863zM232.626 280.204C232.308 279.062 232.168 278.111 232.209 277.349 232.249 276.588 232.448 275.955 232.806 275.447 233.163 274.941 233.693 274.589 234.396 274.393 234.913 274.248 235.396 274.225 235.846 274.325 236.295 274.424 236.701 274.634 237.065 274.957 237.43 275.278 237.764 275.701 238.065 276.224 238.368 276.748 238.653 277.488 238.92 278.445 239.236 279.577 239.376 280.524 239.338 281.285 239.299 282.046 239.102 282.68 238.744 283.189 238.388 283.698 237.855 284.051 237.149 284.249 236.219 284.508 235.395 284.379 234.677 283.861 233.816 283.235 233.133 282.016 232.626 280.204zM241.719 279.373C241.844 279.778 242.049 280.139 242.335 280.457 242.621 280.774 242.948 280.982 243.317 281.081 243.686 281.179 244.04 281.176 244.38 281.072 244.877 280.919 245.242 280.587 245.476 280.077 245.71 279.566 245.721 278.966 245.509 278.278 245.305 277.616 244.968 277.149 244.498 276.877 244.028 276.604 243.525 276.549 242.989 276.714 242.458 276.879 242.065 277.208 241.813 277.703 241.56 278.198 241.528 278.754 241.719 279.373zM245.25 273.766L244.109 274.217C243.862 273.788 243.611 273.498 243.355 273.348 242.934 273.11 242.49 273.063 242.024 273.207 241.649 273.322 241.353 273.528 241.134 273.824 240.847 274.208 240.677 274.692 240.622 275.276 240.568 275.86 240.685 276.632 240.971 277.593 241.121 277.075 241.369 276.648 241.714 276.313 242.06 275.978 242.456 275.742 242.904 275.603 243.688 275.362 244.445 275.446 245.174 275.853 245.902 276.26 246.407 276.921 246.688 277.837 246.874 278.437 246.916 279.036 246.815 279.631 246.716 280.228 246.481 280.733 246.112 281.146 245.744 281.56 245.272 281.856 244.697 282.033 243.717 282.335 242.807 282.219 241.967 281.689 241.126 281.159 240.451 280.066 239.942 278.411 239.372 276.559 239.3 275.108 239.726 274.057 240.097 273.142 240.788 272.529 241.799 272.217 242.552 271.986 243.234 272.007 243.846 272.282 244.457 272.556 244.925 273.05 245.25 273.766zM247.93 278.075L249.043 277.527C249.399 278.143 249.788 278.543 250.208 278.726 250.627 278.91 251.068 278.923 251.53 278.768 252.079 278.584 252.479 278.237 252.729 277.73 252.979 277.223 253.009 276.688 252.82 276.127 252.641 275.591 252.316 275.209 251.85 274.978 251.383 274.749 250.88 274.724 250.34 274.906 250.119 274.98 249.859 275.116 249.561 275.312L249.346 274.245C249.426 274.227 249.49 274.211 249.538 274.195 250.034 274.028 250.438 273.748 250.748 273.355 251.059 272.962 251.123 272.496 250.941 271.956 250.797 271.528 250.533 271.222 250.149 271.039 249.766 270.856 249.345 270.841 248.887 270.995 248.434 271.148 248.104 271.418 247.896 271.804 247.69 272.191 247.64 272.684 247.745 273.283L246.51 273.468C246.389 272.638 246.509 271.923 246.87 271.324 247.23 270.724 247.787 270.297 248.538 270.045 249.057 269.871 249.571 269.821 250.082 269.897 250.594 269.972 251.029 270.164 251.39 270.47 251.75 270.777 252.003 271.146 252.148 271.579 252.286 271.989 252.302 272.399 252.195 272.81 252.088 273.221 251.852 273.599 251.487 273.943 252.092 273.883 252.619 274.005 253.067 274.309 253.516 274.613 253.843 275.071 254.049 275.684 254.328 276.514 254.263 277.319 253.852 278.099 253.44 278.879 252.773 279.424 251.849 279.735 251.016 280.016 250.239 280.001 249.521 279.689 248.804 279.378 248.273 278.839 247.93 278.075M260.435 276.52L259.278 276.942 256.589 269.577C256.407 269.944 256.139 270.342 255.784 270.773 255.43 271.204 255.097 271.55 254.786 271.815L254.378 270.698C254.913 270.158 255.344 269.583 255.67 268.974 255.995 268.365 256.185 267.82 256.237 267.34L256.982 267.068 260.435 276.52M118.999 304.289C119.102 303.59 118.998 303.008 118.686 302.544 118.375 302.079 117.957 301.807 117.434 301.73 116.893 301.651 116.389 301.802 115.923 302.185 115.457 302.568 115.172 303.111 115.068 303.814 114.976 304.446 115.09 304.987 115.414 305.437 115.736 305.887 116.178 306.154 116.737 306.236 117.3 306.319 117.792 306.19 118.213 305.849 118.634 305.508 118.896 304.988 118.999 304.289zM113.371 307.931L114.557 307.996C114.575 308.56 114.706 308.987 114.949 309.276 115.192 309.565 115.532 309.742 115.97 309.806 116.344 309.861 116.685 309.824 116.992 309.694 117.298 309.564 117.563 309.37 117.786 309.11 118.008 308.85 118.216 308.485 118.41 308.016 118.603 307.547 118.737 307.06 118.811 306.555 118.819 306.502 118.829 306.42 118.84 306.311 118.54 306.663 118.161 306.928 117.704 307.108 117.247 307.287 116.772 307.34 116.281 307.268 115.46 307.147 114.81 306.748 114.329 306.069 113.849 305.39 113.68 304.564 113.823 303.589 113.971 302.585 114.387 301.819 115.07 301.293 115.753 300.767 116.541 300.569 117.434 300.701 118.078 300.796 118.642 301.056 119.125 301.482 119.609 301.908 119.942 302.462 120.125 303.145 120.307 303.829 120.309 304.779 120.13 305.997 119.944 307.263 119.658 308.252 119.272 308.962 118.887 309.672 118.394 310.183 117.792 310.496 117.191 310.808 116.526 310.911 115.795 310.803 115.02 310.689 114.418 310.38 113.99 309.878 113.562 309.375 113.355 308.726 113.371 307.931zM122 302.721L122.14 301.547 128.581 302.316 128.468 303.266C127.753 303.865 127.019 304.686 126.263 305.729 125.508 306.773 124.89 307.865 124.41 309.005 124.066 309.809 123.801 310.702 123.615 311.685L122.359 311.535C122.466 310.754 122.732 309.827 123.159 308.753 123.585 307.679 124.135 306.661 124.808 305.697 125.48 304.733 126.169 303.935 126.873 303.303L122 302.721M130.678 307.497C130.528 309.135 130.62 310.244 130.954 310.821 131.288 311.398 131.736 311.712 132.299 311.764 132.862 311.816 133.36 311.587 133.793 311.078 134.227 310.568 134.518 309.497 134.667 307.863 134.818 306.219 134.726 305.111 134.392 304.536 134.058 303.961 133.605 303.646 133.033 303.594 132.471 303.543 132 303.74 131.62 304.185 131.142 304.754 130.829 305.859 130.678 307.497zM129.419 307.381C129.527 306.202 129.735 305.263 130.044 304.566 130.353 303.869 130.764 303.347 131.279 303.001 131.793 302.655 132.414 302.514 133.14 302.581 133.675 302.63 134.135 302.781 134.52 303.034 134.904 303.286 135.208 303.628 135.435 304.057 135.661 304.488 135.822 305.002 135.918 305.598 136.015 306.195 136.018 306.989 135.927 307.978 135.82 309.149 135.613 310.083 135.307 310.78 135 311.477 134.589 312.001 134.075 312.349 133.56 312.698 132.938 312.838 132.207 312.772 131.245 312.683 130.521 312.269 130.035 311.53 129.453 310.638 129.248 309.256 129.419 307.381z"/>
    <polyline fill="#433D3C" points="137.141 310.001 137.226 308.766 140.998 309.027 140.912 310.261 137.141 310.001"/>
    <path fill="#433D3C" d="M142.196,310.713 L143.433,310.607 C143.541,311.31 143.758,311.824 144.083,312.147 C144.407,312.47 144.813,312.643 145.3,312.666 C145.878,312.693 146.376,312.515 146.793,312.133 C147.21,311.752 147.433,311.264 147.46,310.672 C147.487,310.108 147.324,309.634 146.973,309.251 C146.621,308.867 146.161,308.662 145.592,308.634 C145.359,308.624 145.068,308.656 144.718,308.731 L144.905,307.658 C144.987,307.671 145.052,307.679 145.103,307.681 C145.626,307.706 146.104,307.591 146.535,307.337 C146.967,307.085 147.196,306.672 147.223,306.104 C147.244,305.653 147.108,305.273 146.817,304.962 C146.526,304.652 146.14,304.486 145.657,304.463 C145.179,304.441 144.773,304.573 144.441,304.858 C144.108,305.143 143.882,305.585 143.763,306.181 L142.544,305.905 C142.733,305.088 143.104,304.466 143.658,304.038 C144.212,303.61 144.885,303.415 145.677,303.452 C146.223,303.477 146.721,303.618 147.169,303.874 C147.618,304.129 147.955,304.466 148.18,304.882 C148.404,305.299 148.506,305.735 148.484,306.19 C148.464,306.623 148.33,307.011 148.081,307.355 C147.832,307.7 147.475,307.965 147.01,308.154 C147.596,308.318 148.042,308.623 148.35,309.069 C148.657,309.514 148.796,310.06 148.766,310.707 C148.725,311.581 148.372,312.306 147.706,312.884 C147.04,313.462 146.22,313.728 145.246,313.683 C144.367,313.641 143.65,313.345 143.094,312.795 C142.538,312.245 142.239,311.55 142.196,310.713"/>
    <g transform="translate(151 303)">
      <mask id="logo-f" fill="#fff">
        <use xlink:href="#logo-e"/>
      </mask>
      <path fill="#433D3C" d="M3.827 10.805L2.597 10.782 2.746 2.942C2.445 3.219 2.051 3.494 1.565 3.767 1.079 4.041.643 4.245.257 4.379L.28 3.189C.974 2.879 1.583 2.499 2.107 2.048 2.63 1.597 3.003 1.158 3.226.729L4.019.745 3.827 10.805M7.317 8.205L8.546 8.03C8.693 8.725 8.938 9.226 9.28 9.531 9.622 9.836 10.038 9.985 10.524 9.981 11.104 9.976 11.591 9.771 11.985 9.367 12.382 8.962 12.577 8.463 12.571 7.871 12.565 7.306 12.378 6.841 12.005 6.478 11.632 6.115 11.161 5.935 10.593 5.94 10.36 5.942 10.071 5.991 9.726 6.085L9.853 5.004C9.935 5.011 10.001 5.015 10.05 5.015 10.575 5.01 11.046 4.87 11.462 4.592 11.878 4.315 12.085 3.892 12.079 3.323 12.075 2.872 11.919 2.499 11.612 2.206 11.304 1.912 10.909 1.767 10.425 1.771 9.946 1.776 9.55 1.929 9.233 2.233 8.917 2.537 8.716 2.99 8.63 3.592L7.397 3.384C7.54 2.558 7.877 1.916 8.405 1.458 8.935 1 9.597.767 10.39.76 10.937.755 11.44.868 11.903 1.099 12.366 1.33 12.72 1.646 12.968 2.05 13.216 2.454 13.341 2.883 13.345 3.338 13.349 3.772 13.235 4.167 13.007 4.524 12.776 4.881 12.435 5.168 11.981 5.381 12.575 5.512 13.038 5.793 13.37 6.22 13.702 6.648 13.87 7.185 13.876 7.833 13.884 8.708 13.571 9.452 12.938 10.066 12.306 10.679 11.503 10.991 10.526 11 9.647 11.007 8.915 10.752 8.329 10.233 7.743 9.713 7.406 9.038 7.317 8.205" mask="url(#logo-f)"/>
    </g>
    <polyline fill="#433D3C" points="166.216 310.743 166.178 309.506 169.956 309.388 169.994 310.625 166.216 310.743"/>
    <path fill="#433D3C" d="M175.222 309.852L174.978 305.34 172.089 310.022 175.222 309.852zM175.412 313.375L175.283 310.978 170.941 311.213 170.881 310.087 175.097 303.355 176.1 303.301 176.45 309.786 177.802 309.712 177.863 310.838 176.512 310.912 176.641 313.308 175.412 313.375zM180.629 305.497C180.668 305.968 180.852 306.342 181.181 306.617 181.51 306.891 181.917 307.009 182.403 306.969 182.876 306.93 183.251 306.75 183.528 306.427 183.806 306.105 183.927 305.728 183.892 305.296 183.854 304.846 183.668 304.481 183.331 304.201 182.995 303.92 182.595 303.798 182.132 303.837 181.664 303.875 181.288 304.056 181.004 304.381 180.72 304.707 180.595 305.079 180.629 305.497zM180.614 310.141C180.643 310.491 180.753 310.823 180.946 311.136 181.139 311.449 181.406 311.682 181.748 311.835 182.09 311.987 182.449 312.047 182.826 312.017 183.412 311.968 183.88 311.74 184.23 311.332 184.581 310.923 184.732 310.428 184.685 309.847 184.636 309.256 184.399 308.785 183.975 308.431 183.55 308.077 183.042 307.924 182.452 307.973 181.875 308.021 181.413 308.251 181.064 308.664 180.717 309.077 180.566 309.569 180.614 310.141zM181.046 307.554C180.521 307.41 180.123 307.175 179.849 306.85 179.575 306.525 179.419 306.122 179.379 305.64 179.319 304.914 179.53 304.282 180.012 303.744 180.493 303.206 181.167 302.9 182.035 302.829 182.907 302.757 183.63 302.953 184.203 303.416 184.776 303.878 185.093 304.472 185.152 305.199 185.19 305.663 185.102 306.076 184.888 306.438 184.673 306.801 184.325 307.096 183.846 307.324 184.476 307.473 184.969 307.756 185.325 308.175 185.683 308.594 185.886 309.113 185.937 309.73 186.007 310.585 185.765 311.327 185.208 311.958 184.652 312.588 183.881 312.945 182.896 313.026 181.91 313.107 181.091 312.881 180.438 312.347 179.787 311.813 179.425 311.11 179.353 310.238 179.3 309.588 179.419 309.031 179.713 308.566 180.006 308.1 180.45 307.763 181.046 307.554zM193.994 310.551L194.124 311.727 187.54 312.456C187.499 312.163 187.515 311.874 187.589 311.59 187.707 311.124 187.927 310.653 188.247 310.176 188.568 309.701 189.046 309.139 189.681 308.491 190.665 307.484 191.318 306.7 191.642 306.138 191.965 305.578 192.101 305.066 192.049 304.604 191.996 304.12 191.777 303.73 191.394 303.435 191.011 303.141 190.54 303.024 189.983 303.087 189.395 303.151 188.942 303.38 188.628 303.773 188.314 304.165 188.189 304.674 188.254 305.299L186.982 305.31C186.965 304.363 187.21 303.612 187.717 303.058 188.225 302.504 188.951 302.175 189.898 302.071 190.854 301.965 191.64 302.146 192.256 302.615 192.871 303.083 193.223 303.709 193.31 304.492 193.354 304.891 193.315 305.292 193.195 305.695 193.074 306.098 192.849 306.534 192.518 307.001 192.187 307.468 191.623 308.123 190.826 308.962 190.161 309.66 189.735 310.13 189.552 310.373 189.368 310.616 189.22 310.855 189.108 311.092L193.994 310.551M195.415 308.901L196.611 308.569C196.848 309.24 197.155 309.704 197.534 309.962 197.912 310.219 198.344 310.315 198.826 310.248 199.399 310.168 199.855 309.902 200.195 309.45 200.535 308.998 200.664 308.478 200.582 307.891 200.504 307.332 200.257 306.895 199.841 306.583 199.425 306.27 198.935 306.154 198.37 306.232 198.14 306.264 197.859 306.349 197.529 306.487L197.516 305.399C197.599 305.396 197.664 305.392 197.714 305.385 198.232 305.313 198.682 305.112 199.059 304.784 199.437 304.455 199.586 304.008 199.507 303.444 199.445 302.998 199.242 302.648 198.898 302.397 198.556 302.146 198.145 302.053 197.666 302.12 197.192 302.186 196.818 302.39 196.544 302.732 196.27 303.074 196.128 303.549 196.121 304.158L194.872 304.111C194.907 303.273 195.157 302.592 195.623 302.07 196.089 301.547 196.714 301.231 197.499 301.122 198.041 301.046 198.556 301.093 199.044 301.262 199.532 301.431 199.926 301.7 200.223 302.067 200.521 302.435 200.7 302.845 200.764 303.296 200.823 303.725 200.763 304.131 200.581 304.516 200.4 304.9 200.099 305.227 199.676 305.498 200.281 305.551 200.776 305.769 201.161 306.15 201.546 306.532 201.782 307.043 201.872 307.684 201.992 308.55 201.779 309.329 201.23 310.019 200.683 310.711 199.926 311.123 198.96 311.257 198.089 311.379 197.329 311.22 196.682 310.781 196.034 310.342 195.611 309.715 195.415 308.901"/>
  </g>
</svg>
